<svg width="402" height="370" viewBox="0 0 402 370" fill="none" xmlns="http://www.w3.org/2000/svg">
<path d="M335.654 67.8506C335.654 67.8506 316.189 34.6986 274.478 32.7672C232.766 30.8358 217.924 70.1446 187.533 85.3072C171.622 93.2548 139.446 79.9496 122.474 84.5006C68.2116 99.0712 48.8432 165.76 72.1914 200.977C92.3959 231.509 127.249 245.517 179.927 245.325C232.605 245.132 269.606 246.805 316.173 211.773C362.741 176.742 358.456 111.651 335.654 67.8506Z" fill="#8244C0"/>
<path opacity="0.8" d="M335.654 67.8506C335.654 67.8506 316.189 34.6986 274.478 32.7672C232.766 30.8358 217.924 70.1446 187.533 85.3072C171.622 93.2548 139.446 79.9496 122.474 84.5006C68.2116 99.0712 48.8432 165.76 72.1914 200.977C92.3959 231.509 127.249 245.517 179.927 245.325C232.605 245.132 269.606 246.805 316.173 211.773C362.741 176.742 358.456 111.651 335.654 67.8506Z" fill="white"/>
<path d="M227.661 73.6226H204.899V78.4474H227.661V73.6226Z" fill="#8244C0"/>
<path d="M219.854 80.5934H204.899V85.4182H219.854V80.5934Z" fill="#8244C0"/>
<path d="M213.51 87.5642H204.899V92.389H213.51V87.5642Z" fill="#8244C0"/>
<g opacity="0.2">
<path d="M227.661 73.6226H204.899V78.4474H227.661V73.6226Z" fill="black"/>
<path d="M219.854 80.5934H204.899V85.4182H219.854V80.5934Z" fill="black"/>
<path d="M213.51 87.5642H204.899V92.389H213.51V87.5642Z" fill="black"/>
</g>
<path d="M165.375 127.051V141.577H173.093V127.051H165.375Z" fill="#8244C0"/>
<path d="M176.526 132.038V141.577H184.245V132.038H176.526Z" fill="#8244C0"/>
<path d="M187.67 136.079V141.569H195.388V136.079H187.67Z" fill="#8244C0"/>
<g opacity="0.2">
<path d="M165.375 127.051V141.577H173.093V127.051H165.375Z" fill="black"/>
<path d="M176.526 132.038V141.577H184.245V132.038H176.526Z" fill="black"/>
<path d="M187.67 136.079V141.569H195.388V136.079H187.67Z" fill="black"/>
</g>
<path d="M163.646 152.174H257.111C258.335 152.176 259.548 151.955 260.679 151.526C261.811 151.096 262.839 150.465 263.705 149.669C264.571 148.873 265.258 147.928 265.727 146.887C266.196 145.846 266.438 144.731 266.438 143.604V72.7124C266.438 71.5858 266.196 70.4703 265.727 69.4297C265.258 68.3891 264.571 67.4437 263.705 66.6478C262.839 65.8519 261.811 65.221 260.679 64.7912C259.548 64.3615 258.335 64.1413 257.111 64.1432H163.646C162.423 64.1422 161.211 64.3631 160.08 64.7932C158.949 65.2233 157.921 65.8543 157.055 66.65C156.189 67.4457 155.501 68.3907 155.032 69.4308C154.563 70.471 154.321 71.5861 154.32 72.7124V143.604C154.321 144.731 154.563 145.846 155.032 146.886C155.501 147.926 156.189 148.871 157.055 149.667C157.921 150.463 158.949 151.093 160.08 151.524C161.211 151.954 162.423 152.175 163.646 152.174Z" stroke="#263238" stroke-width="1.0631" stroke-miterlimit="10"/>
<path d="M222.58 127.835H255.905" stroke="#263238" stroke-width="1.0631" stroke-miterlimit="10"/>
<path d="M222.58 131.113H255.905" stroke="#263238" stroke-width="1.0631" stroke-miterlimit="10"/>
<path d="M222.58 134.391H255.905" stroke="#263238" stroke-width="1.0631" stroke-miterlimit="10"/>
<path d="M222.58 137.677H255.905" stroke="#263238" stroke-width="1.0631" stroke-miterlimit="10"/>
<path d="M222.58 140.955H255.905" stroke="#263238" stroke-width="1.0631" stroke-miterlimit="10"/>
<path d="M164.354 74.3404H197.679" stroke="#263238" stroke-width="1.0631" stroke-miterlimit="10"/>
<path d="M164.354 77.6186H197.679" stroke="#263238" stroke-width="1.0631" stroke-miterlimit="10"/>
<path d="M164.354 80.8968H197.679" stroke="#263238" stroke-width="1.0631" stroke-miterlimit="10"/>
<path d="M164.354 84.175H197.679" stroke="#263238" stroke-width="1.0631" stroke-miterlimit="10"/>
<path d="M164.354 87.4606H197.679" stroke="#263238" stroke-width="1.0631" stroke-miterlimit="10"/>
<path d="M251.733 100.122L258.084 103.193L257.369 86.7058L242.189 95.5192L248.541 98.5828L243.765 106.952C242.92 106.955 242.1 107.215 241.433 107.692L233.023 104.096C233.023 103.15 232.615 102.243 231.888 101.574C231.162 100.905 230.176 100.529 229.148 100.529C228.12 100.529 227.135 100.905 226.408 101.574C225.681 102.243 225.273 103.15 225.273 104.096C225.273 104.607 225.393 105.112 225.627 105.576L214.604 116.572C214.253 116.468 213.887 116.414 213.518 116.409C213.332 116.415 213.147 116.433 212.964 116.461L197.117 98.0278C197.345 97.5629 197.46 97.0579 197.454 96.5478C197.454 95.6018 197.046 94.6946 196.319 94.0257C195.593 93.3568 194.607 92.981 193.579 92.981C192.551 92.981 191.566 93.3568 190.839 94.0257C190.112 94.6946 189.704 95.6018 189.704 96.5478C189.712 96.9151 189.78 97.2793 189.905 97.6282L171.807 114.589C171.382 114.446 170.933 114.371 170.48 114.367C169.716 114.368 168.969 114.578 168.334 114.97C167.699 115.362 167.205 115.919 166.913 116.569C166.622 117.22 166.546 117.935 166.696 118.625C166.847 119.315 167.215 119.949 167.757 120.446C168.298 120.943 168.987 121.281 169.737 121.418C170.487 121.555 171.264 121.484 171.97 121.214C172.676 120.945 173.28 120.488 173.704 119.903C174.129 119.318 174.356 118.63 174.356 117.926C174.354 117.631 174.311 117.338 174.227 117.053L192.478 99.9C192.834 100.003 193.205 100.058 193.579 100.063C193.816 100.062 194.053 100.043 194.287 100.004L210.053 118.4C209.768 118.925 209.628 119.507 209.646 120.093C209.663 120.68 209.838 121.254 210.154 121.763C210.47 122.273 210.918 122.703 211.458 123.015C211.998 123.328 212.613 123.512 213.249 123.553C213.886 123.594 214.523 123.49 215.105 123.25C215.687 123.01 216.195 122.641 216.585 122.177C216.975 121.712 217.235 121.167 217.341 120.588C217.447 120.009 217.396 119.415 217.193 118.859L228.497 107.589C228.712 107.624 228.93 107.644 229.148 107.648C229.916 107.649 230.667 107.437 231.303 107.041L239.906 110.741C239.939 111.29 240.109 111.824 240.405 112.303C240.7 112.781 241.111 113.189 241.607 113.496C242.102 113.804 242.668 114.001 243.26 114.073C243.853 114.145 244.455 114.09 245.02 113.912C245.585 113.734 246.098 113.437 246.518 113.046C246.938 112.655 247.253 112.18 247.44 111.658C247.627 111.135 247.68 110.58 247.595 110.036C247.509 109.492 247.288 108.973 246.949 108.521L251.733 100.122Z" fill="#263238"/>
<path d="M132.958 116.321L122.088 100.684L104.126 112.843L87.5638 82.6728L43.8584 108.247V128.908H142.413V111.54L132.958 116.321Z" fill="#263238" stroke="#263238" stroke-width="1.16063" stroke-linecap="round" stroke-linejoin="round"/>
<path d="M134.847 128.042L123.036 111.54L103.186 118.925L80.0223 98.5162L43.8584 111.955V141.939H142.413V123.262L134.847 128.042Z" fill="#8244C0" stroke="#263238" stroke-width="0.876601" stroke-miterlimit="10"/>
<path opacity="0.2" d="M134.847 128.042L123.036 111.54L103.186 118.925L80.0223 98.5162L43.8584 111.955V141.939H142.413V123.262L134.847 128.042Z" fill="black"/>
<path d="M134.847 128.042L123.036 111.54L103.186 118.925L80.0223 98.5162L43.8584 111.955V141.939H142.413V123.262L134.847 128.042Z" stroke="#263238" stroke-width="0.876601" stroke-miterlimit="10"/>
<path d="M99.8569 75.0212H91.9214C91.4362 75.0179 90.9641 75.1659 90.582 75.4413C90.2 75.7167 89.9305 76.103 89.8177 76.5374C89.7048 76.9718 89.7552 77.4285 89.9606 77.8332C90.166 78.2378 90.5142 78.5665 90.9486 78.7656L88.1748 81.4814L93.232 78.9876H99.8569C100.428 78.9876 100.976 78.7786 101.381 78.4067C101.785 78.0348 102.012 77.5304 102.012 77.0044C102.012 76.4784 101.785 75.974 101.381 75.602C100.976 75.2301 100.428 75.0212 99.8569 75.0212Z" fill="#8244C0"/>
<path opacity="0.2" d="M99.8569 75.0212H91.9214C91.4362 75.0179 90.9641 75.1659 90.582 75.4413C90.2 75.7167 89.9305 76.103 89.8177 76.5374C89.7048 76.9718 89.7552 77.4285 89.9606 77.8332C90.166 78.2378 90.5142 78.5665 90.9486 78.7656L88.1748 81.4814L93.232 78.9876H99.8569C100.428 78.9876 100.976 78.7786 101.381 78.4067C101.785 78.0348 102.012 77.5304 102.012 77.0044C102.012 76.4784 101.785 75.974 101.381 75.602C100.976 75.2301 100.428 75.0212 99.8569 75.0212Z" fill="black"/>
<path d="M134.614 92.6776H126.678C126.193 92.6743 125.721 92.8224 125.339 93.0977C124.957 93.3731 124.687 93.7595 124.575 94.1938C124.462 94.6282 124.512 95.085 124.717 95.4896C124.923 95.8943 125.271 96.2229 125.705 96.422L122.932 99.16L127.989 96.6588H134.614C135.185 96.6588 135.733 96.4499 136.137 96.0779C136.541 95.706 136.768 95.2016 136.768 94.6756C136.768 94.1496 136.541 93.6452 136.137 93.2733C135.733 92.9014 135.185 92.6924 134.614 92.6924V92.6776Z" fill="#8244C0"/>
<path opacity="0.2" d="M134.614 92.6776H126.678C126.193 92.6743 125.721 92.8224 125.339 93.0977C124.957 93.3731 124.687 93.7595 124.575 94.1938C124.462 94.6282 124.512 95.085 124.717 95.4896C124.923 95.8943 125.271 96.2229 125.705 96.422L122.932 99.16L127.989 96.6588H134.614C135.185 96.6588 135.733 96.4499 136.137 96.0779C136.541 95.706 136.768 95.2016 136.768 94.6756C136.768 94.1496 136.541 93.6452 136.137 93.2733C135.733 92.9014 135.185 92.6924 134.614 92.6924V92.6776Z" fill="black"/>
<path d="M47.8381 152.174H141.303C142.527 152.176 143.74 151.955 144.871 151.526C146.002 151.096 147.031 150.465 147.897 149.669C148.763 148.873 149.45 147.928 149.919 146.887C150.388 145.846 150.63 144.731 150.63 143.604V72.7124C150.63 71.5858 150.388 70.4703 149.919 69.4297C149.45 68.3891 148.763 67.4437 147.897 66.6478C147.031 65.8519 146.002 65.221 144.871 64.7912C143.74 64.3615 142.527 64.1413 141.303 64.1432H47.8381C46.6141 64.1413 45.4017 64.3615 44.2703 64.7912C43.1388 65.221 42.1106 65.8519 41.2443 66.6478C40.3781 67.4437 39.6909 68.3891 39.222 69.4297C38.7531 70.4703 38.5117 71.5858 38.5117 72.7124V143.604C38.5117 144.731 38.7531 145.846 39.222 146.887C39.6909 147.928 40.3781 148.873 41.2443 149.669C42.1106 150.465 43.1388 151.096 44.2703 151.526C45.4017 151.955 46.6141 152.176 47.8381 152.174Z" stroke="#263238" stroke-width="1.0631" stroke-miterlimit="10"/>
<path d="M45.6108 73.7114H52.0509" stroke="#263238" stroke-width="1.0631" stroke-miterlimit="10"/>
<path d="M45.6108 80.1642H52.0509" stroke="#263238" stroke-width="1.0631" stroke-miterlimit="10"/>
<path d="M45.6108 86.617H52.0509" stroke="#263238" stroke-width="1.0631" stroke-miterlimit="10"/>
<path d="M45.6108 93.0698H52.0509" stroke="#263238" stroke-width="1.0631" stroke-miterlimit="10"/>
<path d="M45.6108 99.5226H52.0509" stroke="#263238" stroke-width="1.0631" stroke-miterlimit="10"/>
<path d="M298.541 82.4582C294.354 82.464 290.263 83.6122 286.784 85.7575C283.306 87.9028 280.597 90.949 278.999 94.5112C277.401 98.0733 276.986 101.991 277.807 105.771C278.628 109.55 280.647 113.02 283.61 115.743C286.573 118.466 290.347 120.319 294.454 121.069C298.561 121.819 302.817 121.431 306.685 119.955C310.553 118.479 313.858 115.98 316.184 112.776C318.509 109.571 319.751 105.804 319.751 101.95C319.742 96.7776 317.504 91.8199 313.527 88.1653C309.551 84.5108 304.161 82.4582 298.541 82.4582ZM298.541 115.714C295.584 115.704 292.696 114.887 290.243 113.367C287.79 111.847 285.881 109.693 284.757 107.175C283.634 104.657 283.346 101.89 283.93 99.2214C284.514 96.5532 285.945 94.1043 288.04 92.1838C290.136 90.2633 292.803 88.9574 295.704 88.431C298.605 87.9047 301.611 88.1815 304.342 89.2264C307.072 90.2714 309.405 92.0377 311.046 94.3022C312.687 96.5667 313.561 99.228 313.56 101.95C313.556 103.761 313.164 105.554 312.407 107.226C311.65 108.898 310.542 110.417 309.148 111.695C307.753 112.973 306.099 113.986 304.279 114.675C302.459 115.365 300.509 115.718 298.541 115.714Z" fill="#8244C0" stroke="#263238" stroke-width="1.0631" stroke-miterlimit="10"/>
<g opacity="0.2">
<path d="M298.541 82.4582C294.354 82.464 290.263 83.6122 286.784 85.7575C283.306 87.9028 280.597 90.949 278.999 94.5112C277.401 98.0733 276.986 101.991 277.807 105.771C278.628 109.55 280.647 113.02 283.61 115.743C286.573 118.466 290.347 120.319 294.454 121.069C298.561 121.819 302.817 121.431 306.685 119.955C310.553 118.479 313.858 115.98 316.184 112.776C318.509 109.571 319.751 105.804 319.751 101.95C319.742 96.7776 317.504 91.8199 313.527 88.1653C309.551 84.5108 304.161 82.4582 298.541 82.4582ZM298.541 115.714C295.584 115.704 292.696 114.887 290.243 113.367C287.79 111.847 285.881 109.693 284.757 107.175C283.634 104.657 283.346 101.89 283.93 99.2214C284.514 96.5532 285.945 94.1043 288.04 92.1838C290.136 90.2633 292.803 88.9574 295.704 88.431C298.605 87.9047 301.611 88.1815 304.342 89.2264C307.072 90.2714 309.405 92.0377 311.046 94.3022C312.687 96.5667 313.561 99.228 313.56 101.95C313.556 103.761 313.164 105.554 312.407 107.226C311.65 108.898 310.542 110.417 309.148 111.695C307.753 112.973 306.099 113.986 304.279 114.675C302.459 115.365 300.509 115.718 298.541 115.714Z" fill="black"/>
</g>
<path d="M298.541 82.4582C294.354 82.464 290.263 83.6122 286.784 85.7575C283.306 87.9028 280.597 90.949 278.999 94.5112C277.401 98.0733 276.986 101.991 277.807 105.771C278.628 109.55 280.647 113.02 283.61 115.743C286.573 118.466 290.347 120.319 294.454 121.069C298.561 121.819 302.817 121.431 306.685 119.955C310.553 118.479 313.858 115.98 316.184 112.776C318.509 109.571 319.751 105.804 319.751 101.95C319.742 96.7776 317.504 91.8199 313.527 88.1653C309.551 84.5108 304.161 82.4582 298.541 82.4582ZM298.541 115.714C295.584 115.704 292.696 114.887 290.243 113.367C287.79 111.847 285.881 109.693 284.757 107.175C283.634 104.657 283.346 101.89 283.93 99.2214C284.514 96.5532 285.945 94.1043 288.04 92.1838C290.136 90.2633 292.803 88.9574 295.704 88.431C298.605 87.9047 301.611 88.1815 304.342 89.2264C307.072 90.2714 309.405 92.0377 311.046 94.3022C312.687 96.5667 313.561 99.228 313.56 101.95C313.556 103.761 313.164 105.554 312.407 107.226C311.65 108.898 310.542 110.417 309.148 111.695C307.753 112.973 306.099 113.986 304.279 114.675C302.459 115.365 300.509 115.718 298.541 115.714Z" stroke="#263238" stroke-width="1.0631" stroke-miterlimit="10"/>
<path d="M298.541 82.4582C295.679 82.4475 292.845 82.9742 290.211 84.0061C287.578 85.038 285.201 86.5533 283.225 88.4596L287.719 92.4186C289.43 90.7701 291.558 89.5379 293.913 88.8325C296.268 88.1271 298.777 87.9705 301.214 88.3768C303.651 88.783 305.94 89.7394 307.877 91.1602C309.814 92.5811 311.337 94.422 312.311 96.5179C313.285 98.6139 313.678 100.899 313.456 103.17C313.234 105.44 312.404 107.624 311.039 109.527C309.675 111.429 307.819 112.99 305.637 114.07C303.456 115.15 301.018 115.714 298.541 115.714V121.434C301.357 121.484 304.154 121.018 306.771 120.061C309.388 119.104 311.772 117.677 313.782 115.862C315.792 114.048 317.389 111.882 318.48 109.493C319.57 107.103 320.131 104.538 320.131 101.946C320.131 99.3544 319.57 96.7888 318.48 94.3993C317.389 92.0098 315.792 89.8444 313.782 88.0298C311.772 86.2152 309.388 84.7878 306.771 83.8311C304.154 82.8744 301.357 82.4077 298.541 82.4582Z" fill="#263238" stroke="#263238" stroke-width="1.0631" stroke-linecap="round" stroke-linejoin="round"/>
<path d="M350.849 82.4582C346.662 82.464 342.571 83.6122 339.093 85.7575C335.614 87.9028 332.905 90.949 331.307 94.5112C329.709 98.0733 329.294 101.991 330.115 105.771C330.936 109.55 332.955 113.02 335.918 115.743C338.881 118.466 342.655 120.319 346.762 121.069C350.869 121.819 355.125 121.431 358.993 119.955C362.861 118.479 366.166 115.98 368.492 112.776C370.818 109.571 372.059 105.804 372.059 101.95C372.05 96.7776 369.812 91.8199 365.835 88.1653C361.859 84.5108 356.469 82.4582 350.849 82.4582ZM350.849 115.714C347.89 115.712 344.998 114.903 342.538 113.389C340.078 111.874 338.162 109.723 337.031 107.206C335.9 104.689 335.605 101.92 336.184 99.2485C336.763 96.5774 338.189 94.1242 340.283 92.1993C342.377 90.2744 345.043 88.9641 347.946 88.4342C350.849 87.9042 353.857 88.1784 356.591 89.2221C359.324 90.2658 361.66 92.0321 363.303 94.2976C364.945 96.5631 365.821 99.2261 365.82 101.95C365.809 105.6 364.228 109.097 361.422 111.677C358.617 114.256 354.815 115.708 350.849 115.714Z" fill="#8244C0" stroke="#263238" stroke-width="1.0631" stroke-miterlimit="10"/>
<g opacity="0.2">
<path d="M350.849 82.4582C346.662 82.464 342.571 83.6122 339.093 85.7575C335.614 87.9028 332.905 90.949 331.307 94.5112C329.709 98.0733 329.294 101.991 330.115 105.771C330.936 109.55 332.955 113.02 335.918 115.743C338.881 118.466 342.655 120.319 346.762 121.069C350.869 121.819 355.125 121.431 358.993 119.955C362.861 118.479 366.166 115.98 368.492 112.776C370.818 109.571 372.059 105.804 372.059 101.95C372.05 96.7776 369.812 91.8199 365.835 88.1653C361.859 84.5108 356.469 82.4582 350.849 82.4582ZM350.849 115.714C347.89 115.712 344.998 114.903 342.538 113.389C340.078 111.874 338.162 109.723 337.031 107.206C335.9 104.689 335.605 101.92 336.184 99.2485C336.763 96.5774 338.189 94.1242 340.283 92.1993C342.377 90.2744 345.043 88.9641 347.946 88.4342C350.849 87.9042 353.857 88.1784 356.591 89.2221C359.324 90.2658 361.66 92.0321 363.303 94.2976C364.945 96.5631 365.821 99.2261 365.82 101.95C365.809 105.6 364.228 109.097 361.422 111.677C358.617 114.256 354.815 115.708 350.849 115.714Z" fill="black"/>
</g>
<path d="M350.849 82.4582C346.662 82.464 342.571 83.6122 339.093 85.7575C335.614 87.9028 332.905 90.949 331.307 94.5112C329.709 98.0733 329.294 101.991 330.115 105.771C330.936 109.55 332.955 113.02 335.918 115.743C338.881 118.466 342.655 120.319 346.762 121.069C350.869 121.819 355.125 121.431 358.993 119.955C362.861 118.479 366.166 115.98 368.492 112.776C370.818 109.571 372.059 105.804 372.059 101.95C372.05 96.7776 369.812 91.8199 365.835 88.1653C361.859 84.5108 356.469 82.4582 350.849 82.4582ZM350.849 115.714C347.89 115.712 344.998 114.903 342.538 113.389C340.078 111.874 338.162 109.723 337.031 107.206C335.9 104.689 335.605 101.92 336.184 99.2485C336.763 96.5774 338.189 94.1242 340.283 92.1993C342.377 90.2744 345.043 88.9641 347.946 88.4342C350.849 87.9042 353.857 88.1784 356.591 89.2221C359.324 90.2658 361.66 92.0321 363.303 94.2976C364.945 96.5631 365.821 99.2261 365.82 101.95C365.809 105.6 364.228 109.097 361.422 111.677C358.617 114.256 354.815 115.708 350.849 115.714Z" stroke="#263238" stroke-width="1.0631" stroke-miterlimit="10"/>
<path d="M359.106 83.99L356.694 89.2588C359.875 90.4967 362.492 92.7089 364.102 95.5201C365.712 98.3314 366.216 101.569 365.529 104.683C364.842 107.798 363.006 110.597 360.332 112.608C357.657 114.618 354.31 115.716 350.857 115.714V121.434C355.749 121.444 360.494 119.895 364.285 117.05C368.076 114.204 370.679 110.238 371.652 105.825C372.625 101.413 371.908 96.8265 369.622 92.8458C367.337 88.8651 363.624 85.7358 359.114 83.99H359.106Z" fill="#263238" stroke="#263238" stroke-width="1.0631" stroke-linecap="round" stroke-linejoin="round"/>
<path d="M369.293 64.1432H281.898C280.377 64.1422 278.87 64.4171 277.464 64.9521C276.058 65.4871 274.78 66.2717 273.704 67.2612C272.627 68.2507 271.773 69.4257 271.19 70.719C270.606 72.0124 270.306 73.3989 270.305 74.7992V141.525C270.309 144.352 271.533 147.061 273.707 149.058C275.881 151.055 278.827 152.176 281.898 152.174H369.293C370.814 152.176 372.321 151.902 373.727 151.367C375.133 150.833 376.411 150.049 377.487 149.06C378.564 148.071 379.418 146.897 380.002 145.604C380.585 144.311 380.886 142.925 380.887 141.525V74.7992C380.886 73.3989 380.585 72.0124 380.002 70.719C379.419 69.4257 378.564 68.2507 377.488 67.2612C376.411 66.2717 375.133 65.4871 373.727 64.9521C372.321 64.4171 370.815 64.1422 369.293 64.1432Z" stroke="#263238" stroke-width="1.0631" stroke-miterlimit="10"/>
<path d="M279.695 127.835H313.013" stroke="#263238" stroke-width="1.0631" stroke-miterlimit="10"/>
<path d="M279.695 131.113H313.013" stroke="#263238" stroke-width="1.0631" stroke-miterlimit="10"/>
<path d="M279.695 134.391H313.013" stroke="#263238" stroke-width="1.0631" stroke-miterlimit="10"/>
<path d="M279.695 137.677H313.013" stroke="#263238" stroke-width="1.0631" stroke-miterlimit="10"/>
<path d="M279.695 140.955H313.013" stroke="#263238" stroke-width="1.0631" stroke-miterlimit="10"/>
<path d="M334.721 127.835H368.047" stroke="#263238" stroke-width="1.0631" stroke-miterlimit="10"/>
<path d="M334.721 131.113H368.047" stroke="#263238" stroke-width="1.0631" stroke-miterlimit="10"/>
<path d="M334.721 134.391H368.047" stroke="#263238" stroke-width="1.0631" stroke-miterlimit="10"/>
<path d="M334.721 137.677H368.047" stroke="#263238" stroke-width="1.0631" stroke-miterlimit="10"/>
<path d="M334.721 140.955H368.047" stroke="#263238" stroke-width="1.0631" stroke-miterlimit="10"/>
<path d="M307.819 73.1786H341.137" stroke="#263238" stroke-width="1.0631" stroke-miterlimit="10"/>
<path d="M307.819 76.4642H341.137" stroke="#263238" stroke-width="1.0631" stroke-miterlimit="10"/>
<path d="M269.951 275.532H368.586C371.845 275.534 374.971 274.344 377.278 272.225C379.584 270.107 380.883 267.231 380.887 264.232V168.616C380.886 167.131 380.567 165.659 379.948 164.287C379.329 162.915 378.423 161.668 377.281 160.618C376.138 159.568 374.782 158.735 373.291 158.168C371.799 157.6 370.2 157.308 368.586 157.309H222.901C221.286 157.308 219.688 157.6 218.196 158.168C216.704 158.735 215.348 159.568 214.206 160.618C213.064 161.668 212.157 162.915 211.538 164.287C210.92 165.659 210.601 167.131 210.6 168.616V231.62" stroke="#263238" stroke-width="1.0631" stroke-miterlimit="10"/>
<path d="M258.309 213.068H234.848V244.452H258.309V213.068Z" fill="#8244C0" stroke="#263238" stroke-width="1.16063" stroke-miterlimit="10"/>
<path opacity="0.2" d="M258.309 213.068H234.848V244.452H258.309V213.068Z" fill="black"/>
<path d="M258.309 213.068H234.848V244.452H258.309V213.068Z" stroke="#263238" stroke-width="1.16063" stroke-miterlimit="10"/>
<path d="M290.887 197.373H267.426V232.116H290.887V197.373Z" fill="#8244C0" stroke="#263238" stroke-width="1.16063" stroke-miterlimit="10"/>
<path opacity="0.2" d="M290.887 197.373H267.426V232.116H290.887V197.373Z" fill="black"/>
<path d="M290.887 197.373H267.426V232.116H290.887V197.373Z" stroke="#263238" stroke-width="1.16063" stroke-miterlimit="10"/>
<path d="M323.465 184.489H300.004V207.466H323.465V184.489Z" fill="#8244C0" stroke="#263238" stroke-width="1.16063" stroke-miterlimit="10"/>
<path opacity="0.2" d="M323.465 184.489H300.004V207.466H323.465V184.489Z" fill="black"/>
<path d="M323.465 184.489H300.004V207.466H323.465V184.489Z" stroke="#263238" stroke-width="1.16063" stroke-miterlimit="10"/>
<path d="M258.309 244.444H234.848V257.335H258.309V244.444Z" fill="#263238" stroke="#263238" stroke-width="1.16063" stroke-linecap="round" stroke-linejoin="round"/>
<path d="M290.887 232.116H267.426V257.335H290.887V232.116Z" fill="#263238" stroke="#263238" stroke-width="1.16063" stroke-linecap="round" stroke-linejoin="round"/>
<path d="M354.122 197.373H330.661V232.116H354.122V197.373Z" fill="#8244C0" stroke="#263238" stroke-width="1.16063" stroke-miterlimit="10"/>
<path opacity="0.2" d="M354.122 197.373H330.661V232.116H354.122V197.373Z" fill="black"/>
<path d="M354.122 197.373H330.661V232.116H354.122V197.373Z" stroke="#263238" stroke-width="1.16063" stroke-miterlimit="10"/>
<path d="M354.122 232.116H330.661V257.335H354.122V232.116Z" fill="#263238" stroke="#263238" stroke-width="1.16063" stroke-linecap="round" stroke-linejoin="round"/>
<path d="M323.465 207.459H300.004V257.335H323.465V207.459Z" fill="#263238" stroke="#263238" stroke-width="1.16063" stroke-linecap="round" stroke-linejoin="round"/>
<path d="M286.819 184.534H272.178C271.506 184.534 270.862 184.779 270.387 185.217C269.912 185.654 269.646 186.247 269.646 186.865V189.965C269.646 190.584 269.912 191.177 270.387 191.614C270.862 192.051 271.506 192.296 272.178 192.296H277.605L279.503 195.316L281.392 192.296H286.819C287.491 192.296 288.135 192.051 288.61 191.614C289.085 191.177 289.352 190.584 289.352 189.965V186.865C289.352 186.247 289.085 185.654 288.61 185.217C288.135 184.779 287.491 184.534 286.819 184.534Z" fill="#8244C0"/>
<mask id="mask0_35_8000" style="mask-type:luminance" maskUnits="userSpaceOnUse" x="269" y="184" width="21" height="12">
<path d="M286.819 184.534H272.178C271.506 184.534 270.862 184.779 270.387 185.217C269.912 185.654 269.646 186.247 269.646 186.865V189.965C269.646 190.584 269.912 191.177 270.387 191.614C270.862 192.051 271.506 192.296 272.178 192.296H277.605L279.503 195.316L281.392 192.296H286.819C287.491 192.296 288.135 192.051 288.61 191.614C289.085 191.177 289.352 190.584 289.352 189.965V186.865C289.352 186.247 289.085 185.654 288.61 185.217C288.135 184.779 287.491 184.534 286.819 184.534Z" fill="white"/>
</mask>
<g mask="url(#mask0_35_8000)">
<path opacity="0.5" d="M286.819 184.534H272.178C271.506 184.534 270.862 184.779 270.387 185.217C269.912 185.654 269.646 186.247 269.646 186.865V189.965C269.646 190.584 269.912 191.177 270.387 191.614C270.862 192.051 271.506 192.296 272.178 192.296H277.605L279.503 195.316L281.392 192.296H286.819C287.491 192.296 288.135 192.051 288.61 191.614C289.085 191.177 289.352 190.584 289.352 189.965V186.865C289.352 186.247 289.085 185.654 288.61 185.217C288.135 184.779 287.491 184.534 286.819 184.534Z" fill="white"/>
</g>
<path d="M286.819 184.534H272.178C271.506 184.534 270.862 184.779 270.387 185.217C269.912 185.654 269.646 186.247 269.646 186.865V189.965C269.646 190.584 269.912 191.177 270.387 191.614C270.862 192.051 271.506 192.296 272.178 192.296H277.605L279.503 195.316L281.392 192.296H286.819C287.491 192.296 288.135 192.051 288.61 191.614C289.085 191.177 289.352 190.584 289.352 189.965V186.865C289.352 186.247 289.085 185.654 288.61 185.217C288.135 184.779 287.491 184.534 286.819 184.534Z" stroke="#263238" stroke-width="1.16689" stroke-linecap="round" stroke-linejoin="round"/>
<path d="M253.895 200.629H239.262C238.592 200.629 237.949 200.873 237.474 201.309C236.999 201.744 236.732 202.335 236.729 202.952V206.06C236.732 206.677 236.999 207.268 237.474 207.704C237.949 208.139 238.592 208.384 239.262 208.384H244.681L246.578 211.403L248.476 208.384H253.895C254.565 208.384 255.208 208.139 255.683 207.704C256.158 207.268 256.425 206.677 256.427 206.06V202.952C256.425 202.335 256.158 201.744 255.683 201.309C255.208 200.873 254.565 200.629 253.895 200.629Z" fill="#8244C0"/>
<mask id="mask1_35_8000" style="mask-type:luminance" maskUnits="userSpaceOnUse" x="236" y="200" width="21" height="12">
<path d="M253.895 200.629H239.262C238.592 200.629 237.949 200.873 237.474 201.309C236.999 201.744 236.732 202.335 236.729 202.952V206.06C236.732 206.677 236.999 207.268 237.474 207.704C237.949 208.139 238.592 208.384 239.262 208.384H244.681L246.578 211.403L248.476 208.384H253.895C254.565 208.384 255.208 208.139 255.683 207.704C256.158 207.268 256.425 206.677 256.427 206.06V202.952C256.425 202.335 256.158 201.744 255.683 201.309C255.208 200.873 254.565 200.629 253.895 200.629Z" fill="white"/>
</mask>
<g mask="url(#mask1_35_8000)">
<path opacity="0.5" d="M253.895 200.629H239.262C238.592 200.629 237.949 200.873 237.474 201.309C236.999 201.744 236.732 202.335 236.729 202.952V206.06C236.732 206.677 236.999 207.268 237.474 207.704C237.949 208.139 238.592 208.384 239.262 208.384H244.681L246.578 211.403L248.476 208.384H253.895C254.565 208.384 255.208 208.139 255.683 207.704C256.158 207.268 256.425 206.677 256.427 206.06V202.952C256.425 202.335 256.158 201.744 255.683 201.309C255.208 200.873 254.565 200.629 253.895 200.629Z" fill="white"/>
</g>
<path d="M253.895 200.629H239.262C238.592 200.629 237.949 200.873 237.474 201.309C236.999 201.744 236.732 202.335 236.729 202.952V206.06C236.732 206.677 236.999 207.268 237.474 207.704C237.949 208.139 238.592 208.384 239.262 208.384H244.681L246.578 211.403L248.476 208.384H253.895C254.565 208.384 255.208 208.139 255.683 207.704C256.158 207.268 256.425 206.677 256.427 206.06V202.952C256.425 202.335 256.158 201.744 255.683 201.309C255.208 200.873 254.565 200.629 253.895 200.629Z" stroke="#263238" stroke-width="1.16689" stroke-linecap="round" stroke-linejoin="round"/>
<path d="M318.906 171.606H304.266C303.594 171.606 302.95 171.852 302.475 172.289C302 172.726 301.733 173.319 301.733 173.937V177.038C301.733 177.343 301.798 177.646 301.926 177.929C302.053 178.211 302.24 178.467 302.475 178.683C302.71 178.899 302.99 179.07 303.297 179.186C303.604 179.303 303.933 179.362 304.266 179.361H309.693L311.582 182.38L313.479 179.361H318.906C319.239 179.362 319.568 179.303 319.875 179.186C320.182 179.07 320.461 178.899 320.697 178.683C320.932 178.467 321.119 178.211 321.246 177.929C321.373 177.646 321.439 177.343 321.439 177.038V173.937C321.439 173.319 321.172 172.726 320.697 172.289C320.222 171.852 319.578 171.606 318.906 171.606Z" fill="#8244C0"/>
<mask id="mask2_35_8000" style="mask-type:luminance" maskUnits="userSpaceOnUse" x="301" y="171" width="21" height="12">
<path d="M318.906 171.606H304.266C303.594 171.606 302.95 171.852 302.475 172.289C302 172.726 301.733 173.319 301.733 173.937V177.038C301.733 177.343 301.798 177.646 301.926 177.929C302.053 178.211 302.24 178.467 302.475 178.683C302.71 178.899 302.99 179.07 303.297 179.186C303.604 179.303 303.933 179.362 304.266 179.361H309.693L311.582 182.38L313.479 179.361H318.906C319.239 179.362 319.568 179.303 319.875 179.186C320.182 179.07 320.461 178.899 320.697 178.683C320.932 178.467 321.119 178.211 321.246 177.929C321.373 177.646 321.439 177.343 321.439 177.038V173.937C321.439 173.319 321.172 172.726 320.697 172.289C320.222 171.852 319.578 171.606 318.906 171.606Z" fill="white"/>
</mask>
<g mask="url(#mask2_35_8000)">
<path opacity="0.5" d="M318.906 171.606H304.266C303.594 171.606 302.95 171.852 302.475 172.289C302 172.726 301.733 173.319 301.733 173.937V177.038C301.733 177.343 301.798 177.646 301.926 177.929C302.053 178.211 302.24 178.467 302.475 178.683C302.71 178.899 302.99 179.07 303.297 179.186C303.604 179.303 303.933 179.362 304.266 179.361H309.693L311.582 182.38L313.479 179.361H318.906C319.239 179.362 319.568 179.303 319.875 179.186C320.182 179.07 320.461 178.899 320.697 178.683C320.932 178.467 321.119 178.211 321.246 177.929C321.373 177.646 321.439 177.343 321.439 177.038V173.937C321.439 173.319 321.172 172.726 320.697 172.289C320.222 171.852 319.578 171.606 318.906 171.606Z" fill="white"/>
</g>
<path d="M318.906 171.606H304.266C303.594 171.606 302.95 171.852 302.475 172.289C302 172.726 301.733 173.319 301.733 173.937V177.038C301.733 177.343 301.798 177.646 301.926 177.929C302.053 178.211 302.24 178.467 302.475 178.683C302.71 178.899 302.99 179.07 303.297 179.186C303.604 179.303 303.933 179.362 304.266 179.361H309.693L311.582 182.38L313.479 179.361H318.906C319.239 179.362 319.568 179.303 319.875 179.186C320.182 179.07 320.461 178.899 320.697 178.683C320.932 178.467 321.119 178.211 321.246 177.929C321.373 177.646 321.439 177.343 321.439 177.038V173.937C321.439 173.319 321.172 172.726 320.697 172.289C320.222 171.852 319.578 171.606 318.906 171.606Z" stroke="#263238" stroke-width="1.16689" stroke-linecap="round" stroke-linejoin="round"/>
<path d="M349.74 184.334H335.107C334.435 184.334 333.791 184.58 333.316 185.017C332.841 185.454 332.574 186.047 332.574 186.665V189.766C332.574 190.071 332.64 190.374 332.767 190.657C332.895 190.939 333.081 191.195 333.316 191.411C333.552 191.627 333.831 191.798 334.138 191.914C334.445 192.031 334.775 192.09 335.107 192.089H340.526L342.423 195.108L344.321 192.089H349.74C350.072 192.09 350.402 192.031 350.709 191.915C351.017 191.798 351.297 191.627 351.533 191.412C351.769 191.196 351.956 190.939 352.084 190.657C352.213 190.375 352.279 190.072 352.28 189.766V186.665C352.278 186.046 352.01 185.453 351.533 185.016C351.057 184.579 350.412 184.334 349.74 184.334Z" fill="#8244C0"/>
<mask id="mask3_35_8000" style="mask-type:luminance" maskUnits="userSpaceOnUse" x="332" y="184" width="21" height="12">
<path d="M349.74 184.334H335.107C334.435 184.334 333.791 184.58 333.316 185.017C332.841 185.454 332.574 186.047 332.574 186.665V189.766C332.574 190.071 332.64 190.374 332.767 190.657C332.895 190.939 333.081 191.195 333.316 191.411C333.552 191.627 333.831 191.798 334.138 191.914C334.445 192.031 334.775 192.09 335.107 192.089H340.526L342.423 195.108L344.321 192.089H349.74C350.072 192.09 350.402 192.031 350.709 191.915C351.017 191.798 351.297 191.627 351.533 191.412C351.769 191.196 351.956 190.939 352.084 190.657C352.213 190.375 352.279 190.072 352.28 189.766V186.665C352.278 186.046 352.01 185.453 351.533 185.016C351.057 184.579 350.412 184.334 349.74 184.334Z" fill="white"/>
</mask>
<g mask="url(#mask3_35_8000)">
<path opacity="0.5" d="M349.74 184.334H335.107C334.435 184.334 333.791 184.58 333.316 185.017C332.841 185.454 332.574 186.047 332.574 186.665V189.766C332.574 190.071 332.64 190.374 332.767 190.657C332.895 190.939 333.081 191.195 333.316 191.411C333.552 191.627 333.831 191.798 334.138 191.914C334.445 192.031 334.775 192.09 335.107 192.089H340.526L342.423 195.108L344.321 192.089H349.74C350.072 192.09 350.402 192.031 350.709 191.915C351.017 191.798 351.297 191.627 351.533 191.412C351.769 191.196 351.956 190.939 352.084 190.657C352.213 190.375 352.279 190.072 352.28 189.766V186.665C352.278 186.046 352.01 185.453 351.533 185.016C351.057 184.579 350.412 184.334 349.74 184.334Z" fill="white"/>
</g>
<path d="M349.74 184.334H335.107C334.435 184.334 333.791 184.58 333.316 185.017C332.841 185.454 332.574 186.047 332.574 186.665V189.766C332.574 190.071 332.64 190.374 332.767 190.657C332.895 190.939 333.081 191.195 333.316 191.411C333.552 191.627 333.831 191.798 334.138 191.914C334.445 192.031 334.775 192.09 335.107 192.089H340.526L342.423 195.108L344.321 192.089H349.74C350.072 192.09 350.402 192.031 350.709 191.915C351.017 191.798 351.297 191.627 351.533 191.412C351.769 191.196 351.956 190.939 352.084 190.657C352.213 190.375 352.279 190.072 352.28 189.766V186.665C352.278 186.046 352.01 185.453 351.533 185.016C351.057 184.579 350.412 184.334 349.74 184.334Z" stroke="#263238" stroke-width="1.16689" stroke-linecap="round" stroke-linejoin="round"/>
<path d="M235.644 167.196H268.97" stroke="#263238" stroke-width="1.0631" stroke-miterlimit="10"/>
<path d="M235.644 170.474H268.97" stroke="#263238" stroke-width="1.0631" stroke-miterlimit="10"/>
<path d="M235.644 173.759H268.97" stroke="#263238" stroke-width="1.0631" stroke-miterlimit="10"/>
<path d="M235.644 177.038H268.97" stroke="#263238" stroke-width="1.0631" stroke-miterlimit="10"/>
<path d="M235.644 180.316H268.97" stroke="#263238" stroke-width="1.0631" stroke-miterlimit="10"/>
<path d="M56.8266 219.506C56.3844 219.995 55.9342 220.513 55.4518 221.105C49.47 228.505 52.5895 244.045 48.9555 249.78C45.3214 255.515 36.2201 253.872 34.4031 262.885C32.586 271.898 33.5991 281.311 32.0634 285.825C30.5278 290.339 24.5299 293.225 23.4847 298.523C22.4395 303.822 22.126 307.662 22.126 307.662L56.8266 306.612V219.506Z" fill="#8244C0"/>
<path opacity="0.7" d="M56.8266 219.506C56.3844 219.995 55.9342 220.513 55.4518 221.105C49.47 228.505 52.5895 244.045 48.9555 249.78C45.3214 255.515 36.2201 253.872 34.4031 262.885C32.586 271.898 33.5991 281.311 32.0634 285.825C30.5278 290.339 24.5299 293.225 23.4847 298.523C22.4395 303.822 22.126 307.662 22.126 307.662L56.8266 306.612V219.506Z" fill="white"/>
<path d="M180.225 306.945L144.591 310.733L155.534 320.057L180.104 318.096" fill="#263238"/>
<path d="M180.225 306.945L144.591 310.733L155.534 320.057L180.104 318.096" stroke="#263238" stroke-width="0.969857" stroke-linecap="round" stroke-linejoin="round"/>
<path d="M156.209 312.221L179.035 309.927" stroke="white" stroke-width="0.484928" stroke-linecap="round" stroke-linejoin="round"/>
<path d="M157.994 314.515L178.681 312.879" stroke="white" stroke-width="0.484928" stroke-linecap="round" stroke-linejoin="round"/>
<path d="M160.133 316.483L179.035 314.84" stroke="white" stroke-width="0.484928" stroke-linecap="round" stroke-linejoin="round"/>
<path d="M158.484 310.874L164.989 317.401" stroke="white" stroke-width="0.484928" stroke-linecap="round" stroke-linejoin="round"/>
<path d="M163.3 310.659L169.764 316.809" stroke="white" stroke-width="0.484928" stroke-linecap="round" stroke-linejoin="round"/>
<path d="M168.301 310.001L174.757 316.15" stroke="white" stroke-width="0.484928" stroke-linecap="round" stroke-linejoin="round"/>
<path d="M173.648 309.675L179.035 314.84" stroke="white" stroke-width="0.484928" stroke-linecap="round" stroke-linejoin="round"/>
<path d="M143.787 229.289C142.613 228.83 137.178 209.361 137.178 209.361L134.38 202.02C134.38 202.02 130.175 188.811 128.567 186.354C126.959 183.897 120.527 181.914 120.527 181.914L118.115 180.693L107.663 175.513V175.565L106.16 172.672L88.1663 159.352C88.1663 159.352 88.4879 162.563 88.9703 165.73C88.9221 165.73 85.2237 167.95 83.9051 169.897C83.6559 170.259 83.4388 171.036 82.4418 173.071C78.4218 174.98 63.2825 182.284 58.2736 185.844C52.3963 190.01 51.327 192.955 51.5923 195.412L51.8657 199.334C51.8657 199.334 54.3742 213.394 56.9872 220.328L56.6656 220.187L56.5771 306.486L131.856 303.859L131.976 239.753C134.549 238.976 137.226 238.065 138.842 237.407L139.244 237.74L142.637 240.026C143.183 240.404 143.816 240.66 144.487 240.774C145.158 240.888 145.848 240.858 146.505 240.685C147.944 240.308 147.043 238.739 145.998 238.221C145.205 237.728 144.452 237.181 143.747 236.585L140.611 232.989C142.493 233.3 145.508 233.788 146.762 233.951C148.627 234.195 151.031 234.691 151.296 232.471C151.562 230.251 145.66 230.029 143.787 229.289Z" fill="white"/>
<path d="M88.2549 159.381C88.2549 159.381 89.276 169.815 89.9433 171.695C90.5463 173.397 93.5934 182.684 96.2627 186.85C98.932 191.016 102.188 190.55 102.695 185.873C103.201 181.196 102.944 173.611 102.944 173.611" stroke="#263238" stroke-width="0.969857" stroke-linecap="round" stroke-linejoin="round"/>
<path d="M88.8659 165.975C88.8659 165.975 85.3203 167.965 83.9856 169.926C82.651 171.887 77.0391 190.039 77.0391 190.039L87.7162 190.535L78.639 194.235" stroke="#263238" stroke-width="0.969857" stroke-linecap="round" stroke-linejoin="round"/>
<path d="M78.9126 196.418C78.9126 196.418 87.9898 210.16 89.3244 211.64C90.1444 212.556 90.8584 213.548 91.455 214.6" stroke="#263238" stroke-width="0.969857" stroke-linecap="round" stroke-linejoin="round"/>
<path d="M89.5898 170.2C89.5898 170.2 94.1244 187.375 96.8258 196.448C99.5273 205.52 102.108 216.82 102.108 216.82" stroke="#263238" stroke-width="0.969857" stroke-linecap="round" stroke-linejoin="round"/>
<path d="M102.912 175.572C102.912 175.572 103.981 195.441 103.981 203.293V215.799" stroke="#263238" stroke-width="0.969857" stroke-linecap="round" stroke-linejoin="round"/>
<path d="M106.675 173.604L113.887 187.102L108.009 188.818L117.087 193.473L108.813 217.271" stroke="#263238" stroke-width="0.969857" stroke-linecap="round" stroke-linejoin="round"/>
<path d="M107.744 175.572L118.156 180.723" stroke="#263238" stroke-width="0.969857" stroke-linecap="round" stroke-linejoin="round"/>
<path d="M126.437 195.686L127.772 218.744" stroke="#263238" stroke-width="0.969857" stroke-linecap="round" stroke-linejoin="round"/>
<path d="M82.3775 173.116C82.3775 173.116 64.2232 181.7 58.354 185.873C52.4848 190.047 51.4074 192.985 51.6727 195.441" stroke="#263238" stroke-width="0.969857" stroke-linecap="round" stroke-linejoin="round"/>
<path d="M56.7461 220.217V306.071" stroke="#263238" stroke-width="0.969857" stroke-linecap="round" stroke-linejoin="round"/>
<path d="M103.74 241.314V302.889" stroke="#263238" stroke-width="0.969857" stroke-linecap="round" stroke-linejoin="round"/>
<path d="M63.2666 194.22C63.2666 194.22 69.3931 196.196 72.1106 200.984" stroke="#263238" stroke-width="0.969857" stroke-linecap="round" stroke-linejoin="round"/>
<path d="M67.2466 193.939C67.2466 193.939 72.762 195.915 75.2142 200.703" stroke="#263238" stroke-width="0.969857" stroke-linecap="round" stroke-linejoin="round"/>
<path d="M63.5723 272.742H83.8974V276.412H64.2959" stroke="#263238" stroke-width="0.969857" stroke-linecap="round" stroke-linejoin="round"/>
<path d="M138.73 212.602C136.816 208.162 135.216 204.462 134.38 202.027C134.424 203.503 134.141 204.971 133.548 206.343C132.955 207.714 132.065 208.96 130.931 210.005C125.383 214.992 123.816 213.261 124.065 220.187C124.314 227.113 127.281 230.258 125.424 236.164C123.566 242.069 115.486 247.9 115.776 258.127C115.88 260.369 116.558 262.557 117.754 264.513L84.291 305.62L132.145 304.325V245.517L138.73 212.602Z" fill="#8244C0"/>
<path opacity="0.7" d="M138.73 212.602C136.816 208.162 135.216 204.462 134.38 202.027C134.424 203.503 134.141 204.971 133.548 206.343C132.955 207.714 132.065 208.96 130.931 210.005C125.383 214.992 123.816 213.261 124.065 220.187C124.314 227.113 127.281 230.258 125.424 236.164C123.566 242.069 115.486 247.9 115.776 258.127C115.88 260.369 116.558 262.557 117.754 264.513L84.291 305.62L132.145 304.325V245.517L138.73 212.602Z" fill="white"/>
<path d="M132.186 276.227V301.779" stroke="#263238" stroke-width="0.969857" stroke-linecap="round" stroke-linejoin="round"/>
<path d="M116.58 139.016C118.188 138.772 126.188 134.11 124.853 129.448C123.518 124.786 112.286 119.14 103.475 121.848C98.1661 123.475 93.2628 126.059 89.0509 129.448C89.0509 129.448 83.1817 129.448 81.0109 131.668C78.8401 133.888 80.4803 137.307 81.8149 139.764C82.9727 141.888 82.9244 147.519 82.8922 148.977C82.8194 148.973 82.7469 148.988 82.6832 149.021C82.2364 149.248 81.8465 149.559 81.539 149.934C81.2315 150.309 81.0132 150.739 80.8983 151.197C80.5365 152.677 81.2038 154.653 82.8279 156.887C83.3683 157.726 84.128 158.428 85.0378 158.928C85.9477 159.428 86.979 159.711 88.0378 159.751C88.7343 160.49 89.3012 161.323 89.7182 162.223C90.3936 163.703 97.123 173.204 100.974 173.478C101.529 173.523 102.06 173.537 102.582 173.537C105.903 173.537 108.315 172.716 109.609 171.132C111.322 169.038 115.567 160.595 116.097 156.488C116.186 155.748 116.234 154.823 116.258 153.713C116.852 153.02 117.175 152.164 117.175 151.282C117.175 150.4 116.852 149.543 116.258 148.851C116.17 144.507 115.921 140.008 115.856 138.972C116.091 139.037 116.338 139.052 116.58 139.016Z" fill="white"/>
<path d="M115.486 138.772C115.486 138.772 116.29 152.262 115.752 156.436C115.213 160.61 110.928 168.942 109.32 170.91C107.712 172.879 104.496 173.36 101.046 173.13C97.5973 172.901 90.9 163.806 90.096 162.09C89.6505 161.098 89.0192 160.186 88.2307 159.396C88.2307 159.396 85.2961 159.64 83.1574 156.695C81.0188 153.75 80.2228 150.775 82.8921 149.332" stroke="#263238" stroke-width="0.969857" stroke-linecap="round" stroke-linejoin="round"/>
<path d="M104.005 152.018C104.005 152.018 105.879 149.058 107.744 150.79L109.079 158.641L105.059 159.625L105.589 163.547" stroke="#263238" stroke-width="0.969857" stroke-linecap="round" stroke-linejoin="round"/>
<path d="M100.001 155.696C102.213 155.696 104.005 154.049 104.005 152.018C104.005 149.987 102.213 148.34 100.001 148.34C97.7902 148.34 95.9976 149.987 95.9976 152.018C95.9976 154.049 97.7902 155.696 100.001 155.696Z" fill="#8244C0" stroke="#263238" stroke-width="0.969857" stroke-linecap="round" stroke-linejoin="round"/>
<path opacity="0.4" d="M100.001 155.696C102.213 155.696 104.005 154.049 104.005 152.018C104.005 149.987 102.213 148.34 100.001 148.34C97.7902 148.34 95.9976 149.987 95.9976 152.018C95.9976 154.049 97.7902 155.696 100.001 155.696Z" fill="white" stroke="#263238" stroke-width="1.16689" stroke-miterlimit="10"/>
<path d="M116.821 151.286C116.821 150.554 116.585 149.838 116.144 149.23C115.702 148.622 115.074 148.147 114.34 147.867C113.605 147.587 112.797 147.514 112.017 147.657C111.237 147.799 110.521 148.152 109.959 148.669C109.396 149.187 109.014 149.846 108.858 150.564C108.703 151.281 108.783 152.025 109.087 152.702C109.392 153.378 109.907 153.955 110.568 154.362C111.229 154.769 112.006 154.986 112.801 154.986C113.867 154.986 114.89 154.596 115.644 153.902C116.398 153.208 116.821 152.267 116.821 151.286Z" fill="#8244C0" stroke="#263238" stroke-width="0.969857" stroke-linecap="round" stroke-linejoin="round"/>
<path opacity="0.4" d="M116.821 151.286C116.821 150.554 116.585 149.838 116.144 149.23C115.702 148.622 115.074 148.147 114.34 147.867C113.605 147.587 112.797 147.514 112.017 147.657C111.237 147.799 110.521 148.152 109.959 148.669C109.396 149.187 109.014 149.846 108.858 150.564C108.703 151.281 108.783 152.025 109.087 152.702C109.392 153.378 109.907 153.955 110.568 154.362C111.229 154.769 112.006 154.986 112.801 154.986C113.867 154.986 114.89 154.596 115.644 153.902C116.398 153.208 116.821 152.267 116.821 151.286Z" fill="white" stroke="#263238" stroke-width="1.16689" stroke-miterlimit="10"/>
<path d="M95.9976 152.018L87.9897 152.507" stroke="#263238" stroke-width="0.969857" stroke-linecap="round" stroke-linejoin="round"/>
<path d="M96.062 146.905C96.062 146.905 98.2087 144.936 102.197 146.061" stroke="#263238" stroke-width="0.969857" stroke-linecap="round" stroke-linejoin="round"/>
<path d="M109.553 145.78C109.553 145.78 113.573 143.812 114.763 146.342" stroke="#263238" stroke-width="0.969857" stroke-linecap="round" stroke-linejoin="round"/>
<path d="M91.1895 139.261C91.1895 139.261 93.3282 143.923 93.8588 144.663C94.3895 145.403 91.1895 148.829 91.1895 148.829V152.262L87.9735 152.507L84.7575 149.813L82.8923 149.317C82.8923 149.317 83.1576 142.206 81.8229 139.756C80.4883 137.307 78.8883 133.836 81.0189 131.661C83.1495 129.485 89.0589 129.441 89.0589 129.441C93.2709 126.051 98.1742 123.468 103.483 121.841C112.327 119.14 123.502 124.801 124.837 129.441C126.172 134.081 118.188 138.772 116.58 139.016C114.972 139.261 112.56 136.323 110.148 136.323H106.409C103.74 136.323 103.475 136.071 100.532 136.071C97.5894 136.071 91.1895 139.261 91.1895 139.261Z" fill="#263238"/>
<path d="M94.5344 135.235C94.5344 135.235 99.0931 132.911 101.376 128.952C103.66 124.993 96.0539 126.858 94.0279 129.419C92.0018 131.979 96.8177 131.047 96.8177 131.047" stroke="white" stroke-width="0.484928" stroke-linecap="round" stroke-linejoin="round"/>
<path d="M91.1894 139.261C91.1894 139.261 88.4558 141.984 84.9102 142.221" stroke="white" stroke-width="0.484928" stroke-linecap="round" stroke-linejoin="round"/>
<path d="M92.5082 142.687C92.5082 142.687 87.6842 144.781 85.1597 144.781" stroke="white" stroke-width="0.484928" stroke-linecap="round" stroke-linejoin="round"/>
<path d="M85.1597 146.638C85.1597 146.638 88.9626 147.378 90.9887 146.638" stroke="white" stroke-width="0.484928" stroke-linecap="round" stroke-linejoin="round"/>
<path d="M98.5864 135.701C98.5864 135.701 100.613 135.472 107.197 133.378C113.782 131.283 116.041 128.938 111.756 125.926" stroke="white" stroke-width="0.484928" stroke-linecap="round" stroke-linejoin="round"/>
<path d="M230.925 267.258C230.925 267.258 220.433 241.573 217.739 239.101C215.046 236.63 201.547 229.06 201.547 229.06L200.461 227.35L199.802 225.271C199.802 225.271 198.998 222.141 196.683 220.594L196.498 220.231L180.578 213.956C180.578 213.956 180.691 215.895 180.86 218.233C178.979 218.862 174.806 220.55 173.375 223.554C172.442 225.5 171.911 228.734 171.646 231.775L170.995 232.219L171.236 231.405C171.236 231.405 153.612 240.5 152.816 241.98C151.787 243.223 149.126 251.193 149.126 251.193C149.126 251.193 146.473 258.852 143.554 267.31C139.438 278.943 135.458 290.568 135.201 292.426C135.201 292.596 135.201 292.515 135.201 292.515C134.935 295.704 148.169 307.463 148.169 307.463H148.346L149.954 308.943C149.954 308.943 149.954 308.795 149.954 308.328C151.072 310.423 152.897 313.508 154.344 312.857C155.534 312.317 155.148 310.415 154.183 307.936C155.381 309.616 156.756 310.837 157.849 310.349C159.739 309.49 158.798 306.523 156.901 302.275C156.738 301.913 156.492 301.588 156.178 301.323C155.864 301.058 155.49 300.86 155.084 300.743C155.695 300.684 156.314 300.625 156.949 300.551C157.584 303.267 159.007 305.62 160.607 305.309C162.207 304.998 162.448 303.089 162.127 299.841C162.287 299.841 162.505 299.404 162.665 299.382C163.373 301.668 164.458 303.703 165.825 303.437C167.329 303.141 167.739 301.765 167.562 298.997C167.562 297.968 167.481 297.635 167.441 296.984C168.028 297.317 170.906 298.916 171.236 299.145C172.305 299.885 180.442 298.287 180.442 298.287C192.325 294.749 211.323 294.587 223.592 287.024C231.785 281.94 230.925 267.258 230.925 267.258ZM156.024 288.267L159.24 268.79L160.519 286.55L160.141 290.931L156.024 288.267Z" fill="white"/>
<path d="M152.864 241.558L172.008 231.198C172.008 231.198 173.206 221.756 175.65 220.794C175.65 220.794 179.01 218.093 182.829 218.626C185.016 218.922 186.632 216.406 187.87 212.025C187.87 203.359 187.742 192.296 187.645 185.385C186.841 181.973 185.973 179.206 185.684 178.125L176.663 174.64C176.663 174.64 174.733 168.646 164.812 167.307C154.89 165.967 144.253 175.757 143.039 182.425C141.825 189.092 148.844 196.204 146.183 199.985C143.522 203.766 132.394 209.316 129.492 215.762C126.59 222.207 127.313 226.655 127.313 226.655C127.313 226.655 135.297 237.096 133.118 240.655C130.939 244.215 118.123 247.545 118.365 257.994C118.59 267.673 129.002 274.488 140.539 275.754L152.864 241.558Z" fill="#263238"/>
<path d="M173.809 176.423C173.809 176.423 166.975 169.216 158.364 171.539C149.753 173.863 146.456 182.247 148.233 186.436C150.01 190.624 154.054 194.109 151.015 200.392C147.976 206.675 140.378 207.607 136.543 214.822C132.708 222.037 133.761 224.368 133.761 224.368" stroke="white" stroke-width="0.484928" stroke-linecap="round" stroke-linejoin="round"/>
<path d="M169.25 182.477C169.25 182.477 162.923 183.172 162.923 186.917C162.923 190.661 166.468 192.496 166.943 197.151C167.417 201.805 165.93 203.67 162.119 209.487C158.308 215.303 158.099 218.33 160.856 222.289C163.614 226.248 165.415 232.76 161.869 235.083" stroke="white" stroke-width="0.484928" stroke-linecap="round" stroke-linejoin="round"/>
<path d="M170.77 177.822C170.77 177.822 163.172 174.122 157.102 177.593C151.031 181.063 159.128 188.064 160.141 194.576C161.154 201.088 156.121 205.75 149.255 212.728C147.243 214.839 145.75 217.325 144.876 220.016C144.002 222.706 143.768 225.538 144.189 228.32" stroke="white" stroke-width="0.484928" stroke-linecap="round" stroke-linejoin="round"/>
<path d="M143.675 236.467C143.675 236.467 145.443 239.952 140.627 244.607C135.811 249.262 125.432 250.431 122.939 257.409C120.447 264.387 125.424 268.117 125.424 268.117" stroke="white" stroke-width="0.484928" stroke-linecap="round" stroke-linejoin="round"/>
<path d="M180.635 213.564C180.635 213.564 181.165 222.918 181.704 225.367C182.243 227.816 184.389 236.563 185.201 244.289C185.594 248.297 186.402 252.262 187.613 256.129C187.613 256.129 194.118 279.38 194.504 250.172C194.64 239.871 193.434 223.68 193.434 223.68L193.965 218.774" fill="white"/>
<mask id="mask4_35_8000" style="mask-type:luminance" maskUnits="userSpaceOnUse" x="180" y="213" width="15" height="52">
<path d="M180.635 213.564C180.635 213.564 181.165 222.918 181.704 225.367C182.243 227.816 184.389 236.563 185.201 244.289C185.594 248.297 186.402 252.262 187.613 256.129C187.613 256.129 194.118 279.38 194.504 250.172C194.64 239.871 193.434 223.68 193.434 223.68L193.965 218.774" fill="white"/>
</mask>
<g mask="url(#mask4_35_8000)">
<g style="mix-blend-mode:multiply" opacity="0.3">
<path d="M191.513 219.543L181.704 225.367L181.077 215.532C181.077 215.532 187.63 219.099 191.513 219.543Z" fill="#8244C0"/>
</g>
<g style="mix-blend-mode:multiply" opacity="0.3">
<path d="M193.451 223.65C193.451 223.65 193.129 240.345 192.245 247.404C191.757 251.891 192.26 256.421 193.724 260.724C193.724 260.724 194.954 234.898 193.451 223.65Z" fill="#8244C0"/>
</g>
</g>
<path d="M180.635 213.564C180.635 213.564 181.165 222.918 181.704 225.367C182.243 227.816 184.389 236.563 185.201 244.289C185.594 248.297 186.402 252.262 187.613 256.129C187.613 256.129 194.118 279.38 194.504 250.172C194.64 239.871 193.434 223.68 193.434 223.68L193.965 218.774" stroke="#263238" stroke-width="0.969857" stroke-linecap="round" stroke-linejoin="round"/>
<path d="M173.559 252.754L171.863 256.099L183.022 266.126L173.559 252.754Z" fill="#8244C0"/>
<path opacity="0.7" d="M173.559 252.754L171.863 256.099L183.022 266.126L173.559 252.754Z" fill="white"/>
<path d="M160.558 260.147C160.558 260.147 164.289 252.214 165.463 254.02C166.637 255.825 159.184 263.573 162.126 264.654C165.069 265.734 169.362 261.768 168.012 265.009C166.661 268.25 164.289 272.039 164.289 273.667C164.289 275.295 165.093 291.331 165.093 291.331L165.294 292.411L162.938 293.891C162.938 293.891 160.39 291.545 160.39 289.562C160.39 287.579 159.996 279.646 159.996 277.848C159.996 276.05 159.079 269.708 159.079 269.708L160.558 260.147Z" fill="#8244C0"/>
<path opacity="0.7" d="M160.559 260.147C160.559 260.147 164.289 252.214 165.463 254.02C166.637 255.825 159.184 263.573 162.126 264.654C165.069 265.734 169.362 261.768 168.012 265.009C166.661 268.25 164.289 272.039 164.289 273.667C164.289 275.295 165.093 291.331 165.093 291.331L165.294 292.411L162.939 293.891C162.939 293.891 160.39 291.545 160.39 289.562C160.39 287.579 159.996 279.646 159.996 277.848C159.996 276.05 159.192 269.264 159.192 269.264L160.559 260.147Z" fill="white"/>
<path d="M180.763 218.174C180.763 218.174 175.296 219.232 173.423 223.162C171.55 227.091 171.292 236.164 171.558 238.613C171.706 240.584 171.706 242.562 171.558 244.533L179.035 242.313" fill="white"/>
<mask id="mask5_35_8000" style="mask-type:luminance" maskUnits="userSpaceOnUse" x="171" y="218" width="10" height="27">
<path d="M180.763 218.174C180.763 218.174 175.296 219.232 173.423 223.162C171.55 227.091 171.292 236.164 171.558 238.613C171.706 240.584 171.706 242.562 171.558 244.533L179.035 242.313" fill="white"/>
</mask>
<g mask="url(#mask5_35_8000)">
<g style="mix-blend-mode:multiply" opacity="0.3">
<path d="M181.793 224.405C179.54 224.454 177.374 225.208 175.65 226.544C172.491 228.83 172.161 232.952 172.161 232.952C172.161 232.952 171.164 228.068 173.158 223.798C175.152 219.528 180.764 218.174 180.764 218.174L181.793 224.405Z" fill="#8244C0"/>
</g>
</g>
<path d="M180.763 218.174C180.763 218.174 175.296 219.232 173.423 223.162C171.55 227.091 171.292 236.164 171.558 238.613C171.706 240.584 171.706 242.562 171.558 244.533L179.035 242.313" stroke="#263238" stroke-width="0.969857" stroke-linecap="round" stroke-linejoin="round"/>
<path d="M180.9 242.787L172.627 251.371C172.627 251.371 178.77 260.199 181.704 263.144" stroke="#263238" stroke-width="0.969857" stroke-linecap="round" stroke-linejoin="round"/>
<path d="M201.997 261.916L206.266 246.953L198.789 241.773L204.666 240.056L199.842 224.849C199.842 224.849 198.95 221.031 195.822 219.802" stroke="#263238" stroke-width="0.969857" stroke-linecap="round" stroke-linejoin="round"/>
<path d="M184.92 235.424C184.92 235.424 187.589 238.384 190.548 237.88C193.507 237.377 193.483 235.919 193.483 235.919" stroke="#263238" stroke-width="0.969857" stroke-linecap="round" stroke-linejoin="round"/>
<mask id="mask6_35_8000" style="mask-type:luminance" maskUnits="userSpaceOnUse" x="135" y="231" width="37" height="77">
<path d="M171.292 231.013C171.292 231.013 153.669 240.086 152.865 241.558C152.061 243.031 135.514 288.918 135.249 292.093C134.984 295.267 148.33 307.3 148.33 307.3" fill="white"/>
</mask>
<g mask="url(#mask6_35_8000)">
<path d="M158.798 238.517C158.798 238.517 154.48 242.846 154.673 243.926C154.866 245.007 159.972 246.99 158.798 248.248C157.624 249.506 154.673 246.45 154.086 246.99C153.5 247.53 142.71 281.415 143.691 281.94C144.672 282.465 147.027 280.497 147.614 281.762C148.201 283.028 137.805 286.624 139.96 287.682C142.115 288.741 147.413 286.417 146.392 286.78C145.371 287.142 142.469 290.561 143.257 292.004C144.044 293.447 152.446 300.758 152.446 300.758C151.951 300.946 151.555 301.303 151.341 301.754C151.126 302.206 151.11 302.716 151.297 303.178C151.52 304.108 152.089 304.938 152.905 305.524C152.905 305.524 150.653 303.814 150.308 305.664C150.111 306.629 149.995 307.606 149.962 308.587L144.455 303.57C139.968 299.367 136.318 295.43 135.241 292.048C135.241 292.048 135.048 292.544 136.23 288.578C137.411 284.611 149.174 250.727 149.174 250.727C149.174 250.727 151.835 242.75 152.856 241.514C153.877 240.278 158.798 238.517 158.798 238.517Z" fill="#8244C0"/>
<path opacity="0.7" d="M158.798 238.517C158.798 238.517 154.481 242.846 154.674 243.926C154.867 245.007 159.972 246.99 158.798 248.248C157.624 249.506 154.674 246.45 154.087 246.99C153.5 247.53 142.71 281.415 143.691 281.94C144.672 282.465 147.028 280.497 147.614 281.762C148.201 283.028 137.806 286.624 139.96 287.682C142.115 288.741 147.413 286.417 146.392 286.78C145.371 287.142 142.469 290.561 143.257 292.004C144.045 293.447 152.446 300.758 152.446 300.758C151.952 300.946 151.555 301.303 151.341 301.754C151.126 302.206 151.111 302.716 151.297 303.178C151.52 304.108 152.089 304.938 152.905 305.524C152.905 305.524 150.654 303.814 150.308 305.664C149.962 307.514 149.785 308.728 149.785 308.728L144.455 303.548C138.891 298.435 135.45 294.402 135.241 292.026C135.241 292.026 134.59 293.151 136.23 288.556C137.621 284.648 149.174 250.705 149.174 250.705C149.174 250.705 151.835 242.727 152.857 241.492C153.878 240.256 158.798 238.517 158.798 238.517Z" fill="white"/>
<path d="M168.462 233.588V247.404L177.925 245.177L181.077 241.832L171.372 243.615L172.008 231.161L168.462 233.588Z" fill="#8244C0"/>
<path opacity="0.7" d="M168.462 233.588V247.404L177.925 245.177L181.077 241.832L171.372 243.615L172.008 231.161L168.462 233.588Z" fill="white"/>
</g>
<path d="M171.292 231.013C171.292 231.013 153.669 240.086 152.865 241.558C152.061 243.031 135.514 288.918 135.249 292.093C134.984 295.267 148.33 307.3 148.33 307.3" stroke="#263238" stroke-width="0.969857" stroke-linecap="round" stroke-linejoin="round"/>
<path d="M161.411 254.072L156.072 287.919" stroke="#263238" stroke-width="0.969857" stroke-linecap="round" stroke-linejoin="round"/>
<path d="M161.941 252.103L162.745 248.67" stroke="#263238" stroke-width="0.969857" stroke-linecap="round" stroke-linejoin="round"/>
<path d="M140.853 289.888C140.853 289.888 144.326 285.448 149.399 285.714C154.472 285.98 161.941 292.581 161.941 292.581" stroke="#263238" stroke-width="0.969857" stroke-linecap="round" stroke-linejoin="round"/>
<path d="M142.453 284.73C143.572 283.803 144.999 283.252 146.501 283.163C148.004 283.074 149.495 283.454 150.734 284.241" stroke="#263238" stroke-width="0.969857" stroke-linecap="round" stroke-linejoin="round"/>
<path d="M167.232 294.949C167.173 294.542 167.012 294.152 166.76 293.813C166.508 293.473 166.173 293.193 165.781 292.995C165.39 292.797 164.953 292.686 164.507 292.672C164.061 292.658 163.617 292.741 163.212 292.914C162.883 293.066 162.602 293.294 162.398 293.575C162.194 293.857 162.072 294.182 162.046 294.52C161.748 297.221 163.549 303.859 165.961 303.4C167.963 302.986 167.899 299.493 167.232 294.949Z" fill="white" stroke="#263238" stroke-width="0.969857" stroke-linecap="round" stroke-linejoin="round"/>
<path d="M161.861 296.91C161.802 296.503 161.639 296.115 161.387 295.776C161.135 295.438 160.799 295.158 160.408 294.961C160.017 294.764 159.581 294.654 159.135 294.64C158.689 294.627 158.246 294.71 157.841 294.883C157.512 295.032 157.231 295.258 157.026 295.539C156.822 295.819 156.701 296.144 156.675 296.481C156.378 299.182 158.179 305.82 160.591 305.361C162.625 304.947 162.561 301.461 161.861 296.91Z" fill="white" stroke="#263238" stroke-width="0.969857" stroke-linecap="round" stroke-linejoin="round"/>
<path d="M156.957 301.853C156.79 301.469 156.527 301.126 156.189 300.853C155.851 300.58 155.448 300.384 155.012 300.282C154.576 300.179 154.12 300.173 153.682 300.263C153.243 300.354 152.833 300.539 152.487 300.803C152.207 301.023 151.995 301.307 151.872 301.627C151.749 301.946 151.72 302.29 151.787 302.623C152.221 305.302 155.759 311.362 157.954 310.334C159.843 309.446 158.798 305.864 156.957 301.853Z" fill="white" stroke="#263238" stroke-width="0.969857" stroke-linecap="round" stroke-linejoin="round"/>
<path d="M153.5 306.589C153.377 306.301 153.181 306.044 152.929 305.839C152.677 305.635 152.375 305.488 152.05 305.411C151.724 305.335 151.383 305.33 151.055 305.399C150.727 305.467 150.421 305.607 150.163 305.805C149.956 305.971 149.798 306.184 149.705 306.422C149.612 306.66 149.587 306.917 149.633 307.167C149.962 309.172 152.599 313.671 154.247 312.924C155.663 312.28 154.915 309.771 153.5 306.589Z" fill="white" stroke="#263238" stroke-width="0.969857" stroke-linecap="round" stroke-linejoin="round"/>
<path d="M167.642 296.74C167.642 296.74 169.732 298.819 171.284 299.263C172.563 299.626 179.212 298.523 179.212 298.523" stroke="#263238" stroke-width="0.969857" stroke-linecap="round" stroke-linejoin="round"/>
<path d="M177.161 303.134C177.161 303.134 172.892 304.11 169.925 304.614C166.958 305.117 163.783 305.354 163.783 305.354C163.783 305.354 161.644 307.81 160.044 307.81" stroke="#263238" stroke-width="0.969857" stroke-linecap="round" stroke-linejoin="round"/>
<path d="M201.603 228.66C201.603 228.66 215.102 236.238 217.796 238.709C220.489 241.181 229.944 264.358 229.944 264.358" stroke="#263238" stroke-width="0.969857" stroke-linecap="round" stroke-linejoin="round"/>
<path d="M214.435 245.199L217.458 265.29" stroke="#263238" stroke-width="0.969857" stroke-linecap="round" stroke-linejoin="round"/>
<path d="M217.458 262.87L215.576 247.944L223.89 264.802L217.835 265.053L217.458 262.87Z" fill="#8244C0"/>
<path opacity="0.7" d="M217.458 262.87L215.576 247.944L223.89 264.802L217.835 265.053L217.458 262.87Z" fill="white"/>
<path d="M166.05 255.515L160.824 263.41L165.254 260.184" stroke="#263238" stroke-width="0.969857" stroke-linecap="round" stroke-linejoin="round"/>
<path d="M159.369 269.745C159.369 269.745 160.454 284.412 160.454 286.41C160.454 288.408 160.149 291.042 160.149 291.042" stroke="#263238" stroke-width="0.969857" stroke-linecap="round" stroke-linejoin="round"/>
<path d="M177.427 173.856C177.427 173.856 169.684 178.022 169.154 184.156C168.898 188.202 169.348 192.259 170.488 196.174C170.488 196.174 168.076 194.213 167.819 198.631C167.562 203.049 171.558 206.475 173.158 206.475H174.766C174.766 206.475 178.327 213.209 182.605 216.398C186.882 219.588 191.055 219.728 193.989 218.744C196.924 217.76 202.536 213.349 203.074 207.459C203.613 201.569 203.074 191.756 202.536 185.629C201.997 179.502 200.67 175.077 193.459 172.871C186.247 170.666 181.165 172.131 177.427 173.856Z" fill="white"/>
<mask id="mask7_35_8000" style="mask-type:luminance" maskUnits="userSpaceOnUse" x="167" y="171" width="37" height="49">
<path d="M177.427 173.856C177.427 173.856 169.684 178.022 169.154 184.156C168.898 188.202 169.348 192.259 170.488 196.174C170.488 196.174 168.076 194.213 167.819 198.631C167.562 203.049 171.558 206.475 173.158 206.475H174.766C174.766 206.475 178.327 213.209 182.605 216.398C186.882 219.588 191.055 219.728 193.989 218.744C196.924 217.76 202.536 213.349 203.074 207.459C203.613 201.569 203.074 191.756 202.536 185.629C201.997 179.502 200.67 175.077 193.459 172.871C186.247 170.666 181.165 172.131 177.427 173.856Z" fill="white"/>
</mask>
<g mask="url(#mask7_35_8000)">
<g style="mix-blend-mode:multiply" opacity="0.3">
<path d="M170.488 196.174C170.488 196.174 168.076 194.213 167.819 198.631C167.562 203.049 171.558 206.475 173.158 206.475H174.766C174.766 206.475 178.327 213.201 182.605 216.398L184.438 217.56C185.062 217.908 185.715 218.21 186.391 218.463C184.952 216.835 181.825 213.083 180.353 209.709C178.408 205.269 177.941 195.893 178.408 189.877C178.874 183.86 182.291 181.404 182.291 181.404L177.467 181.182C176.751 181.182 173.013 186.302 169.218 189.24L170.488 196.174Z" fill="#8244C0"/>
</g>
</g>
<path d="M177.427 173.856C177.427 173.856 169.684 178.022 169.154 184.156C168.898 188.202 169.348 192.259 170.488 196.174C170.488 196.174 168.076 194.213 167.819 198.631C167.562 203.049 171.558 206.475 173.158 206.475H174.766C174.766 206.475 178.327 213.209 182.605 216.398C186.882 219.588 191.055 219.728 193.989 218.744C196.924 217.76 202.536 213.349 203.074 207.459C203.613 201.569 203.074 191.756 202.536 185.629C201.997 179.502 200.67 175.077 193.459 172.871C186.247 170.666 181.165 172.131 177.427 173.856Z" stroke="#263238" stroke-width="0.969857" stroke-linecap="round" stroke-linejoin="round"/>
<path d="M189.792 196.374C189.792 196.374 192.027 192.859 194.254 194.894L195.862 201.872L192.646 202.479L192.952 206.837" stroke="#263238" stroke-width="0.969857" stroke-linecap="round" stroke-linejoin="round"/>
<path d="M185.016 200.762C187.654 200.762 189.792 198.797 189.792 196.374C189.792 193.95 187.654 191.986 185.016 191.986C182.379 191.986 180.241 193.95 180.241 196.374C180.241 198.797 182.379 200.762 185.016 200.762Z" fill="#8244C0" stroke="#263238" stroke-width="0.969857" stroke-linecap="round" stroke-linejoin="round"/>
<path opacity="0.4" d="M185.016 200.762C187.654 200.762 189.792 198.797 189.792 196.374C189.792 193.95 187.654 191.986 185.016 191.986C182.379 191.986 180.241 193.95 180.241 196.374C180.241 198.797 182.379 200.762 185.016 200.762Z" fill="white" stroke="#263238" stroke-width="1.16689" stroke-miterlimit="10"/>
<path d="M205.092 195.493C205.094 194.624 204.815 193.773 204.292 193.049C203.769 192.325 203.025 191.759 202.154 191.424C201.282 191.088 200.322 190.998 199.395 191.164C198.467 191.33 197.614 191.745 196.943 192.357C196.271 192.969 195.812 193.75 195.622 194.602C195.432 195.453 195.521 196.338 195.876 197.144C196.232 197.949 196.839 198.64 197.62 199.128C198.402 199.617 199.323 199.881 200.268 199.889C200.899 199.895 201.525 199.785 202.11 199.567C202.695 199.349 203.228 199.026 203.676 198.617C204.125 198.208 204.481 197.722 204.724 197.186C204.967 196.649 205.092 196.074 205.092 195.493Z" fill="#8244C0" stroke="#263238" stroke-width="0.969857" stroke-linecap="round" stroke-linejoin="round"/>
<path opacity="0.4" d="M205.092 195.493C205.094 194.624 204.815 193.773 204.292 193.049C203.769 192.325 203.025 191.759 202.154 191.424C201.282 191.088 200.322 190.998 199.395 191.164C198.467 191.33 197.614 191.745 196.943 192.357C196.271 192.969 195.812 193.75 195.622 194.602C195.432 195.453 195.521 196.338 195.876 197.144C196.232 197.949 196.839 198.64 197.62 199.128C198.402 199.617 199.323 199.881 200.268 199.889C200.899 199.895 201.525 199.785 202.11 199.567C202.695 199.349 203.228 199.026 203.676 198.617C204.125 198.208 204.481 197.722 204.724 197.186C204.967 196.649 205.092 196.074 205.092 195.493Z" fill="white" stroke="#263238" stroke-width="1.16689" stroke-miterlimit="10"/>
<path d="M180.241 196.374L170.681 196.958" stroke="#263238" stroke-width="0.969857" stroke-linecap="round" stroke-linejoin="round"/>
<path d="M181.125 190.506C181.682 189.875 182.417 189.397 183.25 189.124C184.082 188.851 184.979 188.794 185.844 188.959" stroke="#263238" stroke-width="0.969857" stroke-linecap="round" stroke-linejoin="round"/>
<path d="M195.975 188.648C196.764 188.25 197.674 188.106 198.562 188.24C199.45 188.374 200.263 188.778 200.871 189.388" stroke="#263238" stroke-width="0.969857" stroke-linecap="round" stroke-linejoin="round"/>
<path d="M202.528 185.629C201.997 179.494 200.662 175.077 193.45 172.871C186.239 170.666 181.165 172.131 177.427 173.856C177.427 173.856 169.684 178.022 169.154 184.156C168.898 188.202 169.348 192.259 170.488 196.174C170.488 196.174 172.627 198.135 173.157 195.434C173.688 192.733 172.088 188.315 179.589 183.165C187.091 178.014 197.744 180.471 201.482 185.385C201.919 185.707 202.297 186.092 202.6 186.524C202.608 186.436 202.536 185.74 202.528 185.629Z" fill="#263238"/>
<path d="M85.851 212.854C85.851 212.854 79.419 211.877 74.595 214.822C73.2216 215.663 72.1392 216.849 71.4765 218.24C70.8138 219.63 70.5986 221.166 70.8564 222.666" stroke="#263238" stroke-width="0.969857" stroke-linecap="round" stroke-linejoin="round"/>
<path d="M71.966 213.349C71.966 213.349 68.75 216.783 68.75 219.728" stroke="#263238" stroke-width="0.969857" stroke-linecap="round" stroke-linejoin="round"/>
<path d="M51.9385 199.363C51.9385 199.363 55.1545 217.271 58.081 222.666C61.0076 228.061 69.337 233.218 75.7047 235.668C82.0724 238.117 112.013 242.047 113.083 241.802C114.152 241.558 108.009 236.408 109.344 230.029C110.011 226.862 114.683 223.65 114.683 223.65C114.683 223.65 101.602 218.47 96.5283 216.539C91.4551 214.607 85.8512 212.839 85.8512 212.839C85.8512 212.839 78.6152 206.712 75.1741 204.011C72.0101 201.719 68.7114 199.589 65.2929 197.632" stroke="#263238" stroke-width="0.969857" stroke-linecap="round" stroke-linejoin="round"/>
<path d="M140.226 232.589L143.715 236.585C144.42 237.181 145.173 237.728 145.966 238.221C147.011 238.739 147.912 240.308 146.473 240.685C145.817 240.858 145.126 240.888 144.455 240.774C143.784 240.66 143.151 240.404 142.606 240.026L139.213 237.74L136.375 235.379L138.433 231.975L140.226 232.589Z" fill="white" stroke="#263238" stroke-width="0.969857" stroke-linecap="round" stroke-linejoin="round"/>
<path d="M114.683 223.65C114.683 223.65 122.964 225.367 125.633 225.87C128.302 226.373 141.922 228.571 143.787 229.304C145.653 230.036 151.53 230.288 151.265 232.493C150.999 234.698 148.595 234.21 146.73 233.973C144.865 233.736 138.979 232.752 138.979 232.752C138.979 232.752 140.853 235.942 140.322 236.674C139.791 237.407 127.772 241.336 125.368 241.336C122.964 241.336 121.348 237.407 120.294 236.156L117.078 232.456L110.646 229.763" fill="white"/>
<path d="M114.683 223.65C114.683 223.65 122.964 225.367 125.633 225.87C128.302 226.373 141.922 228.571 143.787 229.304C145.653 230.036 151.53 230.288 151.265 232.493C150.999 234.698 148.595 234.21 146.73 233.973C144.865 233.736 138.979 232.752 138.979 232.752C138.979 232.752 140.853 235.942 140.322 236.674C139.791 237.407 127.772 241.336 125.368 241.336C122.964 241.336 121.348 237.407 120.294 236.156L117.078 232.456L110.646 229.763" stroke="#263238" stroke-width="0.969857" stroke-linecap="round" stroke-linejoin="round"/>
<path d="M138.98 232.73L137.114 230.273" stroke="#263238" stroke-width="0.969857" stroke-linecap="round" stroke-linejoin="round"/>
<path d="M113.083 241.802C114.479 240.632 115.567 239.184 116.264 237.568C116.96 235.952 117.247 234.212 117.103 232.478" stroke="#263238" stroke-width="0.969857" stroke-linecap="round" stroke-linejoin="round"/>
<path d="M127.233 235.668L129.372 240.33" stroke="#263238" stroke-width="0.969857" stroke-linecap="round" stroke-linejoin="round"/>
<path d="M132.571 233.707L134.71 238.857" stroke="#263238" stroke-width="0.969857" stroke-linecap="round" stroke-linejoin="round"/>
<path d="M183.843 269.523V327.169L267.411 322.758V265.601L183.843 269.523Z" fill="#263238" stroke="#263238" stroke-width="0.969857" stroke-linecap="round" stroke-linejoin="round"/>
<path d="M267.41 265.601L263.133 263.388L180.369 267.073V323.247L183.842 327.169V269.523L267.41 265.601Z" fill="white" stroke="#263238" stroke-width="0.969857" stroke-linecap="round" stroke-linejoin="round"/>
<path d="M180.369 267.073L183.834 269.523" stroke="#263238" stroke-width="0.969857" stroke-linecap="round" stroke-linejoin="round"/>
<path d="M217.217 303.134V342.139L240.179 340.666V301.417L217.217 303.134Z" fill="#263238" stroke="#263238" stroke-width="0.969857" stroke-linecap="round" stroke-linejoin="round"/>
<path d="M216.501 325.215V303.134L240.179 301.417L240.243 323.846" stroke="white" stroke-width="0.969857" stroke-linecap="round" stroke-linejoin="round"/>
<path d="M217.217 342.139L205.197 332.327L217.217 331.831" fill="white"/>
<path d="M217.217 342.139L205.197 332.327L217.217 331.831" stroke="#263238" stroke-width="0.969857" stroke-linecap="round" stroke-linejoin="round"/>
<path opacity="0.7" d="M71.5962 306.094L147.534 313.094C147.534 313.094 144.624 310.941 145.757 310.733C147.912 310.349 151.104 310.082 151.104 310.082L144.406 303.585L71.5962 306.094Z" fill="#8244C0"/>
<path opacity="0.7" d="M71.5962 306.094L147.534 313.094C147.534 313.094 144.624 310.941 145.757 310.733C147.912 310.349 151.104 310.082 151.104 310.082L144.406 303.585L71.5962 306.094Z" fill="white"/>
<path d="M144.463 303.615L25.9531 307.5" stroke="#263238" stroke-width="0.969857" stroke-linecap="round" stroke-linejoin="round"/>
<path d="M266.839 301.269L346.725 346.646" stroke="#263238" stroke-width="0.969857" stroke-linecap="round" stroke-linejoin="round"/>
<path d="M121.629 312.694L79.813 317.393L106.755 343.434L151.827 338.306L121.629 312.694Z" fill="#8244C0"/>
<path opacity="0.7" d="M121.629 312.694L79.813 317.393L106.755 343.434L151.827 338.306L121.629 312.694Z" fill="white"/>
<path d="M78.8804 322.943L116.049 318.674L142.999 343.856L100.251 349.406L78.8804 322.943Z" fill="white"/>
<path d="M101.529 345.743C101.465 345.743 101.403 345.719 101.358 345.678C101.313 345.636 101.288 345.58 101.288 345.521C101.288 345.462 101.313 345.405 101.358 345.364C101.403 345.322 101.465 345.299 101.529 345.299L135.715 341.251C135.778 341.246 135.841 341.263 135.892 341.299C135.942 341.334 135.977 341.386 135.988 341.443C135.993 341.473 135.991 341.503 135.982 341.532C135.973 341.561 135.958 341.588 135.938 341.612C135.918 341.635 135.893 341.655 135.864 341.669C135.835 341.684 135.804 341.692 135.771 341.695L101.593 345.743H101.529Z" fill="#8244C0"/>
<path d="M99.6235 343.641C99.5596 343.641 99.4982 343.618 99.453 343.576C99.4077 343.535 99.3823 343.478 99.3823 343.419C99.3823 343.36 99.4077 343.304 99.453 343.262C99.4982 343.221 99.5596 343.197 99.6235 343.197L133.81 339.149C133.874 339.142 133.938 339.157 133.99 339.194C134.041 339.23 134.074 339.283 134.083 339.342C134.091 339.401 134.074 339.46 134.035 339.507C133.996 339.555 133.938 339.586 133.874 339.593L99.6959 343.641H99.6235Z" fill="#8244C0"/>
<path d="M97.7261 341.54C97.6661 341.54 97.6081 341.52 97.5635 341.483C97.5189 341.446 97.4909 341.395 97.4849 341.34C97.4779 341.281 97.4957 341.222 97.5347 341.175C97.5736 341.129 97.6306 341.097 97.6939 341.088L131.856 337.04C131.92 337.038 131.983 337.056 132.033 337.093C132.084 337.13 132.118 337.182 132.129 337.24C132.133 337.269 132.13 337.299 132.12 337.327C132.111 337.355 132.096 337.381 132.076 337.404C132.056 337.427 132.031 337.446 132.003 337.459C131.975 337.473 131.944 337.482 131.912 337.484L97.7341 341.54H97.7261Z" fill="#8244C0"/>
<path d="M95.8208 339.431C95.7568 339.431 95.6955 339.407 95.6502 339.366C95.605 339.324 95.5796 339.267 95.5796 339.209C95.5796 339.15 95.605 339.093 95.6502 339.052C95.6955 339.01 95.7568 338.987 95.8208 338.987L130.007 334.939C130.071 334.932 130.135 334.949 130.185 334.985C130.236 335.02 130.27 335.073 130.28 335.131C130.285 335.16 130.283 335.19 130.275 335.219C130.267 335.247 130.253 335.274 130.233 335.297C130.214 335.321 130.189 335.34 130.161 335.355C130.134 335.37 130.103 335.379 130.071 335.383L95.8851 339.431H95.8208Z" fill="#8244C0"/>
<path d="M93.9233 337.329C93.8645 337.329 93.8076 337.31 93.7632 337.275C93.7188 337.239 93.6899 337.19 93.6821 337.137C93.6776 337.107 93.6794 337.078 93.6875 337.049C93.6956 337.021 93.7098 336.994 93.7293 336.97C93.7488 336.947 93.7731 336.927 93.8009 336.913C93.8287 336.898 93.8593 336.889 93.8911 336.885L128.077 332.837C128.141 332.831 128.205 332.847 128.256 332.883C128.307 332.919 128.341 332.971 128.351 333.03C128.355 333.059 128.353 333.09 128.344 333.119C128.336 333.148 128.321 333.175 128.301 333.198C128.28 333.222 128.255 333.241 128.226 333.255C128.198 333.27 128.166 333.278 128.133 333.281L93.9555 337.329H93.9233Z" fill="#8244C0"/>
<path d="M92.0179 335.22C91.9579 335.22 91.8999 335.2 91.8553 335.163C91.8107 335.126 91.7827 335.075 91.7767 335.02C91.7716 334.962 91.7902 334.904 91.8288 334.857C91.8674 334.811 91.9233 334.779 91.9857 334.769L126.172 330.721C126.237 330.714 126.302 330.732 126.353 330.769C126.404 330.807 126.437 330.861 126.445 330.921C126.452 330.978 126.434 331.036 126.395 331.082C126.356 331.128 126.299 331.157 126.236 331.165L92.0501 335.22H92.0179Z" fill="#8244C0"/>
<path d="M90.1201 333.118C90.0613 333.119 90.0044 333.1 89.96 333.064C89.9155 333.029 89.8867 332.98 89.8789 332.926C89.8744 332.897 89.8762 332.867 89.8843 332.839C89.8924 332.81 89.9066 332.783 89.9261 332.76C89.9455 332.736 89.9699 332.717 89.9976 332.702C90.0254 332.687 90.0561 332.678 90.0879 332.674L124.274 328.627C124.337 328.622 124.4 328.639 124.451 328.675C124.501 328.71 124.536 328.762 124.547 328.819C124.552 328.849 124.55 328.879 124.541 328.908C124.533 328.937 124.518 328.964 124.497 328.988C124.477 329.011 124.452 329.031 124.423 329.045C124.394 329.059 124.363 329.068 124.33 329.071L90.1522 333.118H90.1201Z" fill="#8244C0"/>
<path d="M88.2148 331.017C88.1509 331.017 88.0895 330.993 88.0443 330.952C87.999 330.91 87.9736 330.854 87.9736 330.795C87.9736 330.736 87.999 330.679 88.0443 330.638C88.0895 330.596 88.1509 330.573 88.2148 330.573L122.401 326.525C122.433 326.521 122.465 326.523 122.496 326.531C122.527 326.538 122.556 326.551 122.581 326.569C122.606 326.587 122.628 326.609 122.644 326.635C122.66 326.66 122.67 326.688 122.674 326.717C122.678 326.747 122.676 326.776 122.668 326.805C122.66 326.833 122.646 326.86 122.626 326.883C122.607 326.906 122.583 326.926 122.555 326.941C122.527 326.956 122.497 326.965 122.465 326.969L88.2792 331.017H88.2148Z" fill="#8244C0"/>
<path d="M86.3174 328.915C86.2574 328.915 86.1994 328.895 86.1548 328.858C86.1102 328.821 86.0822 328.77 86.0762 328.715C86.0692 328.657 86.087 328.598 86.126 328.551C86.1649 328.504 86.2219 328.473 86.2852 328.464L120.471 324.416C120.536 324.412 120.6 324.43 120.65 324.467C120.701 324.504 120.735 324.557 120.745 324.616C120.748 324.645 120.745 324.674 120.736 324.703C120.727 324.731 120.712 324.757 120.691 324.78C120.671 324.802 120.646 324.821 120.618 324.835C120.59 324.849 120.559 324.857 120.528 324.86L86.3496 328.915H86.3174Z" fill="#8244C0"/>
<path d="M84.4199 326.806C84.3559 326.806 84.2946 326.783 84.2494 326.741C84.2041 326.7 84.1787 326.643 84.1787 326.584C84.1787 326.525 84.2041 326.469 84.2494 326.427C84.2946 326.386 84.3559 326.362 84.4199 326.362L118.606 322.314C118.67 322.308 118.734 322.324 118.785 322.36C118.835 322.396 118.869 322.448 118.879 322.507C118.884 322.536 118.882 322.566 118.874 322.594C118.866 322.623 118.852 322.649 118.832 322.673C118.813 322.696 118.788 322.716 118.761 322.731C118.733 322.745 118.702 322.755 118.67 322.758L84.4199 326.806Z" fill="#8244C0"/>
<g opacity="0.7">
<path d="M101.529 345.743C101.465 345.743 101.403 345.719 101.358 345.678C101.313 345.636 101.288 345.58 101.288 345.521C101.288 345.462 101.313 345.405 101.358 345.364C101.403 345.322 101.465 345.299 101.529 345.299L135.715 341.251C135.778 341.246 135.841 341.263 135.892 341.299C135.942 341.334 135.977 341.386 135.988 341.443C135.993 341.473 135.991 341.503 135.982 341.532C135.973 341.561 135.958 341.588 135.938 341.612C135.918 341.635 135.893 341.655 135.864 341.669C135.835 341.684 135.804 341.692 135.771 341.695L101.593 345.743H101.529Z" fill="white"/>
<path d="M99.6235 343.641C99.5596 343.641 99.4982 343.618 99.453 343.576C99.4077 343.534 99.3823 343.478 99.3823 343.419C99.3823 343.36 99.4077 343.304 99.453 343.262C99.4982 343.22 99.5596 343.197 99.6235 343.197L133.81 339.149C133.874 339.141 133.938 339.157 133.99 339.193C134.041 339.229 134.074 339.283 134.083 339.342C134.091 339.401 134.074 339.46 134.035 339.507C133.996 339.555 133.938 339.585 133.874 339.593L99.6959 343.641H99.6235Z" fill="white"/>
<path d="M97.7261 341.54C97.6661 341.54 97.6081 341.519 97.5635 341.483C97.5189 341.446 97.4909 341.395 97.4849 341.34C97.4779 341.281 97.4957 341.222 97.5347 341.175C97.5736 341.129 97.6306 341.097 97.6939 341.088L131.856 337.04C131.92 337.038 131.983 337.056 132.033 337.093C132.084 337.13 132.118 337.182 132.129 337.24C132.133 337.269 132.13 337.299 132.12 337.327C132.111 337.355 132.096 337.381 132.076 337.404C132.056 337.427 132.031 337.445 132.003 337.459C131.975 337.473 131.944 337.482 131.912 337.484L97.7341 341.54H97.7261Z" fill="white"/>
<path d="M95.8208 339.431C95.7568 339.431 95.6955 339.407 95.6502 339.366C95.605 339.324 95.5796 339.267 95.5796 339.209C95.5796 339.15 95.605 339.093 95.6502 339.052C95.6955 339.01 95.7568 338.987 95.8208 338.987L130.007 334.939C130.071 334.932 130.135 334.949 130.185 334.985C130.236 335.02 130.27 335.073 130.28 335.131C130.285 335.16 130.283 335.19 130.275 335.219C130.267 335.247 130.253 335.274 130.233 335.297C130.214 335.321 130.189 335.34 130.161 335.355C130.134 335.37 130.103 335.379 130.071 335.383L95.8851 339.431H95.8208Z" fill="white"/>
<path d="M93.9233 337.329C93.8645 337.329 93.8076 337.31 93.7632 337.275C93.7188 337.239 93.6899 337.19 93.6821 337.137C93.6776 337.107 93.6794 337.078 93.6875 337.049C93.6956 337.021 93.7098 336.994 93.7293 336.97C93.7488 336.947 93.7731 336.927 93.8009 336.913C93.8287 336.898 93.8593 336.889 93.8911 336.885L128.077 332.837C128.141 332.831 128.205 332.847 128.256 332.883C128.307 332.919 128.341 332.971 128.351 333.03C128.355 333.059 128.353 333.09 128.344 333.119C128.336 333.148 128.321 333.175 128.301 333.198C128.28 333.222 128.255 333.241 128.226 333.255C128.198 333.27 128.166 333.278 128.133 333.281L93.9555 337.329H93.9233Z" fill="white"/>
<path d="M92.0179 335.22C91.9579 335.22 91.8999 335.2 91.8553 335.163C91.8107 335.126 91.7827 335.075 91.7767 335.02C91.7716 334.962 91.7902 334.904 91.8288 334.857C91.8674 334.811 91.9233 334.779 91.9857 334.769L126.172 330.721C126.237 330.714 126.302 330.732 126.353 330.769C126.404 330.807 126.437 330.861 126.445 330.921C126.452 330.978 126.434 331.036 126.395 331.082C126.356 331.128 126.299 331.157 126.236 331.165L92.0501 335.22H92.0179Z" fill="white"/>
<path d="M90.1201 333.118C90.0613 333.119 90.0044 333.1 89.96 333.064C89.9155 333.029 89.8867 332.98 89.8789 332.926C89.8744 332.897 89.8762 332.867 89.8843 332.839C89.8924 332.81 89.9066 332.783 89.9261 332.76C89.9455 332.736 89.9699 332.717 89.9976 332.702C90.0254 332.687 90.0561 332.678 90.0879 332.674L124.274 328.627C124.337 328.622 124.4 328.639 124.451 328.675C124.501 328.71 124.536 328.762 124.547 328.819C124.552 328.849 124.55 328.879 124.541 328.908C124.533 328.937 124.518 328.964 124.497 328.988C124.477 329.011 124.452 329.031 124.423 329.045C124.394 329.059 124.363 329.068 124.33 329.071L90.1522 333.118H90.1201Z" fill="white"/>
<path d="M88.2148 331.017C88.1509 331.017 88.0895 330.993 88.0443 330.952C87.999 330.91 87.9736 330.854 87.9736 330.795C87.9736 330.736 87.999 330.679 88.0443 330.638C88.0895 330.596 88.1509 330.573 88.2148 330.573L122.401 326.525C122.433 326.521 122.465 326.523 122.496 326.53C122.527 326.538 122.556 326.551 122.581 326.569C122.606 326.587 122.628 326.609 122.644 326.635C122.66 326.66 122.67 326.688 122.674 326.717C122.678 326.746 122.676 326.776 122.668 326.805C122.66 326.833 122.646 326.86 122.626 326.883C122.607 326.906 122.583 326.926 122.555 326.941C122.527 326.955 122.497 326.965 122.465 326.969L88.2792 331.017H88.2148Z" fill="white"/>
<path d="M86.3174 328.915C86.2574 328.915 86.1994 328.895 86.1548 328.858C86.1102 328.821 86.0822 328.77 86.0762 328.715C86.0692 328.657 86.087 328.598 86.126 328.551C86.1649 328.504 86.2219 328.473 86.2852 328.464L120.471 324.416C120.536 324.412 120.6 324.43 120.65 324.467C120.701 324.504 120.735 324.557 120.745 324.616C120.748 324.645 120.745 324.674 120.736 324.703C120.727 324.731 120.712 324.757 120.691 324.78C120.671 324.802 120.646 324.821 120.618 324.835C120.59 324.849 120.559 324.857 120.528 324.86L86.3496 328.915H86.3174Z" fill="white"/>
<path d="M84.4199 326.806C84.3559 326.806 84.2946 326.783 84.2494 326.741C84.2041 326.7 84.1787 326.643 84.1787 326.584C84.1787 326.525 84.2041 326.469 84.2494 326.427C84.2946 326.386 84.3559 326.362 84.4199 326.362L118.606 322.314C118.67 322.308 118.734 322.324 118.785 322.36C118.835 322.396 118.869 322.448 118.879 322.507C118.884 322.536 118.882 322.566 118.874 322.594C118.866 322.623 118.852 322.649 118.832 322.673C118.813 322.696 118.788 322.716 118.761 322.731C118.733 322.745 118.702 322.755 118.67 322.758L84.4199 326.806Z" fill="white"/>
</g>
<path d="M120.6 181.944C120.6 181.944 127.032 183.912 128.64 186.384C130.248 188.855 134.381 202.02 134.381 202.02" stroke="#263238" stroke-width="0.969857" stroke-linecap="round" stroke-linejoin="round"/>
</svg>
