<svg width="453" height="179" viewBox="0 0 453 179" fill="none" xmlns="http://www.w3.org/2000/svg">
<path d="M19.76 66V59.04H25.28V30.96H19.76V24H37.04C42.68 24 46.96 25.44 49.88 28.32C52.84 31.16 54.32 35.4 54.32 41.04V48.96C54.32 54.6 52.84 58.86 49.88 61.74C46.96 64.58 42.68 66 37.04 66H19.76ZM33.2 58.8H37.16C40.36 58.8 42.7 57.96 44.18 56.28C45.66 54.6 46.4 52.24 46.4 49.2V40.8C46.4 37.72 45.66 35.36 44.18 33.72C42.7 32.04 40.36 31.2 37.16 31.2H33.2V58.8ZM61.1609 66V36.24H68.7209V66H61.1609ZM64.9409 32.76C63.5809 32.76 62.4209 32.32 61.4609 31.44C60.5409 30.56 60.0809 29.4 60.0809 27.96C60.0809 26.52 60.5409 25.36 61.4609 24.48C62.4209 23.6 63.5809 23.16 64.9409 23.16C66.3409 23.16 67.5009 23.6 68.4209 24.48C69.3409 25.36 69.8009 26.52 69.8009 27.96C69.8009 29.4 69.3409 30.56 68.4209 31.44C67.5009 32.32 66.3409 32.76 64.9409 32.76ZM89.4584 66.84C85.5784 66.84 82.3984 66 79.9184 64.32C77.4384 62.64 75.9384 60.24 75.4184 57.12L82.3784 55.32C82.6584 56.72 83.1184 57.82 83.7584 58.62C84.4384 59.42 85.2584 60 86.2184 60.36C87.2184 60.68 88.2984 60.84 89.4584 60.84C91.2184 60.84 92.5184 60.54 93.3584 59.94C94.1984 59.3 94.6184 58.52 94.6184 57.6C94.6184 56.68 94.2184 55.98 93.4184 55.5C92.6184 54.98 91.3384 54.56 89.5784 54.24L87.8984 53.94C85.8184 53.54 83.9184 53 82.1984 52.32C80.4784 51.6 79.0984 50.62 78.0584 49.38C77.0184 48.14 76.4984 46.54 76.4984 44.58C76.4984 41.62 77.5784 39.36 79.7384 37.8C81.8984 36.2 84.7384 35.4 88.2584 35.4C91.5784 35.4 94.3384 36.14 96.5384 37.62C98.7384 39.1 100.178 41.04 100.858 43.44L93.8384 45.6C93.5184 44.08 92.8584 43 91.8584 42.36C90.8984 41.72 89.6984 41.4 88.2584 41.4C86.8184 41.4 85.7184 41.66 84.9584 42.18C84.1984 42.66 83.8184 43.34 83.8184 44.22C83.8184 45.18 84.2184 45.9 85.0184 46.38C85.8184 46.82 86.8984 47.16 88.2584 47.4L89.9384 47.7C92.1784 48.1 94.1984 48.64 95.9984 49.32C97.8384 49.96 99.2784 50.9 100.318 52.14C101.398 53.34 101.938 54.98 101.938 57.06C101.938 60.18 100.798 62.6 98.5184 64.32C96.2784 66 93.2584 66.84 89.4584 66.84ZM122.543 66.84C119.663 66.84 117.043 66.24 114.683 65.04C112.363 63.84 110.523 62.1 109.163 59.82C107.803 57.54 107.123 54.78 107.123 51.54V50.7C107.123 47.46 107.803 44.7 109.163 42.42C110.523 40.14 112.363 38.4 114.683 37.2C117.043 36 119.663 35.4 122.543 35.4C125.383 35.4 127.823 35.9 129.863 36.9C131.903 37.9 133.543 39.28 134.783 41.04C136.063 42.76 136.903 44.72 137.303 46.92L129.983 48.48C129.823 47.28 129.463 46.2 128.903 45.24C128.343 44.28 127.543 43.52 126.503 42.96C125.503 42.4 124.243 42.12 122.723 42.12C121.203 42.12 119.823 42.46 118.583 43.14C117.383 43.78 116.423 44.76 115.703 46.08C115.023 47.36 114.683 48.94 114.683 50.82V51.42C114.683 53.3 115.023 54.9 115.703 56.22C116.423 57.5 117.383 58.48 118.583 59.16C119.823 59.8 121.203 60.12 122.723 60.12C125.003 60.12 126.723 59.54 127.883 58.38C129.083 57.18 129.843 55.62 130.163 53.7L137.483 55.44C136.963 57.56 136.063 59.5 134.783 61.26C133.543 62.98 131.903 64.34 129.863 65.34C127.823 66.34 125.383 66.84 122.543 66.84ZM157.88 66.84C154.92 66.84 152.26 66.24 149.9 65.04C147.54 63.84 145.68 62.1 144.32 59.82C142.96 57.54 142.28 54.8 142.28 51.6V50.64C142.28 47.44 142.96 44.7 144.32 42.42C145.68 40.14 147.54 38.4 149.9 37.2C152.26 36 154.92 35.4 157.88 35.4C160.84 35.4 163.5 36 165.86 37.2C168.22 38.4 170.08 40.14 171.44 42.42C172.8 44.7 173.48 47.44 173.48 50.64V51.6C173.48 54.8 172.8 57.54 171.44 59.82C170.08 62.1 168.22 63.84 165.86 65.04C163.5 66.24 160.84 66.84 157.88 66.84ZM157.88 60.12C160.2 60.12 162.12 59.38 163.64 57.9C165.16 56.38 165.92 54.22 165.92 51.42V50.82C165.92 48.02 165.16 45.88 163.64 44.4C162.16 42.88 160.24 42.12 157.88 42.12C155.56 42.12 153.64 42.88 152.12 44.4C150.6 45.88 149.84 48.02 149.84 50.82V51.42C149.84 54.22 150.6 56.38 152.12 57.9C153.64 59.38 155.56 60.12 157.88 60.12ZM185.819 66L176.339 36.24H184.379L191.279 60.48H192.359L199.259 36.24H207.299L197.819 66H185.819ZM225.131 66.84C222.171 66.84 219.551 66.22 217.271 64.98C215.031 63.7 213.271 61.92 211.991 59.64C210.751 57.32 210.131 54.6 210.131 51.48V50.76C210.131 47.64 210.751 44.94 211.991 42.66C213.231 40.34 214.971 38.56 217.211 37.32C219.451 36.04 222.051 35.4 225.011 35.4C227.931 35.4 230.471 36.06 232.631 37.38C234.791 38.66 236.471 40.46 237.671 42.78C238.871 45.06 239.471 47.72 239.471 50.76V53.34H217.811C217.891 55.38 218.651 57.04 220.091 58.32C221.531 59.6 223.291 60.24 225.371 60.24C227.491 60.24 229.051 59.78 230.051 58.86C231.051 57.94 231.811 56.92 232.331 55.8L238.511 59.04C237.951 60.08 237.131 61.22 236.051 62.46C235.011 63.66 233.611 64.7 231.851 65.58C230.091 66.42 227.851 66.84 225.131 66.84ZM217.871 47.7H231.791C231.631 45.98 230.931 44.6 229.691 43.56C228.491 42.52 226.911 42 224.951 42C222.911 42 221.291 42.52 220.091 43.56C218.891 44.6 218.151 45.98 217.871 47.7ZM246.2 66V36.24H253.64V39.6H254.72C255.16 38.4 255.88 37.52 256.88 36.96C257.92 36.4 259.12 36.12 260.48 36.12H264.08V42.84H260.36C258.44 42.84 256.86 43.36 255.62 44.4C254.38 45.4 253.76 46.96 253.76 49.08V66H246.2ZM288.463 78V71.4H304.663C305.783 71.4 306.343 70.8 306.343 69.6V62.1H305.263C304.943 62.78 304.443 63.46 303.763 64.14C303.083 64.82 302.163 65.38 301.003 65.82C299.843 66.26 298.363 66.48 296.563 66.48C294.243 66.48 292.203 65.96 290.443 64.92C288.723 63.84 287.383 62.36 286.423 60.48C285.463 58.6 284.983 56.44 284.983 54V36.24H292.543V53.4C292.543 55.64 293.083 57.32 294.163 58.44C295.283 59.56 296.863 60.12 298.903 60.12C301.223 60.12 303.023 59.36 304.303 57.84C305.583 56.28 306.223 54.12 306.223 51.36V36.24H313.783V71.28C313.783 73.32 313.183 74.94 311.983 76.14C310.783 77.38 309.183 78 307.183 78H288.463ZM336.356 66.84C333.396 66.84 330.736 66.24 328.376 65.04C326.016 63.84 324.156 62.1 322.796 59.82C321.436 57.54 320.756 54.8 320.756 51.6V50.64C320.756 47.44 321.436 44.7 322.796 42.42C324.156 40.14 326.016 38.4 328.376 37.2C330.736 36 333.396 35.4 336.356 35.4C339.316 35.4 341.976 36 344.336 37.2C346.696 38.4 348.556 40.14 349.916 42.42C351.276 44.7 351.956 47.44 351.956 50.64V51.6C351.956 54.8 351.276 57.54 349.916 59.82C348.556 62.1 346.696 63.84 344.336 65.04C341.976 66.24 339.316 66.84 336.356 66.84ZM336.356 60.12C338.676 60.12 340.596 59.38 342.116 57.9C343.636 56.38 344.396 54.22 344.396 51.42V50.82C344.396 48.02 343.636 45.88 342.116 44.4C340.636 42.88 338.716 42.12 336.356 42.12C334.036 42.12 332.116 42.88 330.596 44.4C329.076 45.88 328.316 48.02 328.316 50.82V51.42C328.316 54.22 329.076 56.38 330.596 57.9C332.116 59.38 334.036 60.12 336.356 60.12ZM370.274 66.48C367.954 66.48 365.914 65.96 364.154 64.92C362.434 63.84 361.094 62.36 360.134 60.48C359.174 58.6 358.694 56.44 358.694 54V36.24H366.254V53.4C366.254 55.64 366.794 57.32 367.874 58.44C368.994 59.56 370.574 60.12 372.614 60.12C374.934 60.12 376.734 59.36 378.014 57.84C379.294 56.28 379.934 54.12 379.934 51.36V36.24H387.494V66H380.054V62.1H378.974C378.494 63.1 377.594 64.08 376.274 65.04C374.954 66 372.954 66.48 370.274 66.48ZM395.907 66V36.24H403.347V39.6H404.427C404.867 38.4 405.587 37.52 406.587 36.96C407.627 36.4 408.827 36.12 410.187 36.12H413.787V42.84H410.067C408.147 42.84 406.567 43.36 405.327 44.4C404.087 45.4 403.467 46.96 403.467 49.08V66H395.907Z" fill="black"/>
<path d="M20.96 156V114H38.24C40.88 114 43.2 114.54 45.2 115.62C47.24 116.66 48.82 118.14 49.94 120.06C51.1 121.98 51.68 124.26 51.68 126.9V127.74C51.68 130.34 51.08 132.62 49.88 134.58C48.72 136.5 47.12 138 45.08 139.08C43.08 140.12 40.8 140.64 38.24 140.64H28.88V156H20.96ZM28.88 133.44H37.46C39.34 133.44 40.86 132.92 42.02 131.88C43.18 130.84 43.76 129.42 43.76 127.62V127.02C43.76 125.22 43.18 123.8 42.02 122.76C40.86 121.72 39.34 121.2 37.46 121.2H28.88V133.44ZM70.8678 156.84C67.9078 156.84 65.2478 156.24 62.8878 155.04C60.5278 153.84 58.6678 152.1 57.3078 149.82C55.9478 147.54 55.2678 144.8 55.2678 141.6V140.64C55.2678 137.44 55.9478 134.7 57.3078 132.42C58.6678 130.14 60.5278 128.4 62.8878 127.2C65.2478 126 67.9078 125.4 70.8678 125.4C73.8278 125.4 76.4878 126 78.8478 127.2C81.2078 128.4 83.0678 130.14 84.4278 132.42C85.7878 134.7 86.4678 137.44 86.4678 140.64V141.6C86.4678 144.8 85.7878 147.54 84.4278 149.82C83.0678 152.1 81.2078 153.84 78.8478 155.04C76.4878 156.24 73.8278 156.84 70.8678 156.84ZM70.8678 150.12C73.1878 150.12 75.1078 149.38 76.6278 147.9C78.1478 146.38 78.9078 144.22 78.9078 141.42V140.82C78.9078 138.02 78.1478 135.88 76.6278 134.4C75.1478 132.88 73.2278 132.12 70.8678 132.12C68.5478 132.12 66.6278 132.88 65.1078 134.4C63.5878 135.88 62.8278 138.02 62.8278 140.82V141.42C62.8278 144.22 63.5878 146.38 65.1078 147.9C66.6278 149.38 68.5478 150.12 70.8678 150.12ZM103.85 156C101.89 156 100.29 155.4 99.05 154.2C97.85 152.96 97.25 151.32 97.25 149.28V132.48H89.81V126.24H97.25V117H104.81V126.24H112.97V132.48H104.81V147.96C104.81 149.16 105.37 149.76 106.49 149.76H112.25V156H103.85ZM132.319 156.84C129.359 156.84 126.739 156.22 124.459 154.98C122.219 153.7 120.459 151.92 119.179 149.64C117.939 147.32 117.319 144.6 117.319 141.48V140.76C117.319 137.64 117.939 134.94 119.179 132.66C120.419 130.34 122.159 128.56 124.399 127.32C126.639 126.04 129.239 125.4 132.199 125.4C135.119 125.4 137.659 126.06 139.819 127.38C141.979 128.66 143.659 130.46 144.859 132.78C146.059 135.06 146.659 137.72 146.659 140.76V143.34H124.999C125.079 145.38 125.839 147.04 127.279 148.32C128.719 149.6 130.479 150.24 132.559 150.24C134.679 150.24 136.239 149.78 137.239 148.86C138.239 147.94 138.999 146.92 139.519 145.8L145.699 149.04C145.139 150.08 144.319 151.22 143.239 152.46C142.199 153.66 140.799 154.7 139.039 155.58C137.279 156.42 135.039 156.84 132.319 156.84ZM125.059 137.7H138.979C138.819 135.98 138.119 134.6 136.879 133.56C135.679 132.52 134.099 132 132.139 132C130.099 132 128.479 132.52 127.279 133.56C126.079 134.6 125.339 135.98 125.059 137.7ZM153.388 156V126.24H160.828V130.14H161.908C162.388 129.1 163.288 128.12 164.607 127.2C165.928 126.24 167.928 125.76 170.608 125.76C172.928 125.76 174.948 126.3 176.668 127.38C178.428 128.42 179.788 129.88 180.748 131.76C181.708 133.6 182.188 135.76 182.188 138.24V156H174.628V138.84C174.628 136.6 174.068 134.92 172.948 133.8C171.868 132.68 170.308 132.12 168.268 132.12C165.948 132.12 164.148 132.9 162.868 134.46C161.588 135.98 160.948 138.12 160.948 140.88V156H153.388ZM200.94 156C198.98 156 197.38 155.4 196.14 154.2C194.94 152.96 194.34 151.32 194.34 149.28V132.48H186.9V126.24H194.34V117H201.9V126.24H210.06V132.48H201.9V147.96C201.9 149.16 202.46 149.76 203.58 149.76H209.34V156H200.94ZM216.903 156V126.24H224.463V156H216.903ZM220.683 122.76C219.323 122.76 218.163 122.32 217.203 121.44C216.283 120.56 215.823 119.4 215.823 117.96C215.823 116.52 216.283 115.36 217.203 114.48C218.163 113.6 219.323 113.16 220.683 113.16C222.083 113.16 223.243 113.6 224.163 114.48C225.083 115.36 225.543 116.52 225.543 117.96C225.543 119.4 225.083 120.56 224.163 121.44C223.243 122.32 222.083 122.76 220.683 122.76ZM242.081 156.84C239.961 156.84 238.061 156.48 236.381 155.76C234.701 155 233.361 153.92 232.361 152.52C231.401 151.08 230.921 149.34 230.921 147.3C230.921 145.26 231.401 143.56 232.361 142.2C233.361 140.8 234.721 139.76 236.441 139.08C238.201 138.36 240.201 138 242.441 138H250.601V136.32C250.601 134.92 250.161 133.78 249.281 132.9C248.401 131.98 247.001 131.52 245.081 131.52C243.201 131.52 241.801 131.96 240.881 132.84C239.961 133.68 239.361 134.78 239.081 136.14L232.121 133.8C232.601 132.28 233.361 130.9 234.401 129.66C235.481 128.38 236.901 127.36 238.661 126.6C240.461 125.8 242.641 125.4 245.201 125.4C249.121 125.4 252.221 126.38 254.501 128.34C256.781 130.3 257.921 133.14 257.921 136.86V147.96C257.921 149.16 258.481 149.76 259.601 149.76H262.001V156H256.961C255.481 156 254.261 155.64 253.301 154.92C252.341 154.2 251.861 153.24 251.861 152.04V151.98H250.721C250.561 152.46 250.201 153.1 249.641 153.9C249.081 154.66 248.201 155.34 247.001 155.94C245.801 156.54 244.161 156.84 242.081 156.84ZM243.401 150.72C245.521 150.72 247.241 150.14 248.561 148.98C249.921 147.78 250.601 146.2 250.601 144.24V143.64H242.981C241.581 143.64 240.481 143.94 239.681 144.54C238.881 145.14 238.481 145.98 238.481 147.06C238.481 148.14 238.901 149.02 239.741 149.7C240.581 150.38 241.801 150.72 243.401 150.72ZM267.528 156V114H275.088V156H267.528Z" fill="#8244C0"/>
<rect x="10" y="98" width="277" height="73" fill="#8244C0" fill-opacity="0.15"/>
<rect x="279" y="89" width="17" height="19" fill="#8244C0"/>
<rect y="160" width="17" height="19" fill="#8244C0"/>
</svg>
