<svg width="642" height="848" viewBox="0 0 642 848" fill="none" xmlns="http://www.w3.org/2000/svg">
<path fill-rule="evenodd" clip-rule="evenodd" d="M354.463 87.2645C408.1 84.4916 462.145 103.605 505.593 140.765C547.8 176.864 572.519 233.047 591.718 290.183C610.153 345.046 615.966 402.788 613.441 461.72C610.704 525.585 607.159 591.781 576.533 644.573C544.183 700.339 495.683 745.073 439.933 760.817C385.258 776.256 328.767 754.687 276.874 729.194C229.072 705.711 188.242 668.267 155.43 621.053C123.298 574.818 97.74 521.7 91.4629 462.401C85.2511 403.719 99.5482 345.691 120.599 292.007C141.579 238.502 171.471 191.114 211.623 155.963C253.756 119.076 302.023 89.9755 354.463 87.2645Z" fill="#3545FA" fill-opacity="0.1"/>
<path d="M271.337 787C350.957 828.961 480.043 828.961 559.672 787C639.3 745.038 639.282 677.009 559.672 635.038C480.062 593.067 350.957 593.085 271.328 635.038C191.7 676.991 191.718 745.038 271.337 787Z" fill="#F5F5F5"/>
<path d="M568.75 723.897C588.96 723.897 605.343 716.02 605.343 706.303C605.343 696.585 588.96 688.708 568.75 688.708C548.54 688.708 532.157 696.585 532.157 706.303C532.157 716.02 548.54 723.897 568.75 723.897Z" fill="#E0E0E0"/>
<path d="M274.381 743.265C294.591 743.265 310.975 735.387 310.975 725.67C310.975 715.953 294.591 708.076 274.381 708.076C254.171 708.076 237.788 715.953 237.788 725.67C237.788 735.387 254.171 743.265 274.381 743.265Z" fill="#E0E0E0"/>
<path d="M410.49 794.988L317.842 741.062C317.527 740.855 317.264 740.576 317.075 740.247C316.886 739.918 316.777 739.549 316.755 739.17V737.753C316.777 737.374 316.886 737.005 317.075 736.677C317.264 736.348 317.527 736.069 317.842 735.861L430.802 670.053C431.138 669.882 431.509 669.793 431.885 669.793C432.261 669.793 432.632 669.882 432.968 670.053L525.615 723.979C525.93 724.187 526.191 724.467 526.378 724.795C526.566 725.124 526.674 725.493 526.693 725.871V727.297C526.674 727.676 526.566 728.045 526.378 728.373C526.191 728.702 525.93 728.982 525.615 729.189L412.655 794.988C412.319 795.159 411.949 795.248 411.572 795.248C411.196 795.248 410.826 795.159 410.49 794.988Z" fill="#EBEBEB"/>
<path d="M525.615 725.222L412.646 791.03C412.312 791.206 411.94 791.298 411.563 791.298C411.187 791.298 410.815 791.206 410.481 791.03L317.842 737.104C317.712 737.059 317.599 736.974 317.52 736.861C317.44 736.748 317.397 736.613 317.397 736.474C317.397 736.335 317.44 736.2 317.52 736.087C317.599 735.974 317.712 735.888 317.842 735.843L430.802 670.035C431.138 669.864 431.509 669.775 431.885 669.775C432.261 669.775 432.632 669.864 432.968 670.035L525.615 723.961C525.745 724.006 525.858 724.092 525.938 724.205C526.018 724.318 526.061 724.453 526.061 724.592C526.061 724.731 526.018 724.866 525.938 724.979C525.858 725.092 525.745 725.177 525.615 725.222Z" fill="#FAFAFA"/>
<path d="M525.615 725.222L412.646 791.03C412.312 791.206 411.94 791.298 411.563 791.298C411.187 791.298 410.815 791.206 410.481 791.03L317.842 737.104C317.712 737.059 317.599 736.974 317.52 736.861C317.44 736.748 317.397 736.613 317.397 736.474C317.397 736.335 317.44 736.2 317.52 736.087C317.599 735.974 317.712 735.888 317.842 735.843L430.802 670.035C431.138 669.864 431.509 669.775 431.885 669.775C432.261 669.775 432.632 669.864 432.968 670.035L525.615 723.961C525.745 724.006 525.858 724.092 525.938 724.205C526.018 724.318 526.061 724.453 526.061 724.592C526.061 724.731 526.018 724.866 525.938 724.979C525.858 725.092 525.745 725.177 525.615 725.222Z" fill="#FAFAFA"/>
<path d="M411.568 791.652V795.226C411.192 795.231 410.821 795.14 410.49 794.961L317.842 741.035C317.526 740.829 317.262 740.55 317.073 740.221C316.884 739.892 316.775 739.522 316.755 739.143V737.726C316.777 737.386 316.869 737.054 317.025 736.752C317.181 736.45 317.397 736.184 317.661 735.971C317.271 736.319 317.335 736.794 317.86 737.095L410.508 791.021C410.597 791.072 410.691 791.112 410.789 791.14L411.568 791.652Z" fill="#E0E0E0"/>
<path d="M355.704 731.602C355.711 731.648 355.711 731.694 355.704 731.739L355.604 731.876L355.088 732.087L343.038 732.708C342.851 732.739 342.674 732.811 342.517 732.918C342.361 733.026 342.229 733.166 342.132 733.33C341.942 733.659 342.042 733.924 342.359 733.942L353.72 734.527L353.983 734.737C353.972 734.786 353.954 734.832 353.928 734.874C353.873 734.964 353.798 735.039 353.708 735.093C353.618 735.147 353.516 735.179 353.412 735.185L341.951 734.591C341.308 734.591 341.099 734.006 341.48 733.33C341.686 732.987 341.965 732.695 342.297 732.475C342.63 732.255 343.007 732.113 343.401 732.059L355.55 731.428C355.65 731.428 355.704 731.492 355.704 731.602Z" fill="#455A64"/>
<path d="M461.869 724.235C461.864 724.308 461.839 724.378 461.797 724.436C461.737 724.521 461.658 724.591 461.567 724.64C461.476 724.689 461.374 724.717 461.271 724.72C461.271 724.72 458.263 724.363 452.764 723.888C452.601 723.888 452.555 723.714 452.673 723.532C452.73 723.445 452.807 723.374 452.897 723.323C452.986 723.272 453.087 723.243 453.19 723.239C458.698 723.714 461.688 724.071 461.715 724.071C461.757 724.073 461.796 724.091 461.825 724.122C461.853 724.153 461.869 724.193 461.869 724.235Z" fill="#455A64"/>
<path d="M451.867 741.757C451.879 741.795 451.879 741.837 451.867 741.875C451.82 741.971 451.751 742.054 451.666 742.117C451.581 742.181 451.482 742.223 451.378 742.241C451.378 742.241 447.944 742.607 441.892 743.1C441.702 743.1 441.62 742.981 441.711 742.808C441.76 742.713 441.831 742.631 441.917 742.569C442.004 742.507 442.104 742.467 442.209 742.451C448.252 741.958 451.64 741.592 451.677 741.592C451.713 741.592 451.867 741.647 451.867 741.757Z" fill="#455A64"/>
<path d="M439.056 722.353C439.054 722.417 439.035 722.48 439.002 722.535C438.942 722.622 438.864 722.694 438.773 722.747C438.682 722.799 438.581 722.83 438.476 722.837C433.448 722.526 428.184 722.261 422.83 722.033C398.413 721.036 390.286 721.941 382.875 723.139C374.83 724.436 354.363 731.95 352.615 733.311C352.814 734.664 364.728 742.141 371.296 743.411C377.357 744.59 384.46 745.477 410.064 744.398C415.663 744.161 421.244 743.877 426.662 743.548C426.843 743.548 426.916 743.676 426.825 743.85C426.775 743.943 426.704 744.023 426.617 744.083C426.53 744.144 426.431 744.183 426.327 744.197C420.891 744.526 415.319 744.809 409.72 745.047C384.044 746.135 376.913 745.239 370.816 744.06C364.927 742.908 350.984 734.984 351.935 733.311C352.886 731.639 375.917 723.66 383.129 722.49C390.585 721.292 398.748 720.378 423.228 721.384C428.583 721.603 433.856 721.877 438.893 722.188C438.915 722.185 438.938 722.187 438.959 722.194C438.98 722.202 438.999 722.214 439.015 722.23C439.031 722.245 439.043 722.265 439.05 722.286C439.057 722.307 439.059 722.33 439.056 722.353Z" fill="#455A64"/>
<path d="M393.258 727.818C392.651 726.402 391.201 725.615 389.199 725.615C386.82 725.739 384.52 726.516 382.549 727.864C381.44 728.573 380.413 729.404 379.487 730.341C378.62 731.218 377.865 732.2 377.24 733.266C376.399 734.585 376.004 736.143 376.116 737.708C376.397 739.718 378.028 740.916 380.465 740.907C382.844 740.788 385.145 740.01 387.115 738.658C389.279 737.301 391.097 735.451 392.424 733.257C393.103 732.152 393.501 730.897 393.584 729.601C393.602 728.99 393.491 728.382 393.258 727.818ZM391.772 733.257C390.561 735.267 388.897 736.961 386.916 738.201C385.115 739.431 383.017 740.142 380.846 740.258C378.599 740.258 377.113 739.161 376.868 737.333C376.83 737.1 376.815 736.865 376.823 736.629C376.901 735.437 377.268 734.282 377.892 733.266C379.104 731.259 380.764 729.566 382.739 728.321C384.542 727.091 386.644 726.383 388.818 726.274C390.63 726.274 391.98 726.986 392.542 728.284C393.104 729.582 392.85 731.365 391.772 733.257Z" fill="#455A64"/>
<path d="M392.542 728.266C391.98 726.968 390.667 726.255 388.818 726.255C386.645 726.364 384.542 727.072 382.739 728.303C380.764 729.548 379.104 731.241 377.892 733.247C377.269 734.263 376.901 735.418 376.823 736.611C376.815 736.846 376.83 737.082 376.868 737.315C377.113 739.143 378.599 740.239 380.846 740.239C383.017 740.124 385.115 739.413 386.916 738.183C388.897 736.943 390.561 735.249 391.772 733.238C392.85 731.364 393.113 729.6 392.542 728.266ZM390.132 733.256C388.438 736.209 384.696 738.622 381.752 738.622C378.843 738.622 377.838 736.209 379.514 733.266C381.19 730.322 384.95 727.909 387.885 727.9C389.896 727.9 391.002 729.034 390.957 730.642C390.898 731.569 390.615 732.466 390.132 733.256Z" fill="#3545FA"/>
<path d="M371.523 725.67C371.484 725.654 371.442 725.646 371.4 725.646C371.358 725.646 371.317 725.654 371.278 725.67C365.534 727.498 352.678 731.977 351.908 733.32C351.138 734.664 358.893 739.106 362.553 740.925C362.638 740.956 362.731 740.956 362.816 740.925C362.922 740.882 363.018 740.816 363.097 740.733C367.573 735.779 370.436 730.78 371.586 725.881V725.826C371.594 725.796 371.592 725.765 371.581 725.737C371.569 725.709 371.549 725.685 371.523 725.67Z" fill="#455A64"/>
<path d="M370.771 726.438C369.629 731.008 366.984 735.578 362.889 740.221C357.335 737.433 352.705 734.198 352.587 733.348C353.675 732.461 362.046 729.18 370.771 726.438Z" fill="#3545FA"/>
<path d="M461.978 725.113C461.873 726.455 461.533 727.767 460.972 728.988C460.926 729.085 460.858 729.17 460.773 729.235C460.687 729.301 460.588 729.344 460.483 729.363C460.293 729.363 460.193 729.271 460.265 729.098C461.461 726.191 461.244 724.994 461.171 724.711C460.7 724.656 458.716 724.427 455.382 724.126C455.061 726.195 454.393 728.195 453.407 730.039C453.357 730.133 453.286 730.214 453.199 730.276C453.113 730.338 453.013 730.379 452.909 730.396C452.718 730.396 452.646 730.277 452.728 730.103C454.304 726.822 454.639 724.903 454.666 723.906C454.677 723.839 454.701 723.774 454.737 723.716C454.772 723.658 454.819 723.608 454.875 723.568C454.98 723.475 455.115 723.423 455.255 723.422C459.441 723.797 461.697 724.071 461.724 724.071C461.751 724.073 461.778 724.082 461.801 724.096C461.825 724.11 461.845 724.13 461.86 724.153C461.972 724.46 462.012 724.788 461.978 725.113Z" fill="#455A64"/>
<path d="M456.27 737.141C456.258 737.218 456.227 737.29 456.179 737.351C453.534 741.007 451.649 742.113 451.559 742.159C451.49 742.202 451.413 742.23 451.332 742.241C451.332 742.241 448.741 742.525 444.084 742.918C443.957 742.918 443.876 742.918 443.867 742.762C443.872 742.697 443.89 742.634 443.922 742.578C443.953 742.521 443.996 742.471 444.048 742.433C446.01 740.603 447.73 738.527 449.167 736.254C449.223 736.165 449.301 736.09 449.392 736.038C449.484 735.985 449.587 735.956 449.692 735.953C449.856 735.953 449.901 736.127 449.783 736.309C448.412 738.447 446.814 740.426 445.017 742.214C448.696 741.894 450.943 741.656 451.477 741.601C453.066 740.38 454.449 738.907 455.572 737.242C455.633 737.159 455.712 737.091 455.803 737.045C455.895 736.999 455.996 736.975 456.098 736.977C456.121 736.972 456.144 736.973 456.167 736.979C456.189 736.986 456.209 736.998 456.226 737.014C456.243 737.03 456.256 737.05 456.264 737.072C456.271 737.094 456.273 737.118 456.27 737.141Z" fill="#455A64"/>
<path d="M467.794 749.855L444.682 751.427L442.381 742.561C442.374 742.534 442.359 742.51 442.338 742.492C442.317 742.474 442.291 742.463 442.263 742.46C437.86 741.254 432.56 741.629 426.517 743.566C426.388 743.613 426.273 743.692 426.182 743.795C426.146 743.835 426.12 743.884 426.105 743.936C426.091 743.988 426.09 744.043 426.1 744.097L431.373 758.099C431.385 758.132 431.408 758.16 431.437 758.178C431.467 758.196 431.502 758.204 431.536 758.2L440.596 758.355H440.714L467.577 750.513C467.67 750.485 467.757 750.437 467.83 750.372C467.904 750.308 467.963 750.228 468.003 750.138C468.006 750.108 468.006 750.077 468.003 750.047C468.048 749.919 467.93 749.846 467.794 749.855ZM440.868 757.697L432.025 757.551L426.925 743.996C432.542 742.278 437.489 741.967 441.629 743.082L443.939 751.984C443.939 752.057 444.039 752.103 444.148 752.094L464.904 750.686L440.868 757.697Z" fill="#455A64"/>
<path d="M464.94 750.677L440.868 757.697L432.025 757.551L426.925 743.996C432.542 742.278 437.489 741.967 441.629 743.082L443.939 751.984C443.939 752.057 444.039 752.103 444.148 752.094L464.94 750.677Z" fill="#3545FA"/>
<path d="M487.391 715.753L469.443 707.975H469.344L460.111 708.158C460.01 708.163 459.913 708.198 459.831 708.258L438.549 722.297C438.435 722.369 438.347 722.475 438.295 722.599C438.275 722.641 438.272 722.688 438.285 722.732C438.298 722.776 438.328 722.814 438.367 722.837C442.209 724.756 447.083 725.113 452.863 723.897C452.948 723.874 453.027 723.837 453.099 723.787L465.529 714.903L486.902 716.384C486.998 716.379 487.091 716.352 487.176 716.307C487.26 716.261 487.334 716.197 487.391 716.119C487.445 716.058 487.477 715.981 487.482 715.899C487.484 715.869 487.476 715.838 487.46 715.811C487.444 715.785 487.42 715.765 487.391 715.753ZM465.792 714.227C465.67 714.226 465.552 714.268 465.457 714.346L452.963 723.266C447.527 724.381 442.997 724.089 439.301 722.352L459.894 708.789L468.954 708.615L485.008 715.57L465.792 714.227Z" fill="#455A64"/>
<path d="M484.981 715.571L465.792 714.227C465.67 714.226 465.552 714.268 465.457 714.346L452.963 723.266C447.527 724.381 442.997 724.089 439.301 722.352L459.894 708.789L468.954 708.615L484.981 715.571Z" fill="#3545FA"/>
<path d="M486.521 732.708L463.998 728.266H463.899L430.331 732.836C430.237 732.856 430.148 732.894 430.068 732.949C429.989 733.004 429.921 733.074 429.869 733.156C429.77 733.321 429.815 733.458 429.96 733.485L458.327 738.055H458.435L486.159 733.357C486.253 733.337 486.342 733.298 486.42 733.241C486.498 733.184 486.563 733.112 486.612 733.028C486.638 732.98 486.654 732.927 486.657 732.873C486.66 732.833 486.647 732.794 486.622 732.763C486.597 732.732 486.561 732.713 486.521 732.708ZM458.743 737.406L432.469 733.174L463.6 728.961L484.492 733.055L458.743 737.406Z" fill="#455A64"/>
<path d="M484.456 733.046L458.743 737.397L432.433 733.165L463.563 728.951L484.456 733.046Z" fill="#3545FA"/>
<path d="M457.375 752.88L454.775 753.648L452.148 754.425L449.212 755.284C448.148 755.605 447.17 756.166 446.352 756.924C445.535 757.683 444.898 758.619 444.492 759.662C443.985 761.49 445.217 762.559 447.31 762.111L450.082 761.517H450.164L452.728 760.969L455.246 760.43C456.614 760.082 457.674 757.925 458.164 756.189C458.342 755.576 458.449 754.944 458.481 754.306C458.526 753.328 458.236 752.661 457.375 752.88ZM457.448 756.353C456.968 758.09 456.062 759.625 455.455 759.781L453.643 760.165L452.782 760.347L450.97 760.731L450.145 760.914L447.473 761.481C446.005 761.792 445.054 761.179 445.081 760.055C445.09 759.856 445.123 759.66 445.181 759.47C445.511 758.619 446.03 757.856 446.697 757.239C447.365 756.621 448.163 756.165 449.031 755.905L451.749 755.092L452.592 754.845L454.404 754.306L455.31 754.041L457.122 753.502C457.819 753.355 457.937 754.635 457.448 756.353Z" fill="#455A64"/>
<path d="M455.364 754.041C455.326 753.95 455.271 753.867 455.2 753.798C455.13 753.729 455.047 753.675 454.956 753.639C454.891 753.621 454.822 753.621 454.757 753.639L452.13 754.416C451.974 754.463 451.84 754.563 451.749 754.699C451.659 754.827 451.659 754.955 451.749 755.01C451.775 755.03 451.796 755.054 451.813 755.083C452.121 755.457 452.084 756.518 451.722 757.825C451.445 758.961 450.918 760.02 450.182 760.923L450.064 761.042C450.009 761.084 449.965 761.138 449.933 761.2C449.902 761.261 449.885 761.329 449.883 761.398C449.893 761.44 449.919 761.475 449.954 761.499C449.989 761.523 450.031 761.532 450.073 761.526H450.155L452.719 760.978C452.791 760.958 452.858 760.924 452.918 760.878C453.186 760.686 453.424 760.455 453.625 760.192C454.344 759.225 454.87 758.126 455.174 756.956C455.358 756.348 455.465 755.718 455.491 755.083C455.526 754.73 455.483 754.374 455.364 754.041ZM454.458 757.112C454.174 758.316 453.594 759.428 452.773 760.347L450.961 760.731C451.618 759.792 452.106 758.743 452.401 757.633C452.712 756.738 452.784 755.777 452.61 754.845L454.422 754.306C454.866 754.562 454.866 755.686 454.458 757.112Z" fill="#455A64"/>
<path d="M454.458 757.112C454.174 758.316 453.594 759.428 452.773 760.347L450.961 760.731C451.618 759.792 452.105 758.743 452.401 757.633C452.712 756.738 452.784 755.777 452.61 754.845L454.422 754.306C454.866 754.562 454.866 755.686 454.458 757.112Z" fill="#3545FA"/>
<path d="M486.394 705.846L484.474 705.316L482.544 704.776L480.379 704.173C478.802 703.734 476.329 704.822 474.761 706.641C473.194 708.46 473.067 710.379 474.49 711.01L476.438 711.86L478.186 712.628L479.917 713.386C480.234 713.496 480.868 713.386 482.082 712.472C482.952 711.752 483.759 710.957 484.492 710.096C485.195 709.301 485.817 708.438 486.349 707.518C486.558 707.173 486.691 706.786 486.739 706.385C486.756 706.268 486.731 706.149 486.668 706.05C486.604 705.95 486.507 705.878 486.394 705.846ZM485.679 707.537C485.189 708.385 484.615 709.181 483.966 709.913C483.292 710.706 482.549 711.437 481.747 712.097C481.131 712.591 480.66 712.829 480.46 712.765L479.246 712.234L478.648 711.969L477.434 711.439L476.881 711.193L475.069 710.388C473.91 709.876 474 708.313 475.287 706.824C476.573 705.334 478.585 704.447 479.88 704.813L481.919 705.379L482.526 705.544L483.894 705.919L484.546 706.102L485.896 706.476C486.068 706.549 485.996 706.933 485.679 707.537Z" fill="#455A64"/>
<path d="M484.583 705.416C484.576 705.391 484.562 705.367 484.543 705.35C484.524 705.332 484.5 705.32 484.474 705.316L482.544 704.776C482.401 704.766 482.258 704.809 482.144 704.896C482.029 704.984 481.949 705.11 481.919 705.252C481.919 705.252 481.919 705.325 481.919 705.37C481.453 706.517 480.774 707.563 479.917 708.451C479.06 709.519 478.042 710.444 476.9 711.193L476.746 711.266C476.596 711.325 476.471 711.435 476.392 711.576C476.329 711.704 476.347 711.814 476.447 711.86L478.195 712.628C478.26 712.651 478.33 712.651 478.395 712.628C478.715 712.54 479.02 712.404 479.301 712.225C480.463 711.401 481.514 710.427 482.426 709.328C483.313 708.376 484.039 707.283 484.573 706.092C484.626 705.942 484.657 705.785 484.664 705.626C484.651 705.551 484.624 705.48 484.583 705.416ZM481.865 709.154C480.982 710.289 479.894 711.245 478.657 711.969L477.443 711.439C478.539 710.628 479.536 709.689 480.415 708.643C481.26 707.719 481.965 706.675 482.508 705.544L483.876 705.919C483.903 706.403 483.06 707.747 481.855 709.154H481.865Z" fill="#455A64"/>
<path d="M483.867 705.919C483.867 706.403 483.06 707.747 481.855 709.154C480.973 710.289 479.885 711.245 478.648 711.969L477.434 711.439C478.53 710.628 479.527 709.689 480.406 708.642C481.25 707.719 481.956 706.675 482.499 705.544L483.867 705.919Z" fill="#3545FA"/>
<path d="M387.885 727.9C384.959 727.9 381.199 730.313 379.514 733.266C377.829 736.218 378.843 738.622 381.752 738.622C384.687 738.622 388.438 736.209 390.132 733.256C390.601 732.478 390.878 731.597 390.938 730.688C391.038 729.034 389.896 727.9 387.885 727.9ZM389.498 733.256C388.012 735.852 384.723 737.964 382.141 737.964C379.559 737.964 378.68 735.861 380.166 733.266C381.652 730.67 384.941 728.568 387.514 728.558C390.087 728.549 390.975 730.661 389.498 733.256Z" fill="#455A64"/>
<path d="M550.385 556.434C546.607 561.507 538.979 570.601 535.192 575.399C533.186 577.906 532.101 581.035 532.12 584.256C532.12 586.642 532.8 588.634 535.11 587.62C536.786 586.879 537.828 586.011 540.292 583.58C542.485 581.395 555.169 565.217 555.169 565.217C555.169 565.217 556.211 556.151 559.491 555.163C562.77 554.176 558.313 551.434 558.313 551.434C556.927 551.59 554.2 551.316 550.385 556.434Z" fill="#9A4A4D"/>
<path d="M503.98 677.731L480.297 705.005C480.145 705.176 479.944 705.295 479.722 705.346C479.5 705.397 479.268 705.377 479.058 705.288C478.847 705.2 478.67 705.048 478.549 704.853C478.429 704.658 478.372 704.43 478.385 704.2L480.741 667.814L503.98 677.731Z" fill="#FFA8A7"/>
<path d="M478.385 704.2C478.372 704.43 478.429 704.658 478.549 704.853C478.67 705.048 478.847 705.2 479.058 705.288C479.268 705.377 479.5 705.397 479.722 705.346C479.944 705.295 480.145 705.176 480.297 705.005L484.918 699.676C483.811 699.792 482.694 699.597 481.69 699.113C480.686 698.629 479.834 697.875 479.228 696.934L478.884 696.413L478.385 704.2Z" fill="#263238"/>
<path d="M538.716 526.464L537.448 529.571L535.898 533.31L480.732 667.805C482.189 671.624 485.024 674.745 488.669 676.543C494.105 679.467 500.619 679.998 503.953 677.722L558.648 544.214L561.583 537.057C559.463 541.581 536.587 531.034 538.716 526.464Z" fill="#3545FA"/>
<path d="M533.815 538.254L530.988 545.192C530.082 547.175 533.815 550.228 538.535 552.705C544.786 556.023 552.795 558.326 553.937 555.703L556.03 550.593L556.745 548.765C555.568 551.389 547.559 549.094 541.298 545.777C536.768 543.391 533.144 540.466 533.706 538.465C533.724 538.386 533.761 538.314 533.815 538.254Z" fill="#EBEBEB"/>
<path d="M533.126 539.982C531.06 544.552 554.027 555.09 556.093 550.493L558.947 543.556C556.881 548.126 533.914 537.651 535.98 533.054L533.126 539.982Z" fill="#3545FA"/>
<path d="M538.716 526.464L535.898 533.31C533.815 537.807 555.93 548.208 558.648 544.214C558.705 544.137 558.754 544.055 558.793 543.967L561.583 537.057C559.463 541.581 536.587 531.034 538.716 526.464Z" fill="#EBEBEB"/>
<path opacity="0.1" d="M558.648 544.214L561.583 537.057C560.605 539.104 555.405 538.062 550.186 535.896L493.063 678.334L480.297 705.005L503.98 677.731L558.648 544.214Z" fill="black"/>
<path d="M550.621 497.435L538.716 526.464C537.81 528.42 541.434 531.463 546.145 533.95C552.388 537.286 560.415 539.653 561.647 537.057L573.144 509.107C576.351 502.819 565.289 494.903 557.343 494.483C554.335 494.282 551.817 495.086 550.621 497.435Z" fill="#FFA8A7"/>
<path d="M561.62 507.014L550.222 535.887C554.87 537.816 559.482 538.849 561.094 537.605C561.211 537.508 561.321 537.401 561.42 537.286C561.475 537.203 561.538 537.139 561.583 537.057L573.407 508.275C571.939 511.73 561.62 507.014 561.62 507.014Z" fill="#F28F8F"/>
<path d="M597.325 698.333L590.793 700.298L587.966 690.691L594.643 688.388L597.325 698.333Z" fill="#B16668"/>
<path d="M589.833 697.044L589.552 696.13C589.008 696.587 588.845 702.418 587.314 705.781C585.647 709.437 583.88 712.07 583.137 713.724C582.141 715.936 586.018 717.106 590.304 714.976C592.424 713.916 595.83 711.156 596.374 709.383C596.917 707.609 596.727 705.315 597.198 703.99C597.669 702.665 599.137 700.928 599.201 699.548C598.983 698.341 598.507 697.196 597.805 696.194C597.162 695.124 596.455 693.936 596.093 694.164C596.093 694.311 596.301 694.887 596.301 694.887C595.673 696.029 594.729 696.963 593.583 697.574C592.56 698.104 590.177 698.186 589.833 697.044Z" fill="#263238"/>
<path d="M581.135 588.79C585.076 593.89 585.783 599.154 584.922 614.062C584.061 628.969 583.799 641.482 584.016 642.277C584.233 643.072 588.872 649.104 590.358 654.561C591.844 660.018 595.912 690.929 595.912 690.929C595.021 692.04 593.885 692.925 592.596 693.516C591.306 694.106 589.898 694.384 588.483 694.329C588.483 694.329 572.039 649.159 570.933 645.796C569.828 642.432 562.779 607.115 562.779 607.115L563.848 587.172L581.135 588.79Z" fill="#37474F"/>
<path d="M563.993 544.872H569.429C572.849 544.872 576.13 543.502 578.549 541.063C580.968 538.624 582.328 535.316 582.331 531.866C582.331 527.684 580.684 523.674 577.753 520.717C574.822 517.76 570.847 516.099 566.702 516.099C562.557 516.099 558.582 517.76 555.651 520.717C552.72 523.674 551.074 527.684 551.074 531.866C551.074 533.576 551.408 535.269 552.058 536.849C552.707 538.429 553.659 539.864 554.86 541.072C556.06 542.28 557.484 543.238 559.051 543.89C560.619 544.542 562.298 544.875 563.993 544.872Z" fill="#263238"/>
<path d="M555.793 685.72L548.98 685.629L548.848 695.645L555.661 695.737L555.793 685.72Z" fill="#B16668"/>
<path d="M551.038 605.936C551.645 599.054 553.103 587.126 553.103 587.126L570.553 586.093C573.38 590.535 572.147 597.975 571.377 604.611L561.411 644.023C561.611 645.915 563.332 649.918 561.411 660.063C559.264 671.397 556.075 687.639 556.075 687.639C556.075 687.639 551.101 690.161 548.646 687.41C548.646 687.41 547.332 650.576 548.256 640.796C549.244 630.157 550.63 610.652 551.038 605.936Z" fill="#37474F"/>
<path d="M548.918 692.227V691.24C548.265 691.514 546.381 697.035 543.935 699.786C541.262 702.793 538.798 704.758 537.593 706.111C535.998 707.939 539.35 710.205 544.061 709.456C546.408 709.09 550.476 707.463 551.509 705.946C552.542 704.429 553.049 702.162 553.891 701.047C554.734 699.932 556.609 698.698 557.108 697.391C557.263 696.162 557.145 694.913 556.764 693.735C556.465 692.519 556.138 691.176 555.731 691.285C555.731 691.432 555.731 692.035 555.731 692.035C554.785 692.935 553.602 693.541 552.324 693.781C551.219 694.009 548.909 693.424 548.918 692.227Z" fill="#263238"/>
<path d="M555.178 573.334C554.743 577.355 552.17 594.822 552.17 594.822C565.325 601.896 581.642 597.208 584.134 594.292C581.878 586.779 579.441 582.501 577.583 580.509L580.392 569.468C580.392 569.468 574.05 562.649 579.694 551.91L572.718 551.334L562.48 551.032C560.034 551.169 558.286 551.407 558.286 551.407C556.415 554.539 554.812 557.826 553.493 561.232C552.478 563.901 551.4 567.804 555.178 573.334Z" fill="#F0F0F0"/>
<path d="M556.673 522.963C555.024 523.95 552.986 528.137 553.185 536.92C553.357 544.36 555.749 546.197 556.945 546.727C558.141 547.257 560.46 546.938 562.716 546.554V551.023C562.716 551.023 559.599 554.679 559.799 556.717C559.998 558.756 564.329 559.249 567.201 557.248C569.307 555.6 571.12 553.603 572.564 551.343L572.51 541.079C572.51 541.079 573.842 542.377 576.089 540.393C577.901 538.757 578.562 536.006 577.121 534.525C576.746 534.173 576.294 533.916 575.801 533.775C575.308 533.634 574.789 533.613 574.286 533.713C573.784 533.814 573.312 534.034 572.91 534.355C572.509 534.676 572.188 535.088 571.975 535.558C571.975 535.558 568.351 535.686 563.613 533.036C561.752 532.026 560.154 530.588 558.948 528.837C557.742 527.087 556.963 525.075 556.673 522.963Z" fill="#B16668"/>
<path d="M561.42 535.046C561.406 535.175 561.419 535.304 561.458 535.427C561.498 535.55 561.562 535.663 561.648 535.759C561.733 535.855 561.838 535.931 561.955 535.983C562.072 536.035 562.199 536.062 562.326 536.061C562.516 536.072 562.705 536.025 562.869 535.927C563.032 535.83 563.164 535.685 563.246 535.512C563.328 535.339 563.357 535.145 563.33 534.955C563.303 534.765 563.22 534.588 563.093 534.445C562.966 534.303 562.799 534.201 562.615 534.154C562.431 534.107 562.236 534.117 562.057 534.181C561.878 534.245 561.722 534.362 561.608 534.516C561.495 534.67 561.43 534.855 561.42 535.046Z" fill="#263238"/>
<path d="M561.176 541.353L559.019 542.048C559.059 542.193 559.127 542.329 559.22 542.448C559.312 542.567 559.427 542.665 559.558 542.739C559.689 542.812 559.833 542.858 559.981 542.874C560.13 542.891 560.28 542.877 560.424 542.834C560.712 542.73 560.95 542.519 561.09 542.243C561.23 541.968 561.26 541.65 561.176 541.353Z" fill="#9A4A4D"/>
<path d="M553.819 532.176L555.694 530.86C555.616 530.733 555.512 530.623 555.39 530.538C555.267 530.452 555.129 530.392 554.983 530.363C554.838 530.333 554.687 530.333 554.542 530.363C554.396 530.394 554.258 530.454 554.136 530.54C553.887 530.721 553.715 530.991 553.656 531.295C553.597 531.599 553.655 531.914 553.819 532.176Z" fill="#263238"/>
<path d="M554.245 534.37C554.245 534.548 554.297 534.721 554.394 534.869C554.491 535.018 554.628 535.134 554.789 535.205C554.951 535.276 555.129 535.298 555.303 535.268C555.476 535.238 555.637 535.158 555.766 535.038C555.896 534.917 555.987 534.761 556.03 534.589C556.072 534.417 556.065 534.236 556.007 534.068C555.949 533.9 555.845 533.753 555.705 533.644C555.566 533.536 555.399 533.47 555.223 533.456C554.974 533.449 554.732 533.54 554.549 533.711C554.366 533.882 554.257 534.119 554.245 534.37Z" fill="#263238"/>
<path d="M558.621 533.84L558.476 539.47L555.54 538.556L558.621 533.84Z" fill="#9A4A4D"/>
<path d="M562.716 546.554C565.09 546.243 569.964 544.826 570.725 542.898C570.42 543.884 569.822 544.751 569.013 545.384C567.554 546.645 562.716 548.062 562.716 548.062V546.554Z" fill="#9A4A4D"/>
<path d="M582.204 534.315L585.529 531.857C585.38 531.629 585.187 531.435 584.961 531.285C584.736 531.135 584.483 531.032 584.217 530.984C583.951 530.935 583.678 530.941 583.415 531.002C583.151 531.062 582.903 531.176 582.684 531.336C582.241 531.676 581.945 532.174 581.855 532.729C581.766 533.283 581.891 533.851 582.204 534.315Z" fill="#263238"/>
<path d="M565.896 622.662L563.042 608.194C560.521 607.293 558.127 606.064 555.921 604.538C557.33 606.337 559.012 607.901 560.904 609.172L565.896 622.662Z" fill="#263238"/>
<path d="M580.392 544.936C577.366 543.391 577.783 540.503 579.314 537.441C580.845 534.379 582.893 532.323 585.928 533.858C587.33 534.629 588.38 535.921 588.856 537.459C589.332 538.997 589.196 540.662 588.477 542.101C587.758 543.54 586.512 544.64 585.003 545.169C583.494 545.698 581.841 545.615 580.392 544.936Z" fill="#263238"/>
<path d="M531.577 590.654C533.099 591.056 534.576 590.928 536.678 591.66C538.075 592.271 539.598 592.531 541.117 592.418C543.092 592.29 548.247 589.832 552.822 587.026C557.842 583.738 562.264 579.604 565.896 574.805C570.036 568.892 574.621 559.56 576.813 555.995C579.006 552.431 579.758 551.91 579.758 551.91C582.621 552.028 585.466 554.652 583.563 561.726C581.987 567.557 577.756 575.116 572.546 581.478C568.588 586.181 563.889 590.195 558.639 593.36C553.801 596.339 549.579 597.82 544.143 599.639C542.675 600.132 541.715 600.863 539.033 602.143C537.953 602.734 536.793 603.162 535.59 603.414C534.088 603.632 532.563 603.632 531.06 603.414C529.151 603.148 527.348 602.369 525.842 601.156C525.016 600.493 524.356 599.645 523.912 598.679C523.473 597.7 523.389 596.597 523.676 595.562C523.729 595.353 523.835 595.16 523.984 595.005C524.142 594.891 524.319 594.811 524.507 594.767C524.695 594.723 524.89 594.717 525.081 594.749C527.275 594.969 529.48 595.076 531.685 595.069C533.497 594.941 534.757 594.593 534.494 594.338C534.231 594.082 533.18 594.228 531.731 593.597C530.281 592.967 529.33 591.577 529.728 590.855C530.127 590.133 530.055 590.252 531.577 590.654Z" fill="#B16668"/>
<path d="M521.574 568.197C523.672 567.279 525.986 566.987 528.243 567.356C530.055 567.658 530.055 573.754 524.229 575.701C520.433 576.953 518.15 576.396 516.927 579.549C516.927 579.549 514.462 579.22 515.024 575.701C515.64 572.067 517.257 568.681 519.69 565.93C521.357 563.938 521.502 562.274 522.29 562.823C523.078 563.371 522.789 565.318 522.789 565.318L521.574 568.197Z" fill="#B16668"/>
<path d="M286.368 572.648C290.409 577.52 297.774 586.815 301.561 591.614C303.571 594.118 304.657 597.248 304.633 600.47C304.633 602.856 303.962 604.848 301.643 603.834C299.976 603.094 298.925 602.225 296.47 599.794C294.277 597.61 286.504 588.186 286.504 588.186C286.504 588.186 280.542 572.365 277.263 571.36C275.473 570.765 273.59 570.511 271.709 570.61C275.668 569.23 281.24 566.488 286.368 572.648Z" fill="#F28F8F"/>
<path d="M269.752 567.448C273.802 564.377 280.624 565.172 284.447 569.797C287.229 573.187 293.833 581.459 293.833 581.459C293.027 583.271 291.854 584.891 290.388 586.217C288.923 587.543 287.198 588.543 285.326 589.155L269.752 567.448Z" fill="#E0E0E0"/>
<path d="M347.26 676.579C347.26 676.579 335.881 634.965 319.835 595.736C303.917 556.882 279.373 517.461 275.269 511.511L275.215 511.438L275.151 511.346C274.76 510.821 274.214 510.434 273.592 510.239C272.97 510.043 272.303 510.05 271.685 510.259C271.067 510.467 270.53 510.865 270.149 511.399C269.767 511.932 269.562 512.572 269.561 513.229C269.561 513.469 269.588 513.709 269.643 513.942C269.643 513.942 280.515 567.758 296.216 605.973C311.917 644.187 333.362 682.429 333.362 682.429C333.71 682.932 334.168 683.347 334.701 683.643C335.233 683.94 335.826 684.109 336.433 684.138C338.292 684.28 340.157 683.979 341.878 683.26C343.6 682.541 345.13 681.423 346.345 679.998C346.746 679.536 347.037 678.988 347.195 678.395C347.354 677.803 347.376 677.182 347.26 676.579Z" fill="#3545FA"/>
<path opacity="0.1" d="M269.552 513.266C269.552 513.506 269.579 513.745 269.634 513.979C269.634 513.979 280.506 567.795 296.207 606.009C306.744 631.72 319.89 657.431 327.373 671.516L335.582 666.269C335.582 666.269 270.232 511.31 272.669 510.131C272.26 510.129 271.855 510.21 271.477 510.367C271.099 510.524 270.755 510.754 270.466 511.046C270.176 511.337 269.947 511.683 269.79 512.064C269.633 512.445 269.552 512.853 269.552 513.266Z" fill="black"/>
<path d="M333.317 682.465C331.994 689.183 329.693 697.812 333.878 709.017C338.599 721.74 352.904 725.25 359.772 725.259C369.348 725.259 375.409 721.676 375.409 721.676C375.409 721.676 370.454 719.757 368.406 712.536C367.999 710.963 367.75 709.352 367.663 707.728C367.219 701.879 367.029 695.508 361.964 688.443C358.292 683.147 353.192 679.024 347.269 676.561L333.317 682.465Z" fill="#EBEBEB"/>
<path d="M368.388 712.536C367.981 710.963 367.732 709.352 367.645 707.728C367.645 707.774 365.915 715.351 361.684 714.903C357.453 714.455 356.248 709.913 350.621 709.913C343.781 709.913 341.425 715.707 335.564 712.582C341.434 722.535 353.53 725.25 359.754 725.259C369.33 725.259 375.391 721.676 375.391 721.676C375.391 721.676 370.454 719.757 368.388 712.536Z" fill="#3545FA"/>
<path opacity="0.1" d="M350.522 714.976C339.45 707.235 341.534 686.642 341.86 683.288L333.317 682.465C331.994 689.183 329.693 697.811 333.878 709.017C338.599 721.74 352.904 725.25 359.772 725.259C369.348 725.259 375.409 721.676 375.409 721.676C375.409 721.676 363.487 724.052 350.522 714.976Z" fill="black"/>
<path d="M333.317 682.465C333.665 682.968 334.123 683.384 334.656 683.68C335.188 683.976 335.781 684.145 336.388 684.174C338.246 684.316 340.111 684.016 341.833 683.296C343.555 682.577 345.085 681.46 346.3 680.034C346.715 679.573 347.019 679.021 347.187 678.422C347.355 677.822 347.383 677.191 347.269 676.579C345.656 670.803 343.799 664.542 341.779 657.961C342.177 659.241 341.779 660.813 340.592 662.421C339.061 664.224 337.13 665.637 334.956 666.546C332.782 667.454 330.426 667.832 328.08 667.649C326.032 667.384 324.655 666.489 324.066 665.264C327.618 671.963 330.934 678.224 333.317 682.465Z" fill="#455A64"/>
<path d="M335.582 666.269C333.253 667.412 330.659 667.89 328.08 667.649C326.032 667.384 324.655 666.489 324.066 665.264C327.6 671.964 330.934 678.224 333.317 682.465C333.665 682.968 334.123 683.384 334.656 683.68C335.188 683.976 335.781 684.145 336.388 684.175C338.248 684.338 340.118 684.024 341.824 683.261L341.924 683.087L335.582 666.242V666.269Z" fill="#37474F"/>
<path d="M277.726 552.941C283.01 551.683 286.283 546.342 285.035 541.012C283.788 535.681 278.494 532.38 273.21 533.638C267.926 534.896 264.654 540.237 265.901 545.568C267.148 550.898 272.442 554.2 277.726 552.941Z" fill="#263238"/>
<path d="M251.949 722.983H258.871V711.028H251.949V722.983Z" fill="#FFA8A7"/>
<path d="M275.94 710.388L282.862 710.626L283.206 697.976L276.293 697.738L275.94 710.388Z" fill="#FFA8A7"/>
<path d="M252.42 616.264C252.42 622.937 251.514 663.345 251.514 663.345C251.351 665.264 249.575 668.829 249.956 676.141C250.481 686.149 251.342 712.18 251.342 712.18C251.342 712.18 254.585 715.424 259.17 712.18C259.17 712.18 265.439 676.177 266.671 666.251C267.822 657.623 269.634 634.124 269.634 634.124L276.048 661.809C276.048 661.809 274.916 668.317 274.671 672.905C274.427 677.493 275.84 701.55 275.84 701.55C276.962 702.257 278.249 702.656 279.572 702.705C280.894 702.755 282.207 702.454 283.378 701.833C283.378 701.833 288.932 665.556 289.648 661.407C290.363 657.257 284.782 616.283 284.782 616.283L252.42 616.264Z" fill="#37474F"/>
<path d="M259.052 568.033C257.577 568.292 256.211 568.988 255.127 570.031C254.044 571.073 253.291 572.417 252.964 573.891C252.587 575.633 252.399 577.41 252.402 579.192V616.264C257.249 621.593 274.146 624.07 284.773 616.264C284.773 616.264 284.565 583.525 283.768 578.141C282.39 568.791 277.96 565.464 273.503 565.811L262.821 567.402L259.052 568.033Z" fill="#F0F0F0"/>
<path d="M258.49 550.328C258.49 550.328 260.085 557.878 260.719 559.121C261.148 559.882 261.847 560.451 262.676 560.711L262.567 555.401L258.49 550.328Z" fill="#263238"/>
<path d="M260.492 539.516C259.935 539.452 259.37 539.516 258.841 539.704C258.312 539.893 257.833 540.2 257.439 540.604C256.126 541.956 256.859 546.188 258.49 550.328L261.489 550.676L260.492 539.516Z" fill="#263238"/>
<path d="M262.386 550.685C261.788 551.041 260.927 549.881 260.184 549.095C259.441 548.309 257.022 547.267 255.817 549.808C254.613 552.348 256.887 555.886 258.789 556.489C262.078 557.531 262.567 555.401 262.567 555.401L262.821 567.402C263.546 569.005 264.654 570.402 266.045 571.468C267.436 572.533 269.068 573.234 270.794 573.508C276.619 574.303 275.423 569.459 273.512 567.11V563.454C274.976 563.69 276.461 563.77 277.942 563.691C280.361 563.307 281.883 561.388 282.608 558.746C283.786 554.515 284.239 551.087 283.233 542.761C282.146 533.621 271.609 533.529 265.928 537.14C260.248 540.75 262.386 550.685 262.386 550.685Z" fill="#FFA8A7"/>
<path d="M262.386 551.699C262.087 551.699 260.936 549.78 260.184 549.095C259.152 548.181 260.492 539.516 260.492 539.516C260.218 538.77 260.166 537.96 260.343 537.185C260.52 536.41 260.919 535.705 261.489 535.156C262.911 533.584 265.285 533.401 269.344 532.761C271.464 532.423 274.689 531.847 276.819 531.427C279.355 530.952 281.457 530.449 283.242 532.021C283.941 532.637 284.437 533.454 284.66 534.363C284.884 535.272 284.825 536.229 284.492 537.103C284.306 537.5 284.062 537.867 283.768 538.191C283.286 538.766 282.66 539.202 281.956 539.452C281.956 539.452 280.85 540.448 277 540.914C273.447 541.183 269.877 541.116 266.336 540.713C265.222 540.558 264.986 541.627 264.379 544.634C263.845 547.294 263.401 551.681 262.386 551.699Z" fill="#263238"/>
<path d="M260.492 540.192L256.868 538.218C256.985 537.976 257.148 537.759 257.349 537.582C257.55 537.404 257.783 537.269 258.037 537.183C258.29 537.098 258.557 537.065 258.824 537.086C259.09 537.106 259.349 537.181 259.586 537.304C260.077 537.575 260.444 538.027 260.613 538.565C260.782 539.103 260.739 539.686 260.492 540.192Z" fill="#263238"/>
<path d="M273.494 563.399C273.494 563.399 268.058 562.311 266.246 561.297C265.136 560.713 264.227 559.805 263.636 558.692C263.916 559.805 264.415 560.849 265.104 561.763C266.481 563.545 273.503 564.852 273.503 564.852L273.494 563.399Z" fill="#F28F8F"/>
<path d="M272.198 549.323C272.193 549.537 272.125 549.744 272.003 549.92C271.881 550.095 271.711 550.23 271.514 550.308C271.316 550.386 271.101 550.404 270.893 550.359C270.686 550.314 270.496 550.208 270.348 550.055C270.2 549.902 270.1 549.708 270.061 549.498C270.021 549.288 270.044 549.071 270.127 548.873C270.209 548.676 270.347 548.508 270.524 548.39C270.7 548.271 270.908 548.208 271.12 548.208C271.263 548.209 271.405 548.239 271.537 548.296C271.669 548.353 271.789 548.435 271.889 548.539C271.989 548.643 272.068 548.765 272.121 548.9C272.174 549.034 272.2 549.178 272.198 549.323Z" fill="#263238"/>
<path d="M271.056 545.21L268.728 546.49C268.571 546.173 268.54 545.809 268.639 545.469C268.738 545.13 268.961 544.842 269.262 544.662C269.415 544.573 269.583 544.517 269.758 544.497C269.932 544.477 270.109 544.493 270.277 544.545C270.445 544.596 270.601 544.681 270.735 544.796C270.869 544.91 270.978 545.051 271.056 545.21Z" fill="#263238"/>
<path d="M273.004 556.854L275.478 557.768C275.424 557.935 275.337 558.089 275.223 558.222C275.109 558.354 274.969 558.462 274.813 558.539C274.656 558.615 274.486 558.66 274.312 558.669C274.139 558.678 273.965 558.651 273.802 558.591C273.473 558.46 273.208 558.207 273.059 557.883C272.911 557.56 272.891 557.192 273.004 556.854Z" fill="#F28F8F"/>
<path d="M281.838 546.115L279.727 544.479C279.826 544.338 279.952 544.219 280.097 544.128C280.242 544.037 280.404 543.977 280.573 543.951C280.742 543.924 280.915 543.932 281.081 543.974C281.247 544.016 281.402 544.092 281.539 544.196C281.824 544.415 282.014 544.737 282.069 545.095C282.125 545.452 282.042 545.818 281.838 546.115Z" fill="#263238"/>
<path d="M281.185 549.012C281.177 549.225 281.106 549.431 280.982 549.604C280.858 549.776 280.687 549.909 280.49 549.984C280.292 550.059 280.077 550.074 279.871 550.027C279.665 549.98 279.477 549.873 279.33 549.72C279.184 549.566 279.086 549.372 279.048 549.163C279.01 548.953 279.034 548.737 279.116 548.54C279.199 548.344 279.337 548.177 279.513 548.06C279.69 547.942 279.896 547.879 280.107 547.879C280.252 547.88 280.396 547.91 280.529 547.968C280.662 548.026 280.783 548.111 280.883 548.216C280.984 548.322 281.062 548.447 281.114 548.583C281.166 548.72 281.19 548.866 281.185 549.012Z" fill="#263238"/>
<path d="M275.686 547.979L276.039 554.533L279.428 553.372L275.686 547.979Z" fill="#F28F8F"/>
<path d="M258.862 719.528V718.532C259.532 718.824 261.063 724.747 263.817 727.27C266.001 729.28 268.973 731.602 269.734 733.841C270.495 736.081 265.584 737.497 263.546 737.095C261.172 736.665 257.068 734.984 256.035 733.439C255.002 731.894 254.522 729.582 253.688 728.439C252.855 727.297 250.916 726.017 250.463 724.692C250.209 723.961 250.463 722.371 250.862 721.036C251.26 719.702 251.523 718.44 251.94 718.559C251.94 718.705 251.94 719.318 251.94 719.318C252.924 720.102 254.147 720.518 255.401 720.497C256.415 720.515 258.871 720.305 258.862 719.528Z" fill="#263238"/>
<path d="M282.934 708.469C283.296 708.469 283.586 708.999 284.375 709.858C285.561 711.067 286.939 712.068 288.452 712.819C291.043 714.126 296.08 716.137 298.363 717.179C299.786 717.819 299.722 719.555 298.245 720.552C296.769 721.548 293.217 722.243 288.95 721.283C286.622 720.762 283.595 718.596 281.702 718.705C279.808 718.815 276.193 718.797 274.78 717.791C273.367 716.786 273.928 714.702 274.336 712.902C274.771 710.927 275.396 707.911 276.039 708.048V708.67C276.873 709.94 281.104 710.498 282.934 709.52V708.469Z" fill="#263238"/>
<path d="M269.634 634.124C273.212 632.997 276.502 631.094 279.274 628.549C279.274 628.549 277.407 632.058 271.881 635.33L273.956 653.181L269.634 634.124Z" fill="#263238"/>
<path d="M308.365 608.057C306.843 608.45 305.376 608.322 303.274 609.053C301.875 609.669 300.347 609.929 298.825 609.812C296.859 609.693 291.695 607.225 287.12 604.428C282.115 601.132 277.705 596.996 274.082 592.199C269.942 586.285 265.358 576.963 263.21 573.398C261.063 569.833 258.943 569.449 256.506 569.559C253.643 569.678 251.813 572.301 254.332 577.785C257.928 585.264 262.34 592.315 267.487 598.807C271.441 603.511 276.137 607.525 281.385 610.689C286.223 613.678 290.445 615.149 295.881 616.968C297.349 617.462 298.318 618.193 301 619.473C302.076 620.066 303.233 620.497 304.433 620.752C305.935 620.975 307.462 620.975 308.963 620.752C310.872 620.49 312.675 619.713 314.182 618.504C315.012 617.84 315.676 616.988 316.121 616.018C316.557 615.038 316.637 613.934 316.347 612.901C316.296 612.693 316.193 612.501 316.048 612.343C315.729 612.12 315.337 612.028 314.952 612.088C312.754 612.311 310.547 612.421 308.338 612.417C306.526 612.279 305.276 611.941 305.53 611.685C305.783 611.429 306.852 611.576 308.302 610.945C309.752 610.314 310.694 608.916 310.304 608.203C309.915 607.49 309.888 607.664 308.365 608.057Z" fill="#FFA8A7"/>
<path d="M257.394 568.535C255.192 568.645 252.347 569.998 252.402 573.791C252.456 577.584 258.227 588.598 262.676 594.886C262.676 594.886 269.625 594.438 273.267 589.155C273.267 589.155 266.78 578.745 265.022 575.445C263.437 572.438 260.574 568.371 257.394 568.535Z" fill="#E0E0E0"/>
<path d="M314.934 584.293C312.933 583.44 310.73 583.193 308.592 583.58C306.78 583.881 306.78 589.978 312.606 591.924C316.402 593.177 318.685 592.628 319.908 595.772C319.908 595.772 322.363 595.443 321.811 591.924C321.201 588.296 319.597 584.911 317.181 582.154C315.505 580.161 315.369 578.498 314.572 579.055C313.774 579.613 313.783 581.66 313.783 581.66L314.934 584.293Z" fill="#FFA8A7"/>
<path d="M474.028 609.611L440.777 609.154L440.487 636.574C440.487 639.051 442.055 641.546 445.28 643.474C451.74 647.331 462.268 647.441 468.836 643.73C472.134 641.857 473.783 639.37 473.774 636.866L474.028 609.611Z" fill="#37474F"/>
<path d="M445.724 602.362C439.192 606.082 439.129 612.215 445.579 616.072C452.03 619.93 462.558 620.039 469.09 616.328C475.622 612.618 475.695 606.485 469.244 602.618C462.793 598.752 452.256 598.652 445.724 602.362Z" fill="#455A64"/>
<path d="M472.578 609.501C472.57 609.949 472.491 610.394 472.342 610.817C471.844 612.389 470.485 613.842 468.365 615.049C464.923 616.749 461.134 617.613 457.302 617.572C453.47 617.53 449.7 616.585 446.295 614.811C444.247 613.586 442.907 612.069 442.435 610.579C442.277 610.127 442.197 609.651 442.2 609.172C442.2 607.133 443.722 605.159 446.422 603.688C449.866 601.994 453.654 601.133 457.485 601.175C461.316 601.216 465.085 602.158 468.492 603.925C471.174 605.47 472.578 607.453 472.578 609.501Z" fill="#263238"/>
<path d="M472.361 610.817C471.862 612.389 470.503 613.842 468.383 615.049C464.941 616.749 461.152 617.613 457.32 617.572C453.488 617.53 449.718 616.585 446.313 614.811C444.265 613.586 442.925 612.069 442.453 610.579C443.21 608.719 444.633 607.215 446.44 606.366C449.879 604.654 453.669 603.784 457.503 603.825C461.337 603.866 465.108 604.818 468.51 606.603C470.259 607.488 471.628 608.986 472.361 610.817Z" fill="#3545FA"/>
<path d="M464.487 619.875C465.221 619.463 465.801 619.811 465.792 620.651C465.763 621.111 465.627 621.557 465.396 621.954C465.164 622.351 464.844 622.687 464.46 622.936C463.726 623.348 463.147 623 463.156 622.16C463.185 621.7 463.321 621.254 463.552 620.857C463.783 620.46 464.104 620.124 464.487 619.875Z" fill="#263238"/>
<path d="M440.723 614.016C438.911 617.672 435.287 626.3 439.98 629.828C440.179 629.974 440.361 630.102 440.56 630.23V631.976C440.089 631.693 439.6 631.364 439.128 631.016C432.071 625.733 440.034 612.197 440.379 611.63C440.467 611.478 440.61 611.367 440.777 611.32L440.723 614.016Z" fill="#E0E0E0"/>
<path d="M465.113 621.748C464.913 622.169 459.776 632.077 451.323 634.069C450.368 634.302 449.389 634.418 448.406 634.416C445.603 634.363 442.874 633.501 440.542 631.93V630.185C444.03 632.625 447.545 633.466 450.979 632.662C458.78 630.834 463.772 621.163 463.808 621.072C463.852 620.987 463.912 620.911 463.985 620.849C464.058 620.787 464.142 620.741 464.233 620.712C464.324 620.683 464.42 620.673 464.515 620.681C464.61 620.69 464.702 620.717 464.786 620.761C464.874 620.802 464.953 620.86 465.017 620.933C465.082 621.006 465.131 621.091 465.162 621.183C465.192 621.276 465.204 621.374 465.195 621.471C465.187 621.568 465.159 621.663 465.113 621.748Z" fill="#E0E0E0"/>
<path d="M422.087 555.081H345.983L354.49 625.715C354.88 629.81 357.715 633.832 363.079 636.957C374.649 643.694 393.394 643.694 404.954 636.957C410.318 633.832 413.163 629.81 413.552 625.715L422.087 555.081Z" fill="#37474F"/>
<path d="M357.163 539.397C372.03 530.741 396.121 530.741 410.997 539.397C425.874 548.053 425.865 562.101 410.997 570.756C396.13 579.412 372.039 579.412 357.163 570.756C342.286 562.101 342.295 548.062 357.163 539.397Z" fill="#455A64"/>
<path d="M384.08 572.794C374.676 572.794 365.897 570.701 359.373 566.899C353.602 563.536 350.431 559.34 350.431 555.072C350.431 550.804 353.602 546.617 359.373 543.254C365.897 539.452 374.676 537.359 384.08 537.359C393.484 537.359 402.263 539.452 408.787 543.254C414.558 546.617 417.729 550.813 417.729 555.072C417.729 559.331 414.558 563.536 408.787 566.89C402.263 570.701 393.484 572.794 384.08 572.794Z" fill="#263238"/>
<mask id="mask0_60_12807" style="mask-type:luminance" maskUnits="userSpaceOnUse" x="335" y="418" width="103" height="155">
<path d="M383.573 572.795C374.168 572.795 365.389 570.702 358.866 566.899C353.095 563.536 349.924 559.34 349.924 555.072C349.924 550.804 335.718 447.065 335.718 447.065L369.774 418.813L437.407 443.582C437.407 443.582 417.729 550.813 417.729 555.09C417.729 559.368 414.168 563.783 408.406 567.137C401.91 570.921 392.977 572.795 383.573 572.795Z" fill="white"/>
</mask>
<g mask="url(#mask0_60_12807)">
<path d="M404.084 482.647L403.659 485.389L403.115 488.743L384.243 609.565C386.167 612.392 389.08 614.381 392.397 615.131C397.38 616.456 402.825 615.588 405.081 613.065L423.871 493.185L424.877 486.787C423.998 490.882 403.26 486.796 404.084 482.647Z" fill="#3545FA"/>
<path d="M402.399 493.24L401.439 499.464C401.104 501.292 404.728 503.02 409.067 504.117C414.811 505.579 421.806 505.881 422.259 503.504L422.974 498.934L423.201 497.289C422.748 499.665 415.754 499.373 410.01 497.911C405.851 496.85 402.336 495.169 402.381 493.459C402.361 493.386 402.368 493.309 402.399 493.24Z" fill="#EBEBEB"/>
<path d="M402.173 494.803C401.375 498.962 422.186 503.029 423.011 498.834L423.989 492.609C423.201 496.768 402.39 492.737 403.151 488.579L402.173 494.803Z" fill="#3545FA"/>
<path d="M404.084 482.647L403.115 488.798C402.309 492.884 422.358 497.024 423.871 493.194C423.906 493.122 423.931 493.045 423.944 492.966L424.85 486.769C423.998 490.882 403.26 486.796 404.084 482.647Z" fill="#EBEBEB"/>
<path opacity="0.1" d="M423.871 493.185L424.877 486.787C424.478 488.615 420.021 488.835 415.337 488.094L396.356 615.725L391.11 640.038L405.153 613.075L423.871 493.185Z" fill="black"/>
<path d="M408.189 456.57L404.084 482.647C403.731 484.42 407.319 486.184 411.613 487.29C417.357 488.78 424.379 489.118 424.877 486.76L428.818 461.68C430.213 455.903 419.64 451.626 413.054 452.823C410.599 453.225 408.714 454.413 408.189 456.57Z" fill="#FFA8A7"/>
<path d="M359.817 607.161L359.437 604.364L358.957 601.001L342.159 479.905C343.718 481.523 347.749 482.382 352.125 481.906C357.244 481.349 361.964 479.228 363.088 476.77L379.758 596.97L380.664 603.414C379.867 599.273 359.065 602.993 359.817 607.161Z" fill="#3545FA"/>
<path d="M350.739 456.086C347.695 456.881 346.617 456.241 346.617 456.241L342.168 479.905C344.596 483.424 350.513 484.155 355.523 482.647L355.369 481.486L350.739 456.086Z" fill="#FFA8A7"/>
<path d="M352.198 454.87L349.552 449.56L352.198 454.87Z" fill="#E0E0E0"/>
<path d="M347.831 449.807L346.617 456.205C346.617 456.205 347.65 456.945 350.739 456.049L349.552 449.523C349.5 449.415 349.427 449.318 349.338 449.239C349.249 449.159 349.145 449.098 349.032 449.059C348.919 449.02 348.8 449.004 348.681 449.011C348.562 449.019 348.445 449.05 348.338 449.103C348.202 449.168 348.085 449.267 347.996 449.39C347.908 449.513 347.851 449.656 347.831 449.807Z" fill="#455A64"/>
<path opacity="0.1" d="M379.786 596.97L363.115 476.797C361.937 479.658 358.938 481.687 355.523 482.683L371.16 601.933C375.863 601.275 380.311 601.54 380.673 603.414L379.786 596.97Z" fill="black"/>
<path d="M363.115 476.797L352.189 454.861C351.859 455.426 351.343 455.857 350.73 456.077L355.369 481.486L355.523 482.665C358.938 481.687 361.937 479.658 363.115 476.797Z" fill="#F28F8F"/>
<path d="M350.739 456.086C351.058 456.008 351.354 455.858 351.607 455.647C351.86 455.437 352.062 455.171 352.198 454.87L349.552 449.56L350.739 456.086Z" fill="#37474F"/>
<path d="M377.321 468.973C377.321 468.973 373.271 501.749 373.235 534.205C373.235 566.378 379.097 601.503 380.275 606.923C380.275 606.923 380.275 606.923 380.275 606.987C380.279 607.018 380.279 607.048 380.275 607.079C380.394 607.574 380.667 608.019 381.053 608.348C381.439 608.677 381.919 608.874 382.424 608.909C382.928 608.945 383.431 608.818 383.859 608.546C384.287 608.275 384.618 607.873 384.805 607.399C384.875 607.229 384.924 607.051 384.95 606.868C384.95 606.868 392.85 565.574 392.913 533.95C392.977 502.325 388.891 468.937 388.891 468.937C388.783 468.487 388.576 468.066 388.286 467.707C387.996 467.348 387.63 467.059 387.215 466.862C385.943 466.21 384.537 465.87 383.111 465.87C381.684 465.87 380.278 466.21 379.006 466.862C378.582 467.058 378.21 467.351 377.917 467.717C377.625 468.084 377.421 468.514 377.321 468.973Z" fill="#3545FA"/>
<path opacity="0.1" d="M384.814 607.399C384.884 607.229 384.933 607.051 384.959 606.869C384.959 606.869 392.85 565.574 392.913 533.95C392.913 512.663 391.101 490.599 389.905 478.433L382.585 479.713C382.585 479.713 383.763 608.587 381.679 608.697C381.969 608.821 382.281 608.886 382.596 608.888C382.911 608.89 383.223 608.829 383.515 608.708C383.806 608.587 384.071 608.409 384.294 608.185C384.517 607.96 384.694 607.693 384.814 607.399Z" fill="black"/>
<path d="M383.092 465.829C384.107 463.91 389.643 453.545 387.858 445.1C386.744 445.069 385.645 444.834 384.614 444.405C380.637 442.741 381.108 439.177 378.272 437.605C375.437 436.033 372.003 440.877 371.976 440.923C370.59 445.182 368.868 449.743 370.399 456.241C371.463 461.065 373.875 465.48 377.348 468.964H388.918L383.092 465.829Z" fill="#F0F0F0"/>
<path opacity="0.1" d="M396.039 446.964C393.575 443.975 391.047 445.209 387.885 445.136C389.697 453.582 384.134 463.946 383.12 465.866L388.918 468.964C389.643 467.876 390.44 466.716 391.228 465.454C391.428 465.144 391.627 464.815 391.826 464.486C392.225 463.827 392.614 463.133 392.986 462.411C393.58 461.273 394.101 460.098 394.544 458.892C394.843 458.051 395.124 457.174 395.36 456.241C395.89 454.213 396.194 452.131 396.266 450.035C396.28 449.007 396.205 447.979 396.039 446.964Z" fill="black"/>
<path d="M396.03 446.919C395.949 446.398 395.849 445.895 395.731 445.392V445.246C395.631 444.871 395.523 444.496 395.405 444.14L395.269 443.72C395.269 443.61 395.178 443.5 395.142 443.39L394.916 442.815C394.816 442.577 394.716 442.349 394.608 442.129C394.353 441.613 394.069 441.112 393.756 440.63C393.475 440.146 393.176 439.716 392.85 439.223C392.524 438.729 392.207 438.309 391.862 437.916C389.72 435.331 387.102 433.19 384.152 431.609L383.509 431.28L383.328 431.189L382.585 430.86C381.05 430.21 379.461 429.696 377.838 429.324C377.113 429.159 376.424 429.041 375.781 428.94C375.138 428.84 374.54 428.785 373.969 428.748L373.19 428.693H372.501H371.396C370.789 428.693 370.49 428.766 370.49 428.766C370.49 428.766 373.443 431.591 372.791 437.294C372.612 438.54 372.308 439.765 371.885 440.95C371.885 440.95 375.328 436.069 378.182 437.632C381.036 439.195 380.574 442.769 384.524 444.432C385.554 444.861 386.653 445.097 387.767 445.127C390.956 445.237 393.484 444.003 395.921 446.955L396.03 446.919Z" fill="#3545FA"/>
<path opacity="0.1" d="M370.517 428.766C370.517 428.766 379.641 430.594 386.173 440.859C386.986 442.157 387.557 443.594 387.858 445.1C391.047 445.209 393.575 443.975 396.012 446.928C395.93 446.407 395.831 445.904 395.713 445.401V445.255C395.613 444.88 395.505 444.506 395.387 444.149L395.251 443.729C395.251 443.619 395.16 443.509 395.124 443.4L394.898 442.824C394.798 442.586 394.698 442.358 394.59 442.138C394.338 441.621 394.059 441.118 393.756 440.63C393.475 440.146 393.176 439.716 392.85 439.223C392.524 438.729 392.207 438.309 391.862 437.916C389.72 435.331 387.102 433.19 384.152 431.609L383.509 431.28L383.328 431.189L382.585 430.86C381.05 430.21 379.461 429.696 377.838 429.324C377.113 429.159 376.424 429.041 375.781 428.94C375.138 428.84 374.54 428.785 373.969 428.748L373.19 428.693H372.501H371.396C370.789 428.693 370.49 428.766 370.49 428.766H370.517Z" fill="black"/>
<path d="M388.891 468.928C388.781 468.479 388.574 468.061 388.284 467.704C387.994 467.347 387.629 467.059 387.215 466.862C385.943 466.21 384.537 465.87 383.11 465.87C381.684 465.87 380.278 466.21 379.006 466.862C378.577 467.06 378.201 467.358 377.908 467.732C377.615 468.105 377.414 468.543 377.321 469.01C376.778 473.58 376.27 478.552 375.781 483.798C375.887 483.191 376.136 482.619 376.509 482.131C376.881 481.642 377.365 481.251 377.919 480.992C379.525 480.17 381.301 479.742 383.101 479.742C384.902 479.742 386.678 480.17 388.284 480.992C388.85 481.252 389.344 481.651 389.719 482.152C390.094 482.653 390.339 483.241 390.431 483.862C389.878 478.049 389.344 472.638 388.891 468.928Z" fill="#455A64"/>
<path d="M382.585 479.713C384.574 479.586 386.558 480.016 388.32 480.956C388.887 481.216 389.38 481.614 389.755 482.116C390.13 482.617 390.375 483.205 390.467 483.826C389.915 478.049 389.38 472.638 388.927 468.928C388.813 468.476 388.601 468.055 388.304 467.698C388.008 467.34 387.635 467.055 387.215 466.862C385.947 466.183 384.527 465.843 383.092 465.875L382.966 465.966L382.585 479.758V479.713Z" fill="#37474F"/>
</g>
<path d="M424.877 486.76L428.818 461.679C428.88 461.425 428.917 461.165 428.927 460.903C427.278 465.189 419.124 462.996 419.124 462.996L415.31 488.058C420.03 488.798 424.478 488.624 424.877 486.76Z" fill="#F28F8F"/>
<path d="M250 427.56C357.082 427.56 443.89 422.492 443.89 416.24C443.89 409.988 357.082 404.92 250 404.92C142.917 404.92 56.11 409.988 56.11 416.24C56.11 422.492 142.917 427.56 250 427.56Z" fill="#F5F5F5"/>
<path d="M500 382.4H0V382.65H500V382.4Z" fill="#EBEBEB"/>
<path d="M135.14 398.49H102.02V398.74H135.14V398.49Z" fill="#EBEBEB"/>
<path d="M214.69 390.92H171.14V391.17H214.69V390.92Z" fill="#EBEBEB"/>
<path d="M101.02 389.21H52.46V389.46H101.02V389.21Z" fill="#EBEBEB"/>
<path d="M281.9 392.59H247.61V392.84H281.9V392.59Z" fill="#EBEBEB"/>
<path d="M339.37 392.59H290.8V392.84H339.37V392.59Z" fill="#EBEBEB"/>
<path d="M420.3 396.81H326.62V397.06H420.3V396.81Z" fill="#EBEBEB"/>
<path d="M237 337.8H43.91C42.3973 337.797 40.9475 337.195 39.8789 336.124C38.8102 335.054 38.21 333.603 38.21 332.09V60.66C38.2232 59.156 38.8292 57.718 39.8964 56.6582C40.9637 55.5985 42.406 55.0026 43.91 55H237C238.514 55 239.967 55.6016 241.038 56.6724C242.108 57.7433 242.71 59.1956 242.71 60.71V332.09C242.71 333.604 242.108 335.057 241.038 336.128C239.967 337.198 238.514 337.8 237 337.8ZM43.91 55.2C42.4636 55.2026 41.0774 55.7791 40.0557 56.8027C39.0339 57.8264 38.46 59.2136 38.46 60.66V332.09C38.46 333.536 39.0339 334.924 40.0557 335.947C41.0774 336.971 42.4636 337.547 43.91 337.55H237C238.446 337.545 239.832 336.968 240.855 335.945C241.878 334.922 242.455 333.536 242.46 332.09V60.66C242.455 59.2135 241.878 57.8278 240.855 56.805C239.832 55.7822 238.446 55.2053 237 55.2H43.91Z" fill="#EBEBEB"/>
<path d="M453.31 337.8H260.21C258.697 337.795 257.248 337.191 256.178 336.122C255.109 335.052 254.505 333.603 254.5 332.09V60.66C254.516 59.1551 255.124 57.7171 256.193 56.6576C257.262 55.5981 258.705 55.0025 260.21 55H453.31C454.812 55.0052 456.252 55.6022 457.317 56.6617C458.382 57.7212 458.987 59.1578 459 60.66V332.09C459.001 332.839 458.855 333.58 458.57 334.272C458.285 334.964 457.866 335.593 457.338 336.123C456.809 336.654 456.182 337.075 455.491 337.362C454.799 337.65 454.059 337.799 453.31 337.8ZM260.21 55.2C258.764 55.2053 257.378 55.7822 256.355 56.805C255.332 57.8278 254.755 59.2135 254.75 60.66V332.09C254.755 333.536 255.332 334.922 256.355 335.945C257.378 336.968 258.764 337.545 260.21 337.55H453.31C454.756 337.545 456.142 336.968 457.165 335.945C458.188 334.922 458.765 333.536 458.77 332.09V60.66C458.765 59.2135 458.188 57.8278 457.165 56.805C456.142 55.7822 454.756 55.2053 453.31 55.2H260.21Z" fill="#EBEBEB"/>
<path d="M220.02 154.24H122.25V382.4H220.02V154.24Z" fill="#E0E0E0"/>
<path d="M205.22 154.24H107.45V382.4H205.22V154.24Z" fill="#F0F0F0"/>
<path d="M196.48 327.95H116.93V369.25H196.48V327.95Z" fill="#E0E0E0"/>
<path d="M196.48 273.78H116.93V315.09H196.48V273.78Z" fill="#E0E0E0"/>
<path d="M196.48 219.62H116.93V260.93H196.48V219.62Z" fill="#E0E0E0"/>
<path d="M196.48 165.46H116.93V206.77H196.48V165.46Z" fill="#E0E0E0"/>
<path opacity="0.05" d="M133.55 165.46H116.93V206.77H133.55V165.46Z" fill="black"/>
<path opacity="0.05" d="M133.55 219.62H116.93V260.93H133.55V219.62Z" fill="black"/>
<path opacity="0.05" d="M133.55 273.78H116.93V315.09H133.55V273.78Z" fill="black"/>
<path opacity="0.05" d="M133.55 327.95H116.93V369.25H133.55V327.95Z" fill="black"/>
<path d="M129.85 78.77H60V148.62H129.85V78.77Z" fill="#E0E0E0"/>
<path d="M126.19 78.77H56.34V148.62H126.19V78.77Z" fill="#EBEBEB"/>
<path d="M118.16 86.8101H64.38V140.59H118.16V86.8101Z" fill="#F5F5F5"/>
<path d="M66.16 86.8101H64.38V140.59H66.16V86.8101Z" fill="#E0E0E0"/>
<path d="M99.3957 121.317C103.612 117.208 103.699 110.459 99.5904 106.242C95.4815 102.026 88.7326 101.939 84.5162 106.048C80.2998 110.157 80.2126 116.906 84.3215 121.122C88.4303 125.338 95.1793 125.426 99.3957 121.317Z" fill="#FAFAFA"/>
<path d="M56.16 365.49C56.16 365.49 50.65 360.74 46.84 349.87C43.03 339 34.2 326.54 34.2 326.54C34.2 326.54 45.75 332 49.82 342.39C49.82 342.39 44.82 321.33 34.2 313.63C34.2 313.63 53.2 319.75 57.97 339.56C57.97 339.56 61.14 323.83 55.97 308.2C55.97 308.2 65.7 320.43 66.84 335.6C66.84 335.6 68.19 309.33 76.84 301.6C76.84 301.6 74.12 325.38 76.84 337.38C76.84 337.38 80.69 316.32 97.9 313.38C97.9 313.38 86.8 326.74 87.26 338.51C89.196 334.444 92.1547 330.951 95.8464 328.372C99.5382 325.794 103.836 324.218 108.32 323.8C108.32 323.8 96 332.43 94.89 346.47C93.78 360.51 93.75 364.81 86.28 366.85C78.81 368.89 56.16 365.49 56.16 365.49Z" fill="#F5F5F5"/>
<path d="M44.21 352.64V380C44.21 380 47.73 389.8 70.34 391.06C92.95 392.32 98.23 380.25 98.23 380.25V352.64H44.21Z" fill="#E6E6E6"/>
<path d="M445.6 275.28H303.95V383.23H445.6V275.28Z" fill="#E0E0E0"/>
<path d="M410.33 275.28H268.68V383.23H410.33V275.28Z" fill="#EBEBEB"/>
<path d="M403.28 285.27H273.74V325.26H403.28V285.27Z" stroke="#E0E0E0" stroke-miterlimit="10"/>
<path d="M403.28 331.92H273.74V371.91H403.28V331.92Z" stroke="#E0E0E0" stroke-miterlimit="10"/>
<path d="M338.51 308.89C340.515 308.89 342.14 307.265 342.14 305.26C342.14 303.255 340.515 301.63 338.51 301.63C336.505 301.63 334.88 303.255 334.88 305.26C334.88 307.265 336.505 308.89 338.51 308.89Z" fill="#E0E0E0"/>
<path d="M338.51 358.59C340.515 358.59 342.14 356.965 342.14 354.96C342.14 352.955 340.515 351.33 338.51 351.33C336.505 351.33 334.88 352.955 334.88 354.96C334.88 356.965 336.505 358.59 338.51 358.59Z" fill="#E0E0E0"/>
<path d="M450.87 269.52H262.44V275.28H450.87V269.52Z" fill="#E0E0E0"/>
<path opacity="0.05" d="M450.87 269.52H415.68V275.28H450.87V269.52Z" fill="black"/>
<path d="M448.83 108.52H291.95V197.22H448.83V108.52Z" fill="#E0E0E0"/>
<path d="M444.73 108.52H287.85V197.22H444.73V108.52Z" fill="#F0F0F0"/>
<path d="M438.13 115.22H293.97V190.95H438.13V115.22Z" fill="#F5F5F5"/>
<path d="M295.54 115.22H293.97V190.95H295.54V115.22Z" fill="#E0E0E0"/>
<path d="M430.474 139.21L412.246 132.366L406.654 147.261L424.881 154.105L430.474 139.21Z" fill="#FAFAFA"/>
<path d="M413.62 136.1C414.001 136.1 414.31 135.791 414.31 135.41C414.31 135.029 414.001 134.72 413.62 134.72C413.239 134.72 412.93 135.029 412.93 135.41C412.93 135.791 413.239 136.1 413.62 136.1Z" fill="#E6E6E6"/>
<path d="M342.8 158.73L381.58 162.63L379.21 178.05L341.87 173.58L342.8 158.73Z" fill="#FAFAFA"/>
<path d="M379.55 165.46C379.55 165.596 379.51 165.73 379.434 165.843C379.358 165.957 379.25 166.045 379.124 166.097C378.998 166.15 378.859 166.163 378.725 166.137C378.592 166.11 378.469 166.044 378.372 165.948C378.276 165.851 378.21 165.728 378.183 165.595C378.157 165.461 378.17 165.322 378.223 165.196C378.275 165.07 378.363 164.962 378.477 164.886C378.59 164.81 378.724 164.77 378.86 164.77C379.043 164.77 379.219 164.843 379.348 164.972C379.477 165.102 379.55 165.277 379.55 165.46Z" fill="#E6E6E6"/>
<path d="M364 269.52L372.57 225.72H412.7L404.36 269.52H364Z" fill="#EBEBEB"/>
<path d="M370.11 264.03L376.53 231.21H406.6L400.35 264.03H370.11Z" fill="#FAFAFA"/>
<path d="M378.08 231.21L371.86 264.03H370.11L376.53 231.21H378.08Z" fill="#E6E6E6"/>
<path d="M412.7 225.72H414.36L406.6 269.52H404.36L412.7 225.72Z" fill="#E6E6E6"/>
<path d="M411.52 241.7L417.21 269.52H406.6L411.52 241.7Z" fill="#E0E0E0"/>
<path d="M324.2 100.28V220.07C324.201 222.016 323.819 223.943 323.076 225.741C322.332 227.539 321.241 229.172 319.866 230.549C318.49 231.925 316.857 233.017 315.06 233.762C313.262 234.507 311.336 234.89 309.39 234.89H297.5V100.28H324.2Z" fill="#3545FA"/>
<path opacity="0.8" d="M324.2 100.28V220.07C324.201 222.016 323.819 223.943 323.076 225.741C322.332 227.539 321.241 229.172 319.866 230.549C318.49 231.925 316.857 233.017 315.06 233.762C313.262 234.507 311.336 234.89 309.39 234.89H297.5V100.28H324.2Z" fill="white"/>
<path d="M324.2 91.1801V220.07C324.201 222.016 323.819 223.943 323.076 225.741C322.332 227.539 321.241 229.173 319.866 230.549C318.49 231.925 316.857 233.017 315.06 233.762C313.262 234.507 311.336 234.89 309.39 234.89H100.06C96.1295 234.89 92.36 233.329 89.5807 230.549C86.8014 227.77 85.24 224.001 85.24 220.07V91.1801C85.2387 89.2336 85.6211 87.3058 86.3655 85.5072C87.1098 83.7086 88.2013 82.0743 89.5778 80.6979C90.9542 79.3214 92.5885 78.2298 94.3871 77.4855C96.1857 76.7412 98.1135 76.3588 100.06 76.3601H309.39C311.336 76.3601 313.262 76.7435 315.06 77.4884C316.857 78.2333 318.49 79.3251 319.866 80.7014C321.241 82.0777 322.332 83.7115 323.076 85.5095C323.819 87.3075 324.201 89.2344 324.2 91.1801Z" fill="white" stroke="#3545FA" stroke-miterlimit="10"/>
<path d="M323.52 86.7301H85.92C86.8669 83.722 88.7487 81.0945 91.2918 79.2295C93.8348 77.3645 96.9064 76.3593 100.06 76.3601H309.39C312.542 76.3614 315.611 77.3676 318.152 79.2324C320.693 81.0973 322.574 83.7237 323.52 86.7301Z" fill="#3545FA"/>
<path d="M115.44 83.6502C116.6 83.6502 117.54 82.71 117.54 81.5502C117.54 80.3904 116.6 79.4502 115.44 79.4502C114.28 79.4502 113.34 80.3904 113.34 81.5502C113.34 82.71 114.28 83.6502 115.44 83.6502Z" fill="white"/>
<path d="M122.94 83.6502C124.1 83.6502 125.04 82.71 125.04 81.5502C125.04 80.3904 124.1 79.4502 122.94 79.4502C121.78 79.4502 120.84 80.3904 120.84 81.5502C120.84 82.71 121.78 83.6502 122.94 83.6502Z" fill="white"/>
<path d="M132.53 81.5502C132.53 81.968 132.406 82.3763 132.174 82.7235C131.941 83.0707 131.611 83.3411 131.225 83.5005C130.839 83.6599 130.414 83.7011 130.005 83.6189C129.595 83.5367 129.219 83.3347 128.924 83.0386C128.63 82.7425 128.43 82.3656 128.349 81.9557C128.269 81.5457 128.312 81.1212 128.473 80.7358C128.635 80.3504 128.907 80.0216 129.255 79.7909C129.603 79.5603 130.012 79.4382 130.43 79.4402C130.707 79.4402 130.981 79.4949 131.236 79.601C131.491 79.7072 131.723 79.8628 131.918 80.0588C132.114 80.2549 132.268 80.4876 132.373 80.7435C132.478 80.9994 132.531 81.2736 132.53 81.5502Z" fill="white"/>
<path d="M324.2 91.1802V100.28H85.2V91.1802C85.1998 89.671 85.4291 88.1705 85.88 86.7302H323.48C323.944 88.1684 324.187 89.6689 324.2 91.1802Z" fill="#3545FA"/>
<path opacity="0.5" d="M324.2 91.1802V100.28H85.2V91.1802C85.1998 89.671 85.4291 88.1705 85.88 86.7302H323.48C323.944 88.1684 324.187 89.6689 324.2 91.1802Z" fill="white"/>
<path d="M113.35 100.28V234.89H99.73C96.527 234.916 93.3982 233.926 90.7942 232.06C88.1903 230.195 86.2455 227.551 85.24 224.51V100.28H113.35Z" fill="#3545FA"/>
<path opacity="0.1" d="M113.35 100.28V234.89H99.73C96.527 234.916 93.3982 233.926 90.7942 232.06C88.1903 230.195 86.2455 227.551 85.24 224.51V100.28H113.35Z" fill="black"/>
<path opacity="0.1" d="M288.13 109.82H122.94V221.31H288.13V109.82Z" fill="#3545FA"/>
<path opacity="0.2" d="M96.65 115.44H89.55V122.54H96.65V115.44Z" fill="black"/>
<path opacity="0.2" d="M107.4 115.44H100.3V122.54H107.4V115.44Z" fill="black"/>
<path d="M222.06 165.12C228.11 157.28 232.06 146.99 231.24 136.94C230.47 127.51 222.86 121.76 213.62 124.02C209.72 125.02 206.15 126.92 202.55 128.71C196.55 131.71 190.23 134.27 183.55 135.08C176.87 135.89 170.26 135.08 163.75 137.63C152.42 142.05 149.27 156.53 153.64 167.03C157.52 176.35 166.76 183.55 176.59 185.55" stroke="#263238" stroke-linecap="round" stroke-linejoin="round"/>
<path opacity="0.2" d="M96.65 126.7H89.55V133.8H96.65V126.7Z" fill="black"/>
<path opacity="0.2" d="M107.4 126.7H100.3V133.8H107.4V126.7Z" fill="black"/>
<path opacity="0.2" d="M96.65 137.96H89.55V145.06H96.65V137.96Z" fill="black"/>
<path opacity="0.2" d="M107.4 137.96H100.3V145.06H107.4V137.96Z" fill="black"/>
<path opacity="0.2" d="M96.65 149.22H89.55V156.32H96.65V149.22Z" fill="black"/>
<path opacity="0.2" d="M107.4 149.22H100.3V156.32H107.4V149.22Z" fill="black"/>
<path opacity="0.2" d="M96.65 160.47H89.55V167.57H96.65V160.47Z" fill="black"/>
<path opacity="0.2" d="M107.4 160.47H100.3V167.57H107.4V160.47Z" fill="black"/>
<path opacity="0.2" d="M96.65 171.73H89.55V178.83H96.65V171.73Z" fill="black"/>
<path opacity="0.2" d="M107.4 171.73H100.3V178.83H107.4V171.73Z" fill="black"/>
<path d="M96.42 182.67C96.42 182.831 96.3722 182.988 96.2828 183.121C96.1933 183.255 96.0662 183.358 95.9176 183.419C95.769 183.48 95.6057 183.496 95.4483 183.464C95.2909 183.432 95.1466 183.354 95.0337 183.239C94.9208 183.125 94.8445 182.98 94.8144 182.822C94.7843 182.664 94.8017 182.501 94.8646 182.353C94.9274 182.205 95.0328 182.08 95.1673 181.992C95.3018 181.904 95.4594 181.858 95.62 181.86C95.7259 181.86 95.8308 181.881 95.9285 181.922C96.0262 181.963 96.1148 182.023 96.1893 182.098C96.2637 182.173 96.3224 182.263 96.362 182.361C96.4016 182.459 96.4213 182.564 96.42 182.67Z" fill="#263238"/>
<path d="M99.33 182.67C99.33 182.83 99.2825 182.987 99.1935 183.12C99.1045 183.253 98.978 183.357 98.83 183.419C98.682 183.48 98.5191 183.496 98.362 183.465C98.2049 183.433 98.0605 183.356 97.9473 183.243C97.834 183.13 97.7568 182.985 97.7256 182.828C97.6943 182.671 97.7104 182.508 97.7717 182.36C97.833 182.212 97.9368 182.086 98.07 181.997C98.2032 181.908 98.3598 181.86 98.52 181.86C98.6268 181.859 98.7327 181.879 98.8316 181.919C98.9305 181.959 99.0203 182.019 99.0958 182.094C99.1713 182.17 99.2309 182.26 99.2711 182.359C99.3113 182.457 99.3314 182.563 99.33 182.67Z" fill="#263238"/>
<path d="M102.23 182.67C102.23 182.831 102.182 182.988 102.093 183.121C102.003 183.255 101.876 183.358 101.728 183.419C101.579 183.48 101.416 183.496 101.258 183.464C101.101 183.432 100.957 183.354 100.844 183.239C100.731 183.125 100.654 182.98 100.624 182.822C100.594 182.664 100.612 182.501 100.675 182.353C100.737 182.205 100.843 182.08 100.977 181.992C101.112 181.904 101.269 181.858 101.43 181.86C101.536 181.86 101.641 181.881 101.738 181.922C101.836 181.963 101.925 182.023 101.999 182.098C102.074 182.173 102.132 182.263 102.172 182.361C102.212 182.459 102.231 182.564 102.23 182.67Z" fill="#263238"/>
<path d="M201.1 175.08L199.83 175.97L199.07 170.42L203.7 173.24L202.55 174.02L204.34 176.66L202.93 177.82L201.1 175.08Z" fill="#263238"/>
<path d="M298.1 236.09C298.1 236.09 293 260.71 289.55 267C286.1 273.29 266.32 273 266.32 273L243.42 271.86C243.42 271.86 239.06 257.59 257.73 264.99C257.73 264.99 273.48 261.99 279.49 256.99L285.79 231.16L298.1 236.09Z" fill="#FF8B7B"/>
<path d="M366.25 419.63H360.14L343.56 329.44L342.99 326.33L348.89 325.24L349.66 329.44L366.25 419.63Z" fill="#3545FA"/>
<path opacity="0.5" d="M366.25 419.63H360.14L343.56 329.44L342.99 326.33L348.89 325.24L349.66 329.44L366.25 419.63Z" fill="white"/>
<path d="M339.9 419.63H333.87L325.59 329.44L324.71 319.84L324.51 317.71L330.48 317.16L330.73 319.84L331.61 329.44L339.9 419.63Z" fill="#3545FA"/>
<path opacity="0.5" d="M339.9 419.63H333.87L325.59 329.44L324.71 319.84L324.51 317.71L330.48 317.16L330.73 319.84L331.61 329.44L339.9 419.63Z" fill="white"/>
<path d="M278.24 320.98L277.6 329.44L270.74 419.63H264.72L271.57 329.44L272.25 320.53L278.24 320.98Z" fill="#3545FA"/>
<path opacity="0.5" d="M278.24 320.98L277.6 329.44L270.74 419.63H264.72L271.57 329.44L272.25 320.53L278.24 320.98Z" fill="white"/>
<path d="M260.85 321.25L259.5 329.44L244.63 419.63H238.55L253.43 329.44L254.94 320.27L260.85 321.25Z" fill="#3545FA"/>
<path opacity="0.5" d="M260.85 321.25L259.5 329.44L244.63 419.63H238.55L253.43 329.44L254.94 320.27L260.85 321.25Z" fill="white"/>
<path d="M358.92 318.43L358.37 319.84L355.74 326.49C355.402 327.362 354.807 328.111 354.034 328.638C353.26 329.165 352.346 329.445 351.41 329.44H252.35C251.389 329.442 250.45 329.147 249.663 328.596C248.875 328.045 248.277 327.264 247.95 326.36L245.62 319.84L245.07 318.29C244.818 317.587 244.739 316.834 244.839 316.094C244.94 315.354 245.217 314.649 245.648 314.039C246.078 313.429 246.65 312.931 247.313 312.588C247.977 312.246 248.713 312.068 249.46 312.07H354.59C355.349 312.069 356.096 312.254 356.767 312.608C357.438 312.963 358.013 313.476 358.44 314.103C358.867 314.73 359.134 315.453 359.217 316.207C359.301 316.961 359.199 317.724 358.92 318.43Z" fill="#3545FA"/>
<path opacity="0.3" d="M358.37 319.84L355.74 326.49C355.402 327.362 354.807 328.111 354.034 328.638C353.26 329.165 352.346 329.445 351.41 329.44H252.35C251.389 329.442 250.45 329.147 249.663 328.596C248.875 328.045 248.277 327.264 247.95 326.36L245.62 319.84H358.37Z" fill="black"/>
<path d="M258.05 377.34L262.73 366.71C263.002 366.09 263.489 365.591 264.102 365.304C264.714 365.017 265.41 364.962 266.06 365.15L273.46 367.25C273.847 367.361 274.206 367.554 274.512 367.815C274.818 368.077 275.064 368.401 275.234 368.767C275.403 369.132 275.493 369.529 275.496 369.931C275.498 370.334 275.415 370.733 275.25 371.1C273.25 375.62 269.45 384.04 268.25 387.05C266.62 391.24 265.25 396.29 263.07 397.7C262.937 397.788 262.796 397.865 262.65 397.93C262.191 398.119 261.689 398.181 261.198 398.109C260.707 398.038 260.244 397.836 259.857 397.524C259.471 397.212 259.175 396.802 259.002 396.337C258.828 395.872 258.783 395.369 258.87 394.88C259.45 391.36 260.08 384.78 257.96 379.47C257.831 379.127 257.772 378.762 257.788 378.396C257.803 378.03 257.892 377.671 258.05 377.34Z" fill="#263238"/>
<path d="M298.46 276.3C298.46 276.3 247.91 269.4 232.64 283.76C232.64 283.76 223.18 296.67 227.73 321.94C230.706 337.536 237.17 352.256 246.64 365L259.91 353.72C259.91 353.72 248.1 324.63 252.1 306.63L270.46 305.54L296.79 287.54L299.55 280.08L298.46 276.3Z" fill="#263238"/>
<path d="M247.86 370.08L242.91 364.07L261.05 349.15L264.48 352.72L247.86 370.08Z" fill="#3545FA"/>
<path d="M348.15 275.75C348.15 275.75 349.55 290.15 344.98 300.69C340.41 311.23 324.26 315.09 313.37 314.39C302.48 313.69 288.43 312.79 282.46 314.47C282.46 314.47 274.73 358.3 261.38 390.26L245.22 388.86C245.22 388.86 254 327 255.41 312.63C256.82 298.26 256.11 296.12 264.89 289.1C273.67 282.08 318.64 272.59 348.15 275.75Z" fill="#263238"/>
<path d="M257.27 396.05L255.74 402.74L242.91 407.23L246.64 392.98L257.27 396.05Z" fill="#FF8B7B"/>
<path d="M242.74 406.81L253.64 402.76C254.275 402.526 254.973 402.53 255.605 402.77C256.238 403.011 256.762 403.473 257.08 404.07L260.72 410.84C260.918 411.196 261.035 411.592 261.064 411.998C261.094 412.404 261.034 412.812 260.889 413.193C260.744 413.574 260.518 413.919 260.226 414.203C259.935 414.488 259.584 414.705 259.2 414.84C254.55 416.53 245.88 419.69 242.91 420.95C238.77 422.71 234.19 425.24 231.66 424.65C231.504 424.617 231.35 424.574 231.2 424.52C230.744 424.32 230.351 424.002 230.06 423.599C229.769 423.195 229.592 422.721 229.547 422.225C229.502 421.73 229.591 421.231 229.804 420.782C230.018 420.333 230.348 419.949 230.76 419.67C233.69 417.67 238.85 413.51 241.18 408.29C241.326 407.951 241.54 407.645 241.808 407.39C242.076 407.136 242.393 406.938 242.74 406.81Z" fill="#263238"/>
<path d="M298.1 279.61C298.1 279.61 291.52 236.09 290.1 225.5C288.68 214.91 290.1 209.5 294.1 206.03C298.1 202.56 316.44 195.15 328.75 197.15C341.06 199.15 347.07 209.46 348.75 221.15L345.89 222.58C345.89 222.58 349.55 263.14 348.22 277.17L298.1 279.61Z" fill="#3545FA"/>
<path d="M294.09 206C294.09 206 284.36 214.59 284.36 231.19L299.53 237L294.09 206Z" fill="#3545FA"/>
<path d="M346.12 222.42C346.12 222.42 351.63 241.9 350.12 249.95C348.61 258 334.9 268.8 315.84 272.4C315.84 272.4 307.37 273.88 302.49 269.86L295.08 267.74L297.2 261.17C302.847 261.27 308.408 262.576 313.51 265C313.51 265 331.72 256.74 337.44 250.39C337.44 250.39 336.8 237.47 333.63 228.39L346.12 222.42Z" fill="#FF8B7B"/>
<path d="M263.63 390.26L242.36 387.06L241.59 393.75L260.89 397.69L263.63 390.26Z" fill="#3545FA"/>
<path d="M283.43 179.18C282.113 183.024 282.277 187.221 283.89 190.95C283.141 187.976 283.28 184.847 284.29 181.95C285.29 179.21 286.94 176.8 288.22 174.2C289.5 171.6 290.37 168.57 289.52 165.8C289.34 165.25 288.94 164.61 288.37 164.7C287.8 164.79 287.68 165.27 287.52 165.7C286.968 166.84 286.546 168.037 286.26 169.27C286.12 170.22 286.26 171.16 286.12 172.13C285.65 174.57 284.26 176.79 283.43 179.18Z" fill="#263238"/>
<path d="M289.32 170.75C288.552 171.04 287.881 171.54 287.382 172.192C286.884 172.844 286.578 173.623 286.5 174.44C285.009 173.48 283.901 172.029 283.366 170.338C282.831 168.648 282.903 166.823 283.57 165.18C285.88 159.18 289.01 150.67 298.33 151.91C307.65 153.15 327.19 155.91 320.19 176.73C313.19 197.55 306.25 172.12 306.25 172.12L289.32 170.75Z" fill="#263238"/>
<path d="M309.71 209.66C301.22 209.13 304.82 201.81 305.21 199.1C305.313 197.918 305.055 196.732 304.47 195.7C304.074 194.933 303.591 194.215 303.03 193.56C299.31 193.56 295.19 193.06 292.24 190.56C288.94 187.81 287.63 182.68 287.09 178.61C286.666 174.845 286.593 171.049 286.87 167.27C286.87 166.71 286.95 166.16 286.97 165.61C287.1 163.44 287.24 161.28 287.32 159.16C287.32 159.16 295.55 157.35 302.9 159.03C308.34 160.27 312.16 164.79 313.81 171.9C314.418 174.608 314.723 177.375 314.72 180.15C314.87 191.97 319.5 194.04 321.31 197.51C323.12 200.98 318.22 210.16 309.71 209.66Z" fill="#FF8B7B"/>
<path d="M294.54 181.17L292.54 173.56L291.17 181.56C291.17 181.56 292.28 182.47 294.54 181.17Z" fill="#FF5652"/>
<path d="M300.42 182.47C300.42 182.47 299.17 185.15 295.19 185.62" stroke="#263238" stroke-width="0.5" stroke-linecap="round" stroke-linejoin="round"/>
<path d="M300 169.58C299.457 168.983 298.744 168.567 297.957 168.388C297.17 168.209 296.348 168.276 295.6 168.58" stroke="#263238" stroke-width="0.75" stroke-linecap="round" stroke-linejoin="round"/>
<path d="M296.84 173.31C296.91 174.08 297.36 174.67 297.84 174.63C298.32 174.59 298.66 173.93 298.6 173.16C298.54 172.39 298.08 171.8 297.6 171.84C297.12 171.88 296.78 172.54 296.84 173.31Z" fill="#263238"/>
<path d="M288 175.49C288.07 176.26 288.52 176.85 289 176.81C289.48 176.77 289.82 176.11 289.76 175.34C289.7 174.57 289.24 173.97 288.76 174.02C288.28 174.07 288 174.72 288 175.49Z" fill="#263238"/>
<path d="M286.72 165.73C289.927 164.997 292.939 163.582 295.55 161.58C298.49 171.3 311.01 171.65 314.14 171.65C312.5 164.54 308.56 159.6 303.14 158.36C295.8 156.68 287.14 158.62 287.14 158.62C287.06 160.75 286.84 163.57 286.72 165.73Z" fill="#263238"/>
<path d="M297.6 171.84L295.55 171.45C295.55 171.45 296.08 172.94 297.6 171.84Z" fill="#263238"/>
<path d="M289.17 174.06L287.12 173.68C287.12 173.68 287.65 175.16 289.17 174.06Z" fill="#263238"/>
<path d="M316.231 153.463C317.251 149.238 314.483 144.945 310.048 143.875C305.614 142.804 301.192 145.362 300.172 149.587C299.153 153.812 301.921 158.105 306.355 159.175C310.79 160.246 315.211 157.688 316.231 153.463Z" fill="#263238"/>
<path d="M292.87 163L291.21 165.18C291.21 165.18 295.6 164.42 296.57 161.42C297.54 158.42 293.88 160.77 293.88 160.77L292.87 163Z" fill="#263238"/>
<path opacity="0.1" d="M308.64 191.18C307.565 192.95 306.147 194.486 304.47 195.7C304.074 194.934 303.591 194.215 303.03 193.56C305.008 193.052 306.899 192.249 308.64 191.18Z" fill="black"/>
<path d="M286.12 172.07C286.348 171.359 286.821 170.751 287.454 170.354C288.087 169.957 288.84 169.796 289.58 169.9" stroke="#263238" stroke-width="0.75" stroke-linecap="round" stroke-linejoin="round"/>
<path d="M311.58 172.87C311.854 172.462 312.165 172.08 312.51 171.73C313.68 170.54 315.59 168.98 317.36 169.85C319.5 170.85 319.05 173.9 318.45 175.74C317.966 177.387 316.862 178.782 315.37 179.63C313.26 180.72 310.12 180.14 310.14 177.3C310.174 175.714 310.674 174.173 311.58 172.87Z" fill="#FF8B7B"/>
<path d="M313.81 169.6C313.81 169.6 310.31 175.5 311.74 180.72C313.17 185.94 312.38 188.4 311.39 191.17C311.39 191.17 311.78 183.24 310.14 180.38C307.64 176.01 311.14 169.58 311.14 169.58L313.81 169.6Z" fill="#263238"/>
<path d="M300.29 152C300.29 152 309.35 153.08 314.8 156.8C314.8 156.75 310.07 150.46 300.29 152Z" fill="#3545FA"/>
<path d="M188.44 269.52H245.44C246.019 269.52 246.59 269.389 247.111 269.135C247.631 268.882 248.087 268.513 248.444 268.057C248.8 267.602 249.048 267.07 249.169 266.504C249.29 265.938 249.28 265.352 249.14 264.79L239 224.38C238.795 223.554 238.319 222.821 237.648 222.297C236.977 221.774 236.151 221.489 235.3 221.49H178.3C177.721 221.49 177.15 221.621 176.629 221.874C176.109 222.128 175.653 222.497 175.296 222.953C174.94 223.408 174.692 223.94 174.571 224.506C174.45 225.072 174.46 225.658 174.6 226.22L184.68 266.63C184.888 267.466 185.373 268.206 186.056 268.731C186.738 269.256 187.579 269.534 188.44 269.52Z" fill="#263238"/>
<path d="M282.21 269.38H243.47V266.38H280.23C280.76 266.38 281.269 266.591 281.644 266.966C282.019 267.341 282.23 267.85 282.23 268.38V269.44L282.21 269.38Z" fill="#263238"/>
<path opacity="0.3" d="M188.44 269.52H245.44C246.019 269.52 246.59 269.389 247.111 269.135C247.631 268.882 248.087 268.513 248.444 268.057C248.8 267.602 249.048 267.07 249.169 266.504C249.29 265.938 249.28 265.352 249.14 264.79L239 224.38C238.795 223.554 238.319 222.821 237.648 222.297C236.977 221.774 236.151 221.489 235.3 221.49H178.3C177.721 221.49 177.15 221.621 176.629 221.874C176.109 222.128 175.653 222.497 175.296 222.953C174.94 223.408 174.692 223.94 174.571 224.506C174.45 225.072 174.46 225.658 174.6 226.22L184.68 266.63C184.888 267.466 185.373 268.206 186.056 268.731C186.738 269.256 187.579 269.534 188.44 269.52Z" fill="black"/>
<path d="M185.45 269.52H242.45C243.029 269.52 243.6 269.389 244.121 269.135C244.641 268.882 245.097 268.513 245.454 268.057C245.81 267.602 246.058 267.07 246.179 266.504C246.3 265.938 246.29 265.352 246.15 264.79L236 224.38C235.795 223.554 235.319 222.821 234.648 222.297C233.977 221.774 233.151 221.489 232.3 221.49H175.3C174.721 221.49 174.15 221.621 173.629 221.874C173.109 222.128 172.653 222.497 172.296 222.953C171.94 223.408 171.692 223.94 171.571 224.506C171.45 225.072 171.46 225.658 171.6 226.22L181.68 266.63C181.89 267.467 182.377 268.208 183.061 268.732C183.746 269.257 184.588 269.535 185.45 269.52Z" fill="#263238"/>
<path opacity="0.2" d="M185.45 269.52H242.45C243.029 269.52 243.6 269.389 244.121 269.135C244.641 268.882 245.097 268.513 245.454 268.057C245.81 267.602 246.058 267.07 246.179 266.504C246.3 265.938 246.29 265.352 246.15 264.79L236 224.38C235.795 223.554 235.319 222.821 234.648 222.297C233.977 221.774 233.151 221.489 232.3 221.49H175.3C174.721 221.49 174.15 221.621 173.629 221.874C173.109 222.128 172.653 222.497 172.296 222.953C171.94 223.408 171.692 223.94 171.571 224.506C171.45 225.072 171.46 225.658 171.6 226.22L181.68 266.63C181.89 267.467 182.377 268.208 183.061 268.732C183.746 269.257 184.588 269.535 185.45 269.52Z" fill="white"/>
<path opacity="0.3" d="M211.41 244.32C212.2 247.69 210.61 250.96 207.85 251.61C205.09 252.26 202.19 250.06 201.39 246.69C200.59 243.32 202.19 240.05 204.95 239.4C207.71 238.75 210.61 241 211.41 244.32Z" fill="black"/>
<path d="M171.62 273.03L150.59 403.45H145.93L167.08 272.29L171.62 273.03Z" fill="#3545FA"/>
<path opacity="0.5" d="M171.62 273.03L150.59 403.45H145.93L167.08 272.29L171.62 273.03Z" fill="white"/>
<path d="M202.56 403.45H197.89L177.57 273.02L182.12 272.31L202.56 403.45Z" fill="#3545FA"/>
<path opacity="0.5" d="M202.56 403.45H197.89L177.57 273.02L182.12 272.31L202.56 403.45Z" fill="white"/>
<path d="M251.08 273.03L230.05 403.45H225.38L246.53 272.29L251.08 273.03Z" fill="#3545FA"/>
<path opacity="0.5" d="M251.08 273.03L230.05 403.45H225.38L246.53 272.29L251.08 273.03Z" fill="white"/>
<path d="M321.27 403.45H316.61L296.28 273.02L300.83 272.31L321.27 403.45Z" fill="#3545FA"/>
<path opacity="0.5" d="M321.27 403.45H316.61L296.28 273.02L300.83 272.31L321.27 403.45Z" fill="white"/>
<path d="M327 268.58H133.75V274.65H327V268.58Z" fill="#3545FA"/>
<path opacity="0.3" d="M327.09 268.58H249.2V274.65H327.09V268.58Z" fill="black"/>
<path d="M320.07 268.58H288.15C288.15 268.108 288.338 267.655 288.671 267.321C289.005 266.988 289.458 266.8 289.93 266.8H318.28C318.753 266.8 319.207 266.987 319.542 267.321C319.878 267.654 320.067 268.107 320.07 268.58Z" fill="#263238"/>
<path d="M308.48 251.57L304.18 261.89C303.39 261.73 302.68 261.62 302.18 261.55L306.66 250.8C306.762 250.555 306.957 250.36 307.203 250.259C307.449 250.157 307.725 250.158 307.97 250.26C308.215 250.362 308.41 250.558 308.511 250.803C308.613 251.049 308.612 251.325 308.51 251.57H308.48Z" fill="#263238"/>
<path d="M311.52 243.49C317.043 243.49 321.52 238.306 321.52 231.91C321.52 225.515 317.043 220.33 311.52 220.33C305.997 220.33 301.52 225.515 301.52 231.91C301.52 238.306 305.997 243.49 311.52 243.49Z" fill="#263238"/>
<path d="M333.63 228.35L332.95 225.94L348.26 218.31L348.78 221.2L333.63 228.35Z" fill="#263238"/>
<path opacity="0.1" d="M332.95 225.94L328.31 218.99L335.68 236.21L332.95 225.94Z" fill="black"/>
<path d="M291.27 233.83L290.85 231.22L284.36 228.75V231.22L291.27 233.83Z" fill="#263238"/>
<path opacity="0.1" d="M291.27 233.83C291.14 233.33 289.55 222.42 289.55 222.42V233.18L291.27 233.83Z" fill="black"/>
<path d="M304.2 200.94C304.2 200.94 299.82 210.72 310.14 210.41C320.46 210.1 323.06 202.48 323.58 196.81L320.36 195.7C320.36 195.7 318.5 203.7 311.52 205.29C304.54 206.88 305.12 199.6 305.12 199.6L304.2 200.94Z" fill="#263238"/>
<path opacity="0.1" d="M245.56 397.09L256.45 399.65L257.07 396.92L246.19 394.69L245.56 397.09Z" fill="black"/>
</svg>
